<?xml version="1.0" encoding="UTF-8"?>
<svg width="170px" height="30px" viewBox="0 0 170 30" version="1.1" xmlns="http://www.w3.org/2000/svg" xmlns:xlink="http://www.w3.org/1999/xlink">
    <title>Group Copy 6</title>
    <g id="Home-Page" stroke="none" stroke-width="1" fill="none" fill-rule="evenodd">
        <g id="home-2-desktop" transform="translate(-683.000000, -3823.000000)" fill="#ECA846">
            <g id="Group-Copy-6" transform="translate(683.000000, 3823.000000)">
                <polygon id="Star" points="15 21.757115 6.18322122 27.1352549 8.57360179 17.0880634 0.734152256 10.3647451 11.0282675 9.53337917 15 0 18.9717325 9.53337917 29.2658477 10.3647451 21.4263982 17.0880634 23.8167788 27.1352549"></polygon>
                <polygon id="Star-Copy" points="120 21.757115 111.183221 27.1352549 113.573602 17.0880634 105.734152 10.3647451 116.028267 9.53337917 120 0 123.971733 9.53337917 134.265848 10.3647451 126.426398 17.0880634 128.816779 27.1352549"></polygon>
                <polygon id="Star-Copy-2" points="50 21.757115 41.1832212 27.1352549 43.5736018 17.0880634 35.7341523 10.3647451 46.0282675 9.53337917 50 0 53.9717325 9.53337917 64.2658477 10.3647451 56.4263982 17.0880634 58.8167788 27.1352549"></polygon>
                <polygon id="Star-Copy-3" points="85 21.757115 76.1832212 27.1352549 78.5736018 17.0880634 70.7341523 10.3647451 81.0282675 9.53337917 85 0 88.9717325 9.53337917 99.2658477 10.3647451 91.4263982 17.0880634 93.8167788 27.1352549"></polygon>
                <polygon id="Star-Copy-4" points="155 21.757115 146.183221 27.1352549 148.573602 17.0880634 140.734152 10.3647451 151.028267 9.53337917 155 0 158.971733 9.53337917 169.265848 10.3647451 161.426398 17.0880634 163.816779 27.1352549"></polygon>
            </g>
        </g>
    </g>
</svg>