<svg id="Layer_1" data-name="Layer 1" xmlns="http://www.w3.org/2000/svg" viewBox="0 0 100 100"><defs><style>.cls-1{fill:#febd39;}</style></defs><title>benefit-icons</title><path class="cls-1" d="M48,12.75a11.57,11.57,0,0,0-23.13-.38,16.11,16.11,0,0,0-2.37.5,11.26,11.26,0,0,0-7.54,13,6.13,6.13,0,0,0-3.27,2.66,5.92,5.92,0,0,0,.25,6.56A11.73,11.73,0,0,0,4.52,46a11.19,11.19,0,0,0,1.88,6.3A9.25,9.25,0,0,0,2,60.1a9,9,0,0,0,6.16,8.59,8.59,8.59,0,0,0-1.63,2.53,8.44,8.44,0,0,0-.13,6.31A8.18,8.18,0,0,0,14,82.71a4.06,4.06,0,0,0,1.25-.13,9.71,9.71,0,0,0,2.52,6.07A10.75,10.75,0,0,0,25,92.31h1.63a11.07,11.07,0,0,0,21.24-4.17V12.87c.12,0,.12,0,.12-.12ZM36.94,96.35a8.8,8.8,0,0,1-7.67-4.68,10.94,10.94,0,0,0,7.29-9.34A1.27,1.27,0,0,0,34.77,81a1.26,1.26,0,0,0-.72,1.11,8.23,8.23,0,0,1-8.68,7.57A8,8,0,0,1,18,80.93a1.17,1.17,0,0,0-.12-.63,1.29,1.29,0,0,0-1.63-.75,5.6,5.6,0,0,1-7.29-3.16,6.35,6.35,0,0,1,0-4.3,5.91,5.91,0,0,1,3-3,1.31,1.31,0,0,0,.75-1.63,1.37,1.37,0,0,0-1.26-.76h-.25a6.57,6.57,0,0,1,0-13.13,1.27,1.27,0,0,0,0-2.53,7.7,7.7,0,0,0-2.38.38A8.88,8.88,0,0,1,7,46.08a9,9,0,1,1,18.09,0,1.26,1.26,0,1,0,2.51,0A11.56,11.56,0,0,0,16.08,34.46a6.43,6.43,0,0,0-1.51.13.1.1,0,0,0,0-.09.15.15,0,0,0-.09,0,3.65,3.65,0,0,1-.63-4.54,3.55,3.55,0,0,1,5-1.26,1.3,1.3,0,0,0,1.26-2.27,5.19,5.19,0,0,0-2.65-.76A8.7,8.7,0,0,1,23.25,15.4a8.81,8.81,0,0,1,4-.25,8.26,8.26,0,0,1,5.53,3.53,1.13,1.13,0,0,0,1.76.26,1.14,1.14,0,0,0,.25-1.77,11,11,0,0,0-7.16-4.55h-.38a9.06,9.06,0,0,1,9-8.84,9.42,9.42,0,0,1,6.41,2.66,9,9,0,0,1,2.64,6.44V29.54H34.8a5.15,5.15,0,0,1-3.64-1,4.62,4.62,0,0,1-1.26-3.66,1.26,1.26,0,1,0-2.51,0,7.25,7.25,0,0,0,2.13,5.56,7.75,7.75,0,0,0,4.9,1.63H45.48V42.29H35.81a1.27,1.27,0,0,0,0,2.53h9.67V55.93h-20a5.15,5.15,0,0,1-3.64-1,4.63,4.63,0,0,1-1.26-3.66A1.25,1.25,0,0,0,20,50.17a1.22,1.22,0,0,0-1.25,0,1.25,1.25,0,0,0-.63,1.09,7.25,7.25,0,0,0,2.13,5.56,7.75,7.75,0,0,0,4.9,1.63H45.61V68.93H31.28c-.5,0-3.52-.25-5.53,1.64a7.25,7.25,0,0,0-2.13,5.56,1.26,1.26,0,0,0,.62,1.09,1.24,1.24,0,0,0,1.26,0,1.25,1.25,0,0,0,.63-1.09,4.62,4.62,0,0,1,1.26-3.66,5.15,5.15,0,0,1,3.64-1H45.35V87.75A8.38,8.38,0,0,1,36.94,96.35Z"/><path class="cls-1" d="M98,60.1a9.25,9.25,0,0,0-4.4-7.83A11.29,11.29,0,0,0,95.49,46,11.66,11.66,0,0,0,88.07,35.1a6.18,6.18,0,0,0,.25-6.57,6.08,6.08,0,0,0-3.26-2.65,11.27,11.27,0,0,0-7.54-13,16.53,16.53,0,0,0-2.4-.51,11.69,11.69,0,0,0-3.39-7.95,11.53,11.53,0,0,0-16.35,0A11.61,11.61,0,0,0,52,12.62V88a11.07,11.07,0,0,0,21.24,4.17h1.63a10.72,10.72,0,0,0,7.3-3.66,10.31,10.31,0,0,0,2.52-6.06,4.39,4.39,0,0,0,1.25.12,8.18,8.18,0,0,0,5.79-13.89A9.23,9.23,0,0,0,98,60.1Zm-9.17,6.57h-.25a1.37,1.37,0,0,0-1.26.76,1.2,1.2,0,0,0,0,1,1.22,1.22,0,0,0,.74.65,5.64,5.64,0,0,1-4.14,10.49,1.2,1.2,0,0,0-1.63.75,1.18,1.18,0,0,0-.13.63,8.41,8.41,0,0,1-1.89,5.94,8.16,8.16,0,0,1-11.47.84,8.05,8.05,0,0,1-2.74-5.64,1.26,1.26,0,0,0-2.5.26,10.75,10.75,0,0,0,7.29,9.34,8.41,8.41,0,0,1-7.67,4.67,8.56,8.56,0,0,1-8.54-8.58V71.47H69a5.23,5.23,0,0,1,3.65,1,4.63,4.63,0,0,1,1.25,3.66,1.26,1.26,0,0,0,2.52,0,7.27,7.27,0,0,0-2.14-5.56A7.87,7.87,0,0,0,68.72,69H54.52V58.21H75a7.77,7.77,0,0,0,4.9-1.64A7.23,7.23,0,0,0,82,51a1.26,1.26,0,1,0-2.51,0,4.63,4.63,0,0,1-1.26,3.66,5.23,5.23,0,0,1-3.65,1h-20V44.57h9.67a1.25,1.25,0,0,0,1.09-.63,1.29,1.29,0,0,0,0-1.26A1.26,1.26,0,0,0,64.32,42H54.65V31.81H65.58a7.77,7.77,0,0,0,4.9-1.64,7.23,7.23,0,0,0,2.13-5.55,1.26,1.26,0,1,0-2.51,0,4.64,4.64,0,0,1-1.26,3.66,5.21,5.21,0,0,1-3.64,1H54.65V12.62a9,9,0,0,1,9-9.09A8.9,8.9,0,0,1,70.1,6.19a8.71,8.71,0,0,1,2.64,6.18h-.38a11,11,0,0,0-7.16,4.55,1.34,1.34,0,0,0,.25,1.76,1.32,1.32,0,0,0,1.76-.25,8.56,8.56,0,0,1,5.53-3.54,8.69,8.69,0,0,1,4,.26,8.89,8.89,0,0,1,5,4.29,8.18,8.18,0,0,1,.75,5.94,10.49,10.49,0,0,0-2.64.75,1.3,1.3,0,0,0,1.25,2.28,3.76,3.76,0,0,1,5,1.26,3.63,3.63,0,0,1-.63,4.54.12.12,0,0,1-.12.13,5.9,5.9,0,0,0-1.51-.13A11.57,11.57,0,0,0,72.36,45.83a1.28,1.28,0,0,0,.63,1.1,1.27,1.27,0,0,0,1.25,0,1.28,1.28,0,0,0,.63-1.1,9.05,9.05,0,1,1,16.35,5.31,7.2,7.2,0,0,0-2.39-.38,1.27,1.27,0,0,0,0,2.53,6.41,6.41,0,0,1,4.63,1.91,6.48,6.48,0,0,1,1.9,4.65A6.73,6.73,0,0,1,88.83,66.67Z"/></svg>