<svg width="1360" height="763" viewBox="0 0 1360 763" fill="none" xmlns="http://www.w3.org/2000/svg">
<g opacity="0.1">
<path d="M1527.37 211.496C1520.85 245.924 1476.44 269.044 1436.07 264.706C1395.71 260.367 1361.94 233.759 1344.73 202.155C1338.73 191.134 1334.03 178.976 1323.37 170.951C1305.31 157.352 1278 160.642 1254.43 156.639C1221.91 151.12 1193.94 129.17 1184.66 101.884C1179.12 85.602 1179.76 67.8084 1171.44 52.4203C1156.52 24.828 1118.56 13.5557 1084.51 5.0452C1047.34 -4.24229 1008.11 -13.5969 970.447 -5.91165C902.817 7.88447 864.443 83.8654 898.979 135.594C932.868 186.356 1016.33 205.903 1037.78 261.426C1046.96 285.186 1042.53 311.037 1038 335.767C1032.47 366.014 1026.93 396.263 1021.4 426.511C1015.89 456.586 1008.86 489.167 982.389 509.454C952.179 532.606 900.192 530.23 873.023 504.455C845.854 478.681 848.339 434.092 878.249 410.655C894.865 397.635 917.611 391.134 933.047 377.087C960.298 352.285 954.426 308.521 925.153 285.472C895.882 262.425 849.84 259.384 813.382 272.945C776.924 286.506 749.569 314.287 732.616 345.105C724.238 360.337 718.046 376.51 707.838 390.897C681.335 428.249 627.119 457.096 631.468 500.659C636.014 546.185 702.035 568.208 722.257 610.483C728.805 624.173 730.398 639.826 740.54 651.795C750.113 663.094 765.736 669.24 778.023 678.405C821.693 710.98 809.568 778.007 763.091 807.588C716.614 837.171 649.955 833.866 598.264 811.535C576.35 802.066 555.563 788.866 544.234 770.203C522.109 733.756 540.214 684.646 511.732 651.601C498.426 636.163 477.372 627.441 458.616 616.962C416.648 593.516 382.502 556.74 375.942 514.163C369.381 471.585 395.86 424.403 442.906 409.662C480.377 397.922 524.729 406.995 559.687 390.512C614.886 364.487 614.991 291.957 664.991 259.099C681.471 248.27 702.22 242.696 717.677 230.81C747.028 208.234 748.633 165.889 725.582 138.46C702.53 111.031 659.986 98.6094 620.844 102.676C581.699 106.743 546.101 125.391 518.365 149.42C476.122 186.013 447.931 236.4 394.772 260.344C347.499 281.637 288.427 276.865 240.494 256.682C226.068 250.608 211.531 243.045 195.46 243.142C141.77 243.467 132.007 319.384 80.5215 332.445C65.2319 336.323 48.6647 333.741 33.0327 336.436C-8.85373 343.656 -28.9044 383.352 -48.5411 415.888C-68.1744 448.423 -108.442 482.399 -147.53 467.607" stroke="white" stroke-width="2"/>
<path d="M1473.89 315.993C1441.54 318.115 1408.34 307.38 1385.68 287.467C1352.18 258.027 1340.28 210.052 1297.07 192.19C1265.86 179.289 1225.83 186.19 1197.62 168.94C1163.38 148.007 1164.99 107.139 1148.71 77.1835C1129.75 42.3295 1074.76 10.4433 1030.36 12.288C986.587 14.1048 932.993 27.0962 929.53 71.9665C927.034 104.298 953.047 132.952 980.693 155.043C1008.34 177.133 1040.13 197.44 1055.6 227.001C1083.8 280.868 1048.99 347.807 1078.24 401.26C1090.28 423.26 1112.05 440.308 1135.48 453.982C1153.53 464.522 1173.17 473.512 1194.45 477.715C1240.73 486.857 1295.83 480.132 1340.44 468.628L1399.16 453.482" stroke="white" stroke-width="2"/>
<path d="M316.058 819.061C336.061 788.747 335.865 750.614 321.696 717.973C307.524 685.333 280.641 657.699 250.009 634.827C229.587 619.582 206.046 604.568 198.773 582.205C192.876 564.07 199.061 544.803 198.473 525.982C197.734 502.342 185.384 478.774 163.865 463.982C142.346 449.191 111.714 444.072 85.9488 452.511C45.5358 465.749 27.2533 505.18 -3.53722 531.237C-35.0142 557.873 -82.0278 570.276 -125.522 563.419" stroke="white" stroke-width="2"/>
<path d="M1376.52 358.122C1352.65 350.419 1337.82 330.15 1326.89 310.392C1315.96 290.636 1306.49 269.278 1287.34 254.827C1259.91 234.115 1219.8 232.665 1186.28 220.149C1145.04 204.752 1113.92 170.902 1106.07 132.927C1102.38 115.038 1103.45 96.2104 1095.61 79.3355C1087.76 62.4606 1066.21 47.9371 1046.3 54.1415C1026.44 60.3282 1020.77 83.4148 1028.04 100.423C1035.31 117.43 1051.32 130.365 1064.41 144.576C1104.07 187.6 1118.01 244.344 1119.36 299.168C1119.72 313.496 1119.3 327.908 1121.83 342.077C1129.77 386.584 1168.26 425.505 1217.21 441.8C1266.16 458.095 1323.72 452.201 1368.43 428.591C1381.02 421.947 1392.89 413.771 1400.65 402.987" stroke="white" stroke-width="2"/>
<path d="M1371.83 399.865C1339.3 421.372 1294.4 428.368 1255.12 418.05C1215.84 407.732 1183.21 380.372 1170.31 346.931C1165.24 333.795 1163.09 319.985 1160.97 306.268C1159.39 296.069 1157.81 285.868 1156.23 275.667C1155.34 269.951 1154.53 263.814 1157.63 258.693C1161.8 251.789 1172.09 248.981 1181.07 250.082C1190.05 251.183 1198.05 255.363 1205.76 259.451C1230.28 272.445 1256.08 286.624 1268.46 308.941C1275.51 321.634 1277.73 336.279 1287 347.877C1296.3 359.532 1311.8 366.702 1327.78 370.109C1343.77 373.517 1360.43 373.555 1376.9 373.574" stroke="white" stroke-width="2"/>
<path d="M1364.61 386.023C1343.72 395.631 1320.75 402.65 1297.05 403.272C1273.36 403.893 1248.84 397.591 1231.75 383.5C1225.23 378.125 1219.91 371.753 1215.37 365.044C1206.03 351.226 1199.91 335.815 1197.46 319.98C1195.93 310.067 1197.42 297.679 1208.07 293.601C1217.02 290.173 1227.55 294.944 1233.97 301.298C1238.81 306.099 1242.34 311.867 1244.2 318.011C1247.19 327.881 1245.86 338.345 1247.82 348.405C1250.62 362.722 1260.39 375.943 1274.3 384.221C1288.21 392.499 1306.07 395.729 1322.69 392.968C1335.09 390.91 1346.45 385.758 1358.38 382.198C1370.3 378.636 1383.81 376.746 1395.32 381.205" stroke="white" stroke-width="2"/>
<path fill-rule="evenodd" clip-rule="evenodd" d="M1228.75 319.502C1227.57 315.807 1225.02 312.264 1221.07 310.472C1219.53 309.775 1217.75 309.359 1216.04 309.64C1212.99 310.142 1210.97 312.672 1209.94 315.181C1206.85 322.72 1210.64 339.133 1221.73 341.101C1233.1 343.118 1230.41 324.689 1228.75 319.502Z" stroke="white" stroke-width="2"/>
<path fill-rule="evenodd" clip-rule="evenodd" d="M1077.72 86.464C1074.12 80.1779 1066.87 75.2121 1058.72 74.793C1057.8 74.7448 1056.83 74.7623 1056.02 75.1333C1054.92 75.6328 1054.32 76.6639 1053.85 77.6468C1049.12 87.4075 1049.65 98.9428 1055.27 108.35C1057.66 112.355 1061.3 116.196 1066.37 117.341C1084.26 121.374 1081.88 93.7199 1077.72 86.464Z" stroke="white" stroke-width="2"/>
<path d="M1044.21 837.614C1071.05 830.401 1093.67 812.447 1104.13 790.057C1119.75 756.628 1108.28 719.078 1105.8 683.129C1103.31 647.178 1116.69 603.879 1156.75 593.065C1200.7 581.203 1251.2 616.101 1292.11 597.939C1309.03 590.431 1319.49 575.448 1334.36 565.251C1365.51 543.901 1412.22 546.997 1447.13 563.525C1482.04 580.054 1507.83 607.471 1532.7 634.203" stroke="white" stroke-width="2"/>
<path d="M1390.35 514.226C1368.13 515.801 1346.43 522.447 1328.08 533.299C1314.27 541.463 1301.98 552.111 1286.11 556.762C1259.75 564.483 1231.31 553.825 1203.48 552.828C1171.26 551.674 1138.78 564.562 1118.95 586.367C1112.04 593.969 1106.65 602.493 1100.26 610.427C1087.39 626.431 1069.51 640.44 1047.54 645.263C1025.58 650.086 999.406 643.692 987.794 626.992C975.508 609.322 982.26 586.29 994.121 568.406C1005.98 550.523 1022.58 534.837 1031.12 515.609C1036.46 503.561 1038.43 490.532 1044.23 478.64C1050.04 466.749 1061.2 455.476 1076.11 453.851C1085.92 452.782 1095.67 456.055 1104.34 460.13C1113.44 464.406 1121.93 469.641 1129.56 475.675C1140.79 484.56 1150.22 495.222 1162.85 502.594C1185.78 515.976 1215.99 516.525 1243.1 511.527C1270.22 506.529 1295.76 496.6 1322.54 490.415C1345.73 485.058 1369.82 482.541 1393.83 482.966" stroke="white" stroke-width="2"/>
<path d="M1390.63 503.569C1348.63 503.496 1314.65 533.359 1273.69 541.338C1240.19 547.865 1205.06 539.203 1170.94 542.594C1135.36 546.129 1101.97 563.451 1081.81 588.827C1077.46 594.3 1073.71 600.104 1069.64 605.731C1063.41 614.332 1056.02 622.828 1045.5 627.435C1034.99 632.04 1020.65 631.605 1012.87 623.989C1007.64 618.873 1006.29 611.704 1005.66 604.924C1004.63 593.592 1005.13 581.804 1010.64 571.469C1019.34 555.174 1039.14 544.838 1048.13 528.661C1052.82 520.225 1054.24 510.769 1057.31 501.802C1060.37 492.833 1065.73 483.716 1075.37 479.346C1090.25 472.596 1108.71 479.828 1121.27 489.446C1133.83 499.063 1144.24 511.368 1159.58 517.31C1169.34 521.087 1180.24 521.922 1190.9 522.706C1208.36 523.99 1226.18 525.254 1243.2 521.684C1254.11 519.394 1264.32 515.189 1274.63 511.367C1317.45 495.506 1365.56 485.92 1410.82 495.589" stroke="white" stroke-width="2"/>
<path fill-rule="evenodd" clip-rule="evenodd" d="M1116.84 519.858C1117.11 524.83 1115.13 529.69 1112.73 534.219C1109.41 540.462 1105.16 546.422 1099.45 551.229C1087.15 561.578 1068.47 566.341 1059.74 579.084C1056.12 584.374 1054.64 590.529 1051.68 596.115C1048.72 601.702 1043.52 607.097 1036.43 607.928C1028.59 608.848 1021 603.4 1018.99 596.834C1016.98 590.267 1019.66 583.156 1024.31 577.666C1028.97 572.174 1035.42 568.025 1041.85 564.065C1048.28 560.104 1054.88 556.186 1059.99 551.004C1064.95 545.974 1068.37 539.837 1069.82 533.368C1072.57 521.075 1068.48 498.701 1088.14 494.949C1102.21 492.261 1116.26 509.328 1116.84 519.858Z" stroke="white" stroke-width="2"/>
<path fill-rule="evenodd" clip-rule="evenodd" d="M1101.47 514.733C1101.12 512.759 1100.55 510.764 1099.27 509.099C1097.98 507.432 1095.86 506.135 1093.54 506.097C1089.19 506.026 1086.36 510.009 1085.2 513.601C1083.4 519.172 1080.97 535.341 1092.2 534.209C1102.55 533.165 1102.6 521.087 1101.47 514.733Z" stroke="white" stroke-width="2"/>
<path d="M1067.48 785.075C1085.26 765.115 1091.93 738.19 1085.14 713.757C1081.87 702.001 1075.23 690.424 1063.8 683.349C1035.51 665.83 991.011 681.982 963.571 663.495C950.341 654.583 944.636 638.905 947.3 624.662C950.184 609.241 961.636 593.295 953.875 579.165C949.516 571.229 939.573 566.187 929.401 565.248C919.23 564.31 908.953 567.044 900.092 571.43C887.649 577.592 876.505 587.282 862.161 588.05C844.16 589.012 829.534 575.553 811.93 572.197C791.804 568.36 769.405 580.392 764.65 597.593C758.803 618.75 777.135 639.127 796.756 652.901C816.377 666.674 839.584 678.813 849.627 698.777C854.618 708.694 855.823 719.702 855.93 730.501C856.082 745.771 854.038 761.426 846.091 775.091C838.145 788.757 823.492 800.201 805.906 802.62" stroke="white" stroke-width="2"/>
<path d="M1038.2 781.573C1048.72 774.453 1053.26 762.745 1056.36 751.564C1058.85 742.54 1060.72 732.869 1057.01 724.155C1052.42 713.372 1040.1 706.273 1027.38 702.683C1014.67 699.091 1001.13 698.289 988.064 695.805C968.304 692.052 948.877 683.884 936.97 669.852C927.46 658.645 923.444 644.12 926.074 630.444C927.132 624.945 929.217 619.555 929.327 613.982C929.438 608.409 927.053 602.324 921.384 599.596C915.799 596.907 908.614 598.246 903.155 601.119C897.695 603.993 893.393 608.195 888.485 611.725C877.946 619.311 862.916 623.757 850.237 619.171C847.759 618.274 845.236 617.03 842.572 617.341C840.393 617.595 838.555 618.867 837.119 620.293C828.41 628.944 831.931 642.792 840.128 651.805C848.323 660.817 860.127 666.834 869.675 674.809C889.701 691.537 898.734 716.745 895.834 740.588C892.933 764.429 878.844 786.732 859.068 803.677" stroke="white" stroke-width="2"/>
<path d="M1008.54 779.355C1021.18 773.593 1029.42 761.379 1028.96 749.111C1028.49 736.842 1019.34 725.114 1006.28 720.07C995.96 716.078 984.089 716.149 973.451 712.821C963.168 709.603 954.596 703.403 946.202 697.379C942.204 694.509 937.813 691.518 932.61 691.237C923.104 690.723 916.253 699.619 915.594 707.766C914.226 724.676 929.452 739.325 932.476 756.076C935.326 771.873 925.925 788.78 909.812 796.825" stroke="white" stroke-width="2"/>
<path fill-rule="evenodd" clip-rule="evenodd" d="M888.194 666.819C894.899 670.143 904.997 669.4 908.645 663.541C912.055 658.063 908.485 651.464 907.967 645.27C907.647 641.445 908.534 637.554 907.684 633.789C906.835 630.025 903.363 626.205 898.9 626.444C895.096 626.649 892.824 629.46 891.175 632.077C888.973 635.577 888.63 636.329 884.001 637.921C878.618 639.771 874.867 644.528 874.55 649.493C874.082 656.823 881.214 663.357 888.194 666.819Z" stroke="white" stroke-width="2"/>
<path d="M991.687 775.486C999.291 771.088 1005.42 764.839 1009.17 757.662C1011.72 752.781 1013 746.625 1009.16 742.408C1007.3 740.36 1004.48 739.103 1001.62 738.269C993.896 736.02 985.449 736.446 977.547 734.723C968.746 732.804 960.796 728.14 955.521 721.803C953.942 719.906 952.545 717.82 950.351 716.443C948.157 715.067 944.834 714.643 942.837 716.225C942.122 716.793 941.653 717.553 941.296 718.331C938.87 723.598 941.146 729.631 944.593 734.461C948.039 739.291 952.64 743.517 955.483 748.627C961.866 760.108 958.152 774.096 950.479 784.979" stroke="white" stroke-width="2"/>
<path d="M983.715 768.766C986.796 766.092 989.101 762.765 990.365 759.164C991.418 756.167 991.585 752.541 989.045 750.293C985.786 747.41 979.731 748.574 976.649 751.596C973.568 754.618 972.672 758.796 971.895 762.754C971.425 765.139 970.955 767.524 970.486 769.909" stroke="white" stroke-width="2"/>
<path fill-rule="evenodd" clip-rule="evenodd" d="M872.822 383.567C882.269 378.532 892.564 374.702 901.733 369.3C937.908 347.996 929.15 302.027 889.118 289.205C852.545 277.49 800.342 297.384 778.999 323.732C762.57 344.014 758.982 370.092 744.485 391.43C731.861 410.01 711.803 423.842 695.042 439.837C678.281 455.832 664.057 476.341 667.483 497.643C669.137 507.939 674.801 517.423 680.902 526.405C689.481 539.03 700.987 552.22 717.805 554.58C740.514 557.767 762.248 539.623 784.719 543.882C794.304 545.698 802.157 551.34 810.512 555.759C818.242 559.847 826.941 563.032 836.023 563.076C845.106 563.12 854.582 559.515 859.002 552.713C864.146 544.794 861.395 534.664 855.924 526.91C850.449 519.153 842.573 512.86 836.533 505.417C820.909 486.16 822.568 458.911 826.903 436.902C831.596 413.084 848.743 396.403 872.822 383.567Z" stroke="white" stroke-width="2"/>
<path fill-rule="evenodd" clip-rule="evenodd" d="M800.969 527.647C799.859 526.79 798.699 525.982 797.459 525.26C788.744 520.164 779.29 523.526 770.186 526.223C759.47 529.399 748.651 533.592 737.343 532.881C708.56 531.07 692.107 502.865 694.875 480.706C697.049 463.316 708.726 447.431 724.341 436.178C735.176 428.368 747.945 422.49 757.535 413.566C779.244 393.362 780.074 362.509 795.849 338.6C812.254 313.737 846.723 296.358 880.223 300.886C892.936 302.604 903.928 311.07 907.801 321.592C911.675 332.115 908.518 344.211 900.207 352.635C889.34 363.651 872.418 367.48 858.958 375.446C846.937 382.559 832.153 392.127 823.122 401.95C813.888 411.994 807.359 423.889 804.439 436.441C800.69 452.563 802.962 469.513 810.454 484.615C813.643 491.042 815.855 497.691 821.19 502.963C829.898 511.569 837.25 520.082 833.436 531.946C832.693 534.258 831.016 536.468 828.467 537.453C827.341 537.89 826.106 538.068 824.883 538.219C820.79 538.721 816.385 538.896 812.757 537.196C810.973 536.361 809.495 535.121 808.083 533.865C805.736 531.776 803.477 529.583 800.969 527.647Z" stroke="white" stroke-width="2"/>
<path fill-rule="evenodd" clip-rule="evenodd" d="M776.65 512.648C764.553 515.091 752.36 519.362 740.119 517.523C727.903 515.689 717.451 507.397 713.913 497.206C710.375 487.016 713.684 475.384 721.946 467.455C731.711 458.081 747.207 453.978 756.155 444.025C760.795 438.863 763.388 432.405 768.75 427.787C772.872 424.236 779.955 422.135 784.431 425.355C787.084 427.262 787.946 430.433 788.203 433.394C788.543 437.327 788.094 441.308 786.877 445.11C784.832 451.509 780.64 457.424 779.86 464.024C778.926 471.901 783.041 479.655 788.615 485.964C792.986 490.911 811.866 502.28 807.957 508.989C805.349 513.464 800.057 511.963 795.636 511.552C789.235 510.957 782.917 511.382 776.65 512.648Z" stroke="white" stroke-width="2"/>
<path fill-rule="evenodd" clip-rule="evenodd" d="M757.063 498.625C753.568 499.241 749.708 499.519 746.634 497.965C745.237 497.256 744.104 496.212 743.169 495.073C739.793 490.96 738.936 485.41 740.948 480.685C742.959 475.96 747.785 472.191 753.459 470.91C755.421 470.467 757.578 470.321 759.428 471.04C763.235 472.518 764.115 476.926 763.156 480.414C761.68 485.775 766.887 487.31 765.832 492.08C765.023 495.737 760.736 497.976 757.063 498.625Z" stroke="white" stroke-width="2"/>
<path fill-rule="evenodd" clip-rule="evenodd" d="M828.162 370.128C841.331 361.48 856.684 355.644 872.084 350.361C881.737 347.048 892.9 342.505 894.641 333.715C895.821 327.755 891.772 321.656 885.936 318.261C880.099 314.87 872.805 313.811 865.753 313.823C844.839 313.856 824.44 322.957 811.484 337.036C798.528 351.113 792.943 369.778 795.22 387.606C796.035 393.972 797.496 401.254 792.584 406.078C790.39 408.231 786.908 409.994 786.922 412.854C786.94 416.634 793.675 417.893 797.018 415.429C801.066 412.44 800.428 408.671 800.894 404.723C801.421 400.266 802.882 396.617 805.383 392.55C810.82 383.709 818.947 376.179 828.162 370.128Z" stroke="white" stroke-width="2"/>
<path fill-rule="evenodd" clip-rule="evenodd" d="M872.935 334.94C874.644 333.052 876.137 330.601 875.185 328.353C874.33 326.335 871.78 325.231 869.336 324.759C859.172 322.8 849.333 328.41 840.961 333.727C834.857 337.601 822.532 343.148 819.203 349.144C815.463 355.883 821.982 358.176 827.988 356.118C843.138 350.926 862.507 346.464 872.935 334.94Z" stroke="white" stroke-width="2"/>
<path d="M1491.65 187.524C1482.99 207.847 1455.61 219.65 1430.55 217.117C1405.49 214.585 1383.6 199.861 1370.39 181.425C1361.24 168.652 1354.49 153.032 1338.77 146.464C1330.15 142.865 1320.21 142.687 1310.63 142.611C1296.1 142.497 1281.41 142.445 1267.27 139.531C1253.14 136.617 1239.39 130.518 1230.83 120.446C1216.87 104.04 1219.39 81.2384 1209.68 62.7204C1202.42 48.8863 1188.88 38.3851 1177.31 26.9112C1165.74 15.4388 1155.47 1.29945 1157.12 -13.8024C1158.13 -23.0461 1163.61 -31.5931 1170.71 -38.608C1183.07 -50.8341 1200.71 -59.0466 1219.4 -61.2827C1263.45 -66.5479 1305.3 -39.829 1349.74 -41.2062C1373.12 -41.9307 1395.26 -50.4105 1418.49 -52.7488C1441.72 -55.0856 1469.45 -48.5381 1477.82 -29.8127" stroke="white" stroke-width="2"/>
<path d="M1478.2 154.744C1471.17 169.839 1448.4 175.646 1430.02 171.651C1411.65 167.658 1396.74 156.481 1382.6 145.648C1368.47 134.814 1353.6 123.612 1335.25 119.54C1312.26 114.443 1285.52 120.93 1265.76 109.645C1245.13 97.8642 1242.87 73.3098 1234.34 53.3546C1226.77 35.6662 1212.75 17.173 1220.6 -0.42781C1226.61 -13.9304 1244.22 -21.3951 1261.04 -22.3825C1277.86 -23.3712 1294.43 -19.2438 1310.9 -16.1533C1327.73 -12.9942 1345.28 -10.8969 1362.14 -13.961C1380.32 -17.2618 1396.86 -26.4149 1415.39 -27.6067C1435.7 -28.9095 1456.43 -19.4964 1466.58 -4.361" stroke="white" stroke-width="2"/>
<path d="M1403.23 125.827C1388.67 109.187 1365.74 98.1352 1341.59 96.1211C1328.73 95.0491 1315.71 96.4235 1302.85 95.3397C1289.99 94.2546 1276.51 90.1023 1269.38 80.863C1264.1 74.0219 1263.08 65.4997 1260.64 57.5691C1257.64 47.7806 1252.31 38.5136 1250.55 28.5046C1248.8 18.4985 1251.62 6.90633 1261.49 1.35487C1270.28 -3.59047 1281.77 -2.37093 1292.16 -0.964441C1310.13 1.47026 1328.11 3.9035 1346.09 6.3382C1361.29 8.39608 1376.85 10.451 1391.96 7.98276C1409.08 5.18731 1424.16 -3.15813 1438.76 -11.3327" stroke="white" stroke-width="2"/>
<path d="M1372.51 82.4176C1362.61 74.8331 1347.83 74.7542 1334.62 75.8978C1321.41 77.0399 1307.37 78.8641 1295.41 73.929C1281.76 68.2972 1274.32 54.7216 1274.23 41.7361C1274.18 33.2125 1277.35 24.0608 1285.41 19.0702C1291.94 15.0289 1300.5 14.3775 1308.54 14.7412C1341.82 16.2455 1373.42 32.564 1406.53 29.3275" stroke="white" stroke-width="2"/>
<path fill-rule="evenodd" clip-rule="evenodd" d="M1341.14 65.3531C1335.79 65.4933 1330.29 65.3152 1325.31 63.8342C1320.34 62.3517 1315.91 59.3693 1314.57 55.48C1312.06 48.1598 1321.76 41.05 1331.77 40.1809C1364.84 37.311 1385.67 64.1935 1341.14 65.3531Z" stroke="white" stroke-width="2"/>
<path fill-rule="evenodd" clip-rule="evenodd" d="M1019.85 269.808C1022.44 276.645 1023.9 283.691 1023.99 290.735C1024.12 300.796 1021.77 310.74 1019.76 320.654C1008.71 375.314 1009.88 450.914 958.315 491.172C945.882 500.878 927.342 505.778 911.698 500.491C893.865 494.465 884.211 476.39 886.553 460.077C888.895 443.766 901.161 429.489 916.183 419.279C931.178 409.086 949.432 401.947 961.088 388.933C968.156 381.048 972.29 371.487 974.882 361.792C983.61 329.136 972.973 290.787 940.77 271.812C931.572 266.392 921.065 262.737 912.034 257.115C903.002 251.493 895.225 243.069 895.325 233.501C895.458 220.597 910.559 210.553 925.581 209.759C966.687 207.587 1007.08 236.136 1019.85 269.808Z" stroke="white" stroke-width="2"/>
<path fill-rule="evenodd" clip-rule="evenodd" d="M991.044 390.018C984.621 416.059 974.513 440.317 956.963 463.667C951.943 470.347 946.173 477.141 937.711 480.381C929.249 483.619 917.459 481.755 913.622 474.521C911.206 469.972 912.443 464.636 914.313 459.901C921.507 441.683 937.062 426.803 953.694 413.896C960.86 408.335 968.404 402.934 973.693 395.996C978.65 389.497 981.389 381.952 983.59 374.418C988.753 356.758 991.293 338.294 988.104 320.291C984.917 302.289 975.644 284.724 959.925 272.479C952.566 266.75 943.969 262.276 936.657 256.501C929.344 250.726 923.166 243.124 922.84 234.605C922.745 232.125 923.195 229.54 924.799 227.475C928.23 223.058 935.512 222.467 941.651 223.125C966.454 225.789 987.646 241.797 997.829 261.369C1015.8 295.911 1001.66 333.158 995.521 368.481C994.248 375.803 992.782 382.975 991.044 390.018Z" stroke="white" stroke-width="2"/>
<path fill-rule="evenodd" clip-rule="evenodd" d="M960.143 440.023C957.756 445.633 955.341 451.296 951.58 456.321C947.817 461.347 942.542 465.752 935.968 467.727C933.202 468.559 929.671 468.778 927.766 466.868C926.848 465.948 926.508 464.699 926.409 463.491C925.862 456.887 931.396 451.188 936.587 446.286C943.146 440.093 949.704 433.902 956.264 427.71C958.956 425.168 962.785 423.219 964.645 427.08C966.101 430.105 961.313 437.273 960.143 440.023Z" stroke="white" stroke-width="2"/>
<path fill-rule="evenodd" clip-rule="evenodd" d="M980.291 255.958C974.591 248.612 965.82 242.575 955.62 241.407C952.352 241.033 948.378 241.482 946.856 243.991C945.247 246.643 947.388 249.795 949.638 252.082C960.627 263.242 976.593 271.256 983.246 284.701C984.171 286.571 984.956 288.594 986.706 289.962C988.455 291.331 991.582 291.67 993.017 290.054C996.44 286.188 991.351 278.483 989.821 274.698C987.181 268.171 984.8 261.776 980.291 255.958Z" stroke="white" stroke-width="2"/>
<path d="M1113.8 845.121C1129.07 836.132 1137.79 820.66 1140.99 805.018C1144.19 789.374 1142.5 773.338 1140.8 757.522C1138.78 738.647 1136.75 719.772 1134.72 700.897C1132.65 681.545 1131 660.563 1143.19 644.178C1154.54 628.915 1177.6 620.812 1198.18 624.858C1206.48 626.489 1214.16 629.85 1222.31 631.966C1252.76 639.875 1286.67 629.146 1310.02 610.616C1320.25 602.504 1330.24 592.377 1344.09 591.079C1359.6 589.623 1373.2 600.074 1381.78 611.243C1391.91 624.437 1398.31 639.726 1400.28 655.435C1401.92 668.511 1400.53 681.77 1402.33 694.83C1404.89 713.494 1413.83 731.019 1419.44 749.187C1425.04 767.355 1427.01 787.676 1416.38 804.108C1414.87 806.441 1412.42 808.954 1409.34 808.579" stroke="white" stroke-width="2"/>
<path d="M1162.86 843.958C1177.41 822.954 1179.82 797.325 1177.82 772.954C1175.81 748.584 1169.77 724.512 1168.84 700.093C1168.46 690.122 1169 679.878 1173.46 670.664C1177.91 661.448 1186.93 653.358 1198.34 651.42C1211.26 649.227 1223.96 655.004 1236.83 657.383C1261.13 661.876 1286.73 653.872 1306.5 640.956C1314.56 635.691 1322.07 629.532 1331.42 626.183C1350.65 619.298 1374.91 627.097 1385.41 642.525C1393.08 653.78 1393.86 667.497 1392.88 680.505C1391.59 697.857 1387.55 714.983 1385.83 732.309C1384.11 749.636 1384.83 767.588 1392.63 783.64" stroke="white" stroke-width="2"/>
<path d="M1201.37 839.599C1210.49 820.972 1210.72 799.982 1207.72 779.943C1204.73 759.904 1198.68 740.27 1195.7 720.229C1194.11 709.538 1193.52 698.174 1199.07 688.498C1204.6 678.823 1218.14 671.754 1229.93 675.49C1234.26 676.862 1237.88 679.477 1241.91 681.41C1256.66 688.486 1276.31 685.336 1289.02 675.782C1297.1 669.705 1302.75 661.438 1311.31 655.862C1325.64 646.531 1347.43 646.861 1361.36 656.619C1376.16 666.987 1380.55 684.925 1379.85 701.303C1379.06 719.765 1373.1 737.909 1373.16 756.381C1373.21 772.809 1378.12 789.21 1387.3 803.625" stroke="white" stroke-width="2"/>
<path d="M1225.18 837.636C1233.13 817.221 1230.85 794.928 1226.12 773.789C1221.38 752.651 1214.28 731.786 1212.8 710.297C1212.47 705.47 1212.73 699.987 1216.91 696.739C1219.5 694.722 1223.14 694.004 1226.63 693.844C1245.14 693.003 1263.01 705.546 1280.86 701.264C1291.36 698.745 1298.78 691.007 1307.04 684.9C1315.16 678.899 1324.92 674.145 1335.56 673.073C1346.21 671.999 1357.77 675.104 1364.35 682.363C1369.83 688.42 1371.29 696.504 1371.01 704.167C1370.51 718.102 1364.95 731.5 1362.15 745.233C1358.2 764.616 1359.84 784.818 1366.89 803.543" stroke="white" stroke-width="2"/>
<path d="M1348.3 808.411C1335.53 785.714 1334.26 758.469 1344.87 734.972C1348.35 727.278 1353.09 719.757 1353.64 711.519C1354.18 703.282 1348.73 693.914 1339.22 692.664C1331.41 691.636 1324.05 696.375 1319.46 701.887C1314.88 707.399 1311.99 713.888 1306.99 719.133C1300.21 726.253 1288.52 730.623 1278.45 727.462C1268.78 724.43 1261.85 715.203 1251.56 715.295C1240.03 715.397 1233.54 727.82 1236.03 737.477C1238.51 747.133 1246.52 754.923 1252.14 763.556C1265.14 783.5 1264.84 809.337 1251.36 829.049" stroke="white" stroke-width="2"/>
<path d="M1324.68 812.371C1316.71 794.475 1316.3 774.184 1323.52 756.058C1325.15 751.987 1327.17 747.921 1327.28 743.62C1327.4 739.318 1325.05 734.607 1320.36 733.075C1301.71 726.977 1305.7 759.069 1286.08 752.682C1282.69 751.578 1280.03 749.311 1277.01 747.581C1274 745.848 1270.09 744.633 1266.79 745.929C1262.18 747.741 1261.58 753.424 1263.78 757.341C1269.87 768.161 1280 775.31 1283.91 787.59C1287.74 799.676 1287.19 812.835 1281.89 824.539" stroke="white" stroke-width="2"/>
<path fill-rule="evenodd" clip-rule="evenodd" d="M750.133 709.004C735.256 695.063 712.069 687.883 701.178 671.457C690.699 655.655 694.567 635.688 687.731 618.483C678.065 594.152 649.497 579.867 629.678 560.581C588.376 520.388 589.868 453.039 632.921 414.221C640.15 407.706 649.063 399.133 644.491 391.04C640.777 384.462 629.806 383.353 622.074 386.433C614.344 389.514 608.798 395.446 602.603 400.466C580.026 418.753 547.81 425.343 516.861 427.574C494.577 429.179 470.716 429.278 452.22 440.055C434.977 450.105 425.709 468.007 423.384 485.771C419.527 515.231 433.531 545.994 459.644 565.424C482.12 582.148 512.445 590.695 531.68 610.166C573.427 652.423 543.829 723.437 582.758 767.626C590.423 776.328 600.402 783.42 611.324 789.01C647.593 807.567 699.75 809.338 737.181 791.37C769.699 775.76 774.759 732.079 750.133 709.004Z" stroke="white" stroke-width="2"/>
<path d="M937.152 -27.455C909.942 -28.2612 885.228 -11.3044 873.061 9.57818C860.893 30.4622 859.086 54.6018 859.517 77.9425C859.806 93.6738 860.944 108.542 869.48 122.44C878.067 136.418 887.717 147.703 890.943 164.219C901.85 220.05 847.092 246.129 793.005 259.921C753.298 270.048 726.215 301.581 708.656 333.752C704.542 341.29 700.497 349.291 692.869 354.438C685.243 359.583 672.726 360.514 666.64 354.032C664.564 351.82 663.484 349.051 662.649 346.304C656.297 325.407 662.683 301.974 679.179 285.653C695.901 269.111 720.878 260.612 740.375 246.484C790.419 210.219 795.452 121.205 736.542 89.1593C715.868 77.9147 691.225 73.3798 669.369 63.9214C648.443 54.8676 630.234 41.2468 616.932 24.7004C599.421 2.91815 591.311 -27.8551 609.069 -49.4885" stroke="white" stroke-width="2"/>
<path d="M561.817 -25.3015C578.741 6.56131 593.65 45.2127 572.082 74.9417C551.422 103.419 506.685 110.276 476.864 131.978C448.872 152.348 436.11 184.21 411.643 207.68C376.539 241.348 316.653 254.09 267.267 238.397C237.512 228.943 208.246 209.956 177.479 216.616C150.286 222.502 134.077 246.327 109.877 258.483C83.0314 271.965 48.1322 269.468 20.4249 257.335C-7.28251 245.2 -28.7674 224.673 -46.6735 202.859C-91.781 147.901 -117.768 74.6408 -86.2432 13.1132" stroke="white" stroke-width="2"/>
<path d="M899.902 -40.1212C866.576 -32.4009 839.856 -8.3694 829.372 19.8334C818.889 48.0361 823.815 79.62 839.674 105.912C852.567 127.292 873.062 148.268 868.957 172.076C865.327 193.123 843.593 207.867 823.514 220.368C815.98 225.058 808.447 229.748 800.913 234.439C797.951 236.283 794.588 238.222 790.957 237.814C784.804 237.12 782.43 230.453 782.849 225.144C783.549 216.264 788.03 207.986 791.71 199.664C806.856 165.416 807.606 123.483 780.275 95.3324C747.881 61.9666 685.992 56.7409 657.508 20.8484C637.456 -4.42016 641.319 -41.6446 666.263 -63.478" stroke="white" stroke-width="2"/>
<path fill-rule="evenodd" clip-rule="evenodd" d="M678.888 689.798C666.923 670.351 674.199 644.297 658.546 626.882C652.138 619.754 642.739 615.178 634.147 610.011C606.995 593.681 587.273 569.245 576.972 542.354C571.772 528.772 568.587 514.182 568.692 499.849C568.81 483.605 577.262 471.578 585.592 457.484C587.631 454.037 589.506 450.393 589.668 446.53C589.828 442.67 587.917 438.523 583.958 436.676C582.248 435.878 580.294 435.558 578.373 435.278C575.15 434.809 571.765 434.431 568.667 435.328C566.394 435.986 564.449 437.286 562.715 438.709C552.21 447.32 547.568 455.153 533.466 459.676C521.682 463.457 508.041 460.678 496.336 464.633C476.724 471.261 471.365 493.398 475.152 511.179C480.08 534.322 495.83 555.637 518.13 569.346C533.372 578.713 551.708 584.827 563.955 597.005C589.029 621.933 578.672 659.778 585.094 692.233C592.487 729.583 634.584 776.12 683.225 775.27C703.959 774.907 727.549 761.301 726.292 741.729C724.822 718.809 690.418 708.538 678.888 689.798Z" stroke="white" stroke-width="2"/>
<path d="M518.96 -11.1997C538.015 -1.01687 542.095 22.6729 533.277 40.3759C524.458 58.0819 505.99 70.7943 487.156 81.2736C468.321 91.7543 448.122 100.98 432.639 114.923C408.846 136.346 398.431 166.92 373.722 187.569C349.508 207.802 312.382 215.887 279.841 208.014C244.409 199.44 212.106 173.499 176.201 180.475C146.832 186.185 128.789 212.051 101.359 222.71C74.9654 232.968 42.6521 227.25 19.285 212.552C-4.08045 197.854 -19.4552 175.425 -29.2889 152.052C-54.4276 92.3093 -45.3451 22.7386 -5.42097 -30.7591" stroke="white" stroke-width="2"/>
<path d="M460.209 -30.4106C478.837 -8.24124 498.004 21.2468 481.213 44.4706C470.983 58.6173 450.838 64.512 435.44 74.6495C400.897 97.3884 392.235 139.954 360.402 165.437C335.967 185 298.637 191.811 267.03 182.477C235.243 173.089 205.686 148.638 173.295 156.362C155.807 160.531 143.146 173.353 127.189 180.771C86.5016 199.687 31.9045 176.872 12.3052 140.921C-7.29399 104.969 1.26218 61.8611 20.812 25.8898C40.3618 -10.0801 69.8969 -41.2682 94.1822 -75.0501" stroke="white" stroke-width="2"/>
<path fill-rule="evenodd" clip-rule="evenodd" d="M684.664 715.808C671.115 705.496 661.741 691.227 658.479 675.948C655.56 662.276 656.5 646.285 644.452 636.986C636.477 630.833 624.701 629.458 616.532 623.498C611.67 619.953 605.368 614.558 600.3 617.881C597.275 619.861 597.389 623.724 597.789 626.968C599.907 644.109 602.024 661.251 604.143 678.392C605.267 687.487 606.412 696.665 609.786 705.34C615.048 718.869 625.454 730.473 636.657 741.012C646.13 749.923 656.984 758.62 670.628 761.538C682.277 764.028 704.161 759.498 709.36 748.725C716.122 734.711 694.547 723.328 684.664 715.808Z" stroke="white" stroke-width="2"/>
<path fill-rule="evenodd" clip-rule="evenodd" d="M563.837 478.679C564.956 476.173 566.188 473.315 564.781 470.918C562.97 467.832 557.778 467.489 554.109 468.913C550.438 470.335 547.595 472.966 544.101 474.686C537.729 477.825 529.813 477.668 523.11 480.249C508.347 485.932 504.353 502.703 507.279 516.349C510.524 531.492 519.952 545.608 533.542 555.672C541.899 561.862 551.859 566.65 558.544 574.187C561.943 578.018 564.368 582.436 567.853 586.209C571.339 589.983 576.326 593.198 581.939 593.179C583.559 593.173 585.342 592.805 586.252 591.657C587.04 590.662 586.969 589.358 586.819 588.162C584.484 569.344 565.648 556.762 560.103 537.861C554.395 518.419 555.463 497.444 563.837 478.679Z" stroke="white" stroke-width="2"/>
<path fill-rule="evenodd" clip-rule="evenodd" d="M644.683 679.621C643.276 673.467 643.058 667.049 640.385 661.211C637.711 655.374 631.642 650.022 624.329 650.144C623.375 650.16 622.386 650.279 621.599 650.739C619.592 651.909 619.873 654.471 620.379 656.506C622.476 664.898 624.569 673.291 626.665 681.684C629.417 692.715 632.245 703.92 638.525 713.833C641.677 718.81 681.357 755.507 685.607 737.388C686.757 732.485 666.587 716.415 662.938 712.074C654.685 702.259 647.429 691.636 644.683 679.621Z" stroke="white" stroke-width="2"/>
<path fill-rule="evenodd" clip-rule="evenodd" d="M546.521 501.611C546.312 501.028 546.079 500.451 545.823 499.883C541.469 490.242 530.395 494.285 528.016 502.772C525.904 510.289 524.342 542.14 538.66 541.989C547.359 541.898 547.891 531.509 548.019 526.162C548.206 518.284 549.303 509.328 546.521 501.611Z" stroke="white" stroke-width="2"/>
<path fill-rule="evenodd" clip-rule="evenodd" d="M852.333 173.085C850.844 185.51 841.971 197.115 829.277 203.241C825.908 204.868 821.629 206.101 818.304 204.406C815.717 203.089 814.582 200.404 813.96 197.879C810.523 183.914 816.882 170.29 820.057 156.783C821.607 150.18 814.361 130.327 820.07 126.074C826.581 121.221 835.418 131.783 839.033 135.759C848.314 145.968 853.888 160.1 852.333 173.085Z" stroke="white" stroke-width="2"/>
<path d="M856.545 -39.0407C820.99 -22.9252 800.553 14.5314 808.911 48.2594C813.487 66.7292 825.673 83.8714 825.996 102.75C826.022 104.235 825.957 105.778 825.185 107.107C823.325 110.32 817.951 110.948 814.207 109.353C810.461 107.755 807.99 104.627 805.719 101.615C795.793 88.4428 786.154 74.6233 771.697 65.0189C749.955 50.5714 719.894 47.4035 699.146 31.919C684.748 21.1724 676.227 4.86275 676.459 -11.5039C676.694 -27.872 685.678 -43.9991 700.378 -54.439" stroke="white" stroke-width="2"/>
<path fill-rule="evenodd" clip-rule="evenodd" d="M788.956 25.7655C791.151 32.1319 793.454 39.7164 788.528 44.84C786.033 47.4353 782.164 48.7381 778.369 49.5984C774.794 50.409 771.009 50.9158 767.404 50.1972C764.096 49.537 761.163 47.8866 758.613 45.9646C749.417 39.0402 744.582 28.0877 746.126 17.6786C747.701 7.0547 761.753 -12.5207 777.294 -8.90301C790.678 -5.78917 785.656 16.2005 788.956 25.7655Z" stroke="white" stroke-width="2"/>
<path d="M1410.54 431.217C1362.58 456.849 1304.87 470.909 1248.93 464.061C1192.98 457.213 1139.8 427.646 1116.08 383.665C1090.53 336.272 1100.91 280.004 1081.64 230.473C1066.23 190.836 1036.12 148.155 1002.99 117.978C988.908 105.154 975.545 89.0547 978.052 71.5737C980.119 57.1583 993.148 45.1119 1008.59 39.1471C1048.68 23.6626 1096.44 38.0239 1119.91 68.7987C1132.9 85.8357 1139.23 106.02 1142.59 126.171C1145.22 141.904 1146.38 158.411 1155.62 172.191C1170.6 194.537 1202.39 203.649 1231.79 208.999C1261.2 214.347 1292.92 218.516 1315.05 235.96C1336.05 252.517 1344.01 277.651 1358.73 298.605C1379.92 328.755 1416.67 350.523 1457.05 356.847" stroke="white" stroke-width="2"/>
<path d="M278.988 815.427C299.465 775.443 291.539 725.863 259.27 692.08C231.729 663.247 188.037 644.802 172.269 610.074C165.052 594.179 164.716 576.713 163.725 559.677C162.733 542.643 160.778 525.007 150.868 510.216C140.959 495.427 120.973 484.288 101.541 487.932C77.2691 492.483 65.8955 515.546 52.7641 533.63C23.9699 573.286 -30.462 598.213 -84.9143 596.678" stroke="white" stroke-width="2"/>
<path d="M227.526 823.655C249.862 782.037 244.306 730.37 213.466 692.958C186.84 660.656 141.862 635.961 136.237 596.701C134.534 584.808 136.815 572.653 134.636 560.816C132.454 548.98 123.854 536.581 110.068 534.602C99.1802 533.041 88.3756 538.544 81.1822 545.724C73.9888 552.904 69.4339 561.702 63.5742 569.724C39.6842 602.428 -8.1573 620.914 -52.5579 614.595" stroke="white" stroke-width="2"/>
<path d="M193.306 844.469C210.226 812.099 227.401 775.54 213.077 742.262C202.09 716.729 174.994 699.402 154.472 678.642C137.077 661.047 124.01 640.321 116.37 618.205C113.331 609.411 110.11 599.271 100.459 595.32C92.4155 592.028 82.5495 594.521 75.4344 599.119C68.316 603.718 63.1598 610.133 57.3001 615.892C28.7479 643.954 -19.4802 655.992 -61.1401 645.454" stroke="white" stroke-width="2"/>
<path d="M169.737 837.091C202.619 808.886 201.511 757.088 167.446 729.934C149.106 715.314 122.545 706.49 113.168 686.578C107.701 674.97 108.059 659.783 95.7249 653.083C86.4584 648.048 73.5263 650.822 65.5902 657.315C57.6558 663.809 53.801 673.133 51.3702 682.303C45.8904 702.958 46.2686 724.529 40.3868 745.102C34.5066 765.675 20.2152 786.452 -3.26437 793.032" stroke="white" stroke-width="2"/>
<path fill-rule="evenodd" clip-rule="evenodd" d="M156.241 767.018C154.365 755.287 145.705 744.498 133.596 738.809C126.184 735.326 117.275 733.43 112.065 727.726C107.484 722.71 105.982 715.01 99.0713 712.669C90.4947 709.763 82.3661 717.807 79.0394 725.181C69.5839 746.144 72.5835 770.929 86.8563 789.779C110.76 821.351 162.197 804.324 156.241 767.018Z" stroke="white" stroke-width="2"/>
<path d="M514.434 807.279C521.263 753.162 518.749 683.374 465.321 647.121C432.522 624.867 395.841 607.37 373.836 576.899C351.863 546.472 339.551 509.849 348.764 474.222C353.948 454.177 365.352 432.743 354.98 414.237C345.676 397.638 321.938 390.73 300.46 390.603C264.436 390.387 226.367 407.593 215.067 436.922C204.744 463.715 218.106 492.491 220.589 520.626C222.402 541.141 218.678 563.141 230.222 581.175C244.116 602.879 275.094 611.271 296.734 627.661C312.012 639.233 322.472 654.757 330.921 670.663C359.913 725.246 367.375 790.085 340.065 845.301" stroke="white" stroke-width="2"/>
<path d="M488.828 827.702C489.933 782.794 504.974 733.871 477.507 695.621C463.611 676.269 440.848 663.159 420.098 649.018C391.443 629.49 365.284 606.682 347.083 579.452C328.883 552.222 319.035 520.236 323.904 489.13C326.978 469.473 335.444 448.176 324.166 430.86C315.658 417.798 296.484 410.925 279.394 413.939C262.304 416.954 248.191 429.104 243.562 443.528C240.538 452.944 241.235 462.905 241.955 472.651C243.209 489.59 244.459 506.531 245.711 523.471C246.91 539.682 248.341 556.571 257.948 570.572C270.857 589.387 295.851 599.29 313.479 615.041C325.159 625.476 333.424 638.329 341.047 651.231C376.758 711.663 401.635 781.707 379.945 846.851" stroke="white" stroke-width="2"/>
<path d="M469.512 826.531C478.66 791.579 487.287 752.993 467.296 721.541C457.135 705.554 440.636 693.38 425.081 680.989C391.25 654.034 360.092 624.084 337.622 589.489C315.153 554.892 301.684 515.3 304.585 475.78C305.276 466.358 306.806 456.496 302.542 447.793C298.279 439.088 285.469 432.621 276.038 437.492C271.571 439.798 268.964 444.001 266.988 448.139C252.72 478.035 261.365 512.759 278.506 541.522C295.649 570.287 320.604 595.001 341.308 621.987C385.775 679.941 410.336 748.978 411.164 818.346" stroke="white" stroke-width="2"/>
<path fill-rule="evenodd" clip-rule="evenodd" d="M427.511 710.537C427.084 710.057 426.636 709.574 426.168 709.098C420.317 703.143 412.299 708.962 413.444 717.232C414.983 728.353 420.699 739.368 425.544 749.996C429.216 758.054 441.647 801.655 454.162 778.356C463.553 760.875 439.227 723.708 427.511 710.537Z" stroke="white" stroke-width="2"/>
<path d="M428.52 -15.4798C439.705 -9.60119 448.814 -0.493339 452.56 10.2868C456.306 21.0655 454.251 33.4697 446.065 42.2577C439.733 49.0565 430.469 53.2526 421.669 57.5816C403 66.7668 384.864 77.7237 372.746 92.976C357.674 111.944 352.683 136.565 333.757 152.796C316.514 167.586 288.733 172.491 266.078 164.748C252.572 160.131 241.324 151.651 228.159 146.358C209.127 138.707 186.323 138.28 166.922 145.212C158.71 148.146 151.164 152.297 143.071 155.465C113.863 166.892 74.7426 162.658 55.9491 140.339C50.4743 133.837 46.9722 126.247 44.5534 118.499C33.592 83.4007 44.5022 45.5804 63.8681 13.2619C83.234 -19.0581 110.597 -47.2346 135.266 -76.7796" stroke="white" stroke-width="2"/>
<path d="M385.107 -17.5107C395.259 -11.1851 404.764 -3.55972 410.055 6.19806C415.348 15.9558 415.733 28.1877 408.515 36.9903C401.639 45.3781 389.623 49.1492 378.949 53.7688C365.407 59.6299 352.901 67.6891 344.178 78.332C335.356 89.0931 330.783 101.947 323.576 113.558C316.367 125.17 305.128 136.254 290.015 138.516C262.799 142.589 241.305 117.249 214.007 113.601C182.944 109.45 154.563 134.22 123.274 131.61C102.189 129.851 84.4517 115.013 78.3621 97.6167C72.2725 80.2204 76.5361 61.0262 86.3101 44.9122C96.0842 28.7982 110.963 15.3833 126.732 3.25653C144.546 -10.4461 163.762 -22.8095 184.081 -33.6495" stroke="white" stroke-width="2"/>
<path d="M344.1 -14.9487C352.703 -10.8271 361.458 -6.60177 368.14 -0.393071C374.823 5.81709 379.204 14.4576 377.221 22.7329C373.803 36.9979 354.953 43.2986 340.844 51.4045C328.535 58.4749 318.539 68.4707 312.268 79.9768C308.149 87.5321 305.611 95.695 301.011 103.043C296.412 110.391 289.101 117.14 279.566 118.79C258.58 122.42 242.916 101 221.882 97.5747C198.989 93.8474 178.085 112.287 154.803 111.415C138.951 110.819 125.116 101.023 117.345 89.162C113.429 83.1826 110.707 76.3795 111.422 69.5501C112.33 60.8994 118.529 53.3879 124.886 46.6213C151.437 18.3571 184.661 -5.27709 221.961 -22.4324" stroke="white" stroke-width="2"/>
<path d="M307.237 -8.82169C316.072 -1.23133 320.026 10.2995 317.387 20.7832C314.471 32.3725 304.511 41.5606 297.926 51.9873C293.448 59.0723 290.451 66.8847 284.924 73.4045C279.396 79.9243 270.288 85.131 261.041 83.6866C251.164 82.1428 244.62 73.7959 235.195 70.8383C219.871 66.0274 204.536 76.5475 189.66 82.3005C186.512 83.5186 183.165 84.5497 179.712 84.5089C169.827 84.3964 162.68 75.1556 163.205 66.6904C163.733 58.2267 169.8 50.7824 176.438 44.5021C189.697 31.9562 205.965 22.0626 220.471 10.5785C234.979 -0.905641 248.154 -14.7149 252.415 -31.2466" stroke="white" stroke-width="2"/>
<path d="M284.341 -7.79918C284.748 4.56856 284.81 17.2474 279.967 28.9024C275.122 40.5545 264.372 51.1491 250.224 53.5707C243.047 54.7975 234.401 53.2508 230.88 47.749C229.696 45.8985 229.207 43.7647 229.138 41.6513C228.77 30.5309 239.073 21.6275 247.582 13.2295C257.307 3.63382 265.532 -7.07768 271.971 -18.5282" stroke="white" stroke-width="2"/>
<path fill-rule="evenodd" clip-rule="evenodd" d="M414.511 388.589C430.611 384.997 445.278 377.41 461.548 374.441C487.851 369.643 517.694 376.915 540.56 364.784C563.379 352.679 568.91 326.96 581.3 306.555C606.475 265.1 662.802 243.576 690.968 203.56C695.593 196.991 699.458 189.78 699.982 182.12C700.432 175.561 698.402 169.047 695.625 162.921C690.232 151.018 681.424 139.681 668.323 133.608C654.773 127.327 638.071 127.464 623.444 131.608C608.819 135.751 595.975 143.552 584.228 152.094C569.133 163.07 555.434 175.455 543.453 188.961C523.768 211.151 508.336 237.781 483.917 256.171C458.763 275.117 429.385 292.499 395.043 294.919C378.701 296.072 362.324 293.727 345.938 293.146C329.553 292.566 312.282 293.989 298.611 301.754C280.323 312.143 272.768 336.833 288.113 351.332C302.46 364.887 325.43 369.231 343.538 377.803C365.947 388.412 388.912 394.296 414.511 388.589Z" stroke="white" stroke-width="2"/>
<path fill-rule="evenodd" clip-rule="evenodd" d="M575.486 270.382C589.179 258.147 605.82 247.777 620.901 236.635C639.17 223.137 692.911 168.485 647.471 154.317C638.148 151.41 627.776 154.147 618.728 157.629C597.105 165.95 577.792 178.642 562.802 194.38C548.63 209.26 538.433 226.616 525.155 242.09C490.372 282.624 433.755 308.766 375.143 311.358C365.243 311.795 355.109 311.626 345.713 314.342C336.321 317.056 327.577 323.468 326.329 331.899C325.109 340.139 331.214 347.918 338.367 353.519C358.313 369.14 388.852 373.775 414.06 365.45C432.518 359.356 449.905 346.772 469.414 349.615C492.326 352.959 508.181 359.503 528.116 344.255C543.94 332.15 546.315 310.634 555.012 294.948C560.133 285.711 567.282 277.712 575.486 270.382Z" stroke="white" stroke-width="2"/>
<path fill-rule="evenodd" clip-rule="evenodd" d="M444.48 340.562C459.364 339.52 474.445 340.313 489.164 338.144C503.883 335.973 518.813 330.228 526.718 319.363C533.959 309.414 534.229 296.845 539.882 286.165C550.508 266.09 577.134 256.835 596.275 242.117C612.562 229.592 623.524 212.892 634.192 196.514C637.909 190.807 641.035 182.475 634.785 178.732C631.966 177.045 628.215 177.135 624.822 177.601C603.974 180.454 587.603 194.329 575.035 208.873C559.987 226.284 548.135 245.669 532.098 262.42C498.246 297.776 446.603 319.331 393.496 323.688C382.444 324.595 368.945 326.184 364.905 335.052C357.604 351.071 385.611 360.396 399.504 355.897C405.571 353.932 409.7 349.25 415.385 346.627C424.086 342.613 434.759 341.245 444.48 340.562Z" stroke="white" stroke-width="2"/>
<path fill-rule="evenodd" clip-rule="evenodd" d="M615.047 207.701C616.987 205.37 618.919 202.91 619.496 200.091C620.073 197.271 618.925 193.991 615.977 192.65C611.776 190.741 606.797 193.533 603.476 196.452C589.312 208.895 582.132 225.74 568.623 238.616C566.652 240.494 556.043 251.687 565.65 251.746C568.599 251.765 575.639 244.851 577.845 243.169C582.166 239.877 586.357 236.455 590.4 232.915C599.359 225.072 607.611 216.636 615.047 207.701Z" stroke="white" stroke-width="2"/>
<path fill-rule="evenodd" clip-rule="evenodd" d="M492.737 329.996C480.768 333.775 467.912 333.144 455.406 333.96C444.673 334.658 434.091 336.038 423.357 336.593C416.013 336.972 408.793 338.967 402.572 342.332C399.4 344.049 396.462 346.126 393.038 347.438C388.117 349.323 381.162 350.062 378.569 344.894C377.251 342.265 379.608 339.322 382.296 337.627C390.372 332.538 402.778 331.265 412.329 329.387C425.762 326.745 439.396 325.702 452.679 322.276C472.237 317.234 485.701 308.848 500.527 297.556C503.84 295.036 526.018 276.576 529.987 284.615C532.198 289.103 526.698 298.382 524.613 302.379C518.309 314.464 507.526 325.327 492.737 329.996Z" stroke="white" stroke-width="2"/>
<path fill-rule="evenodd" clip-rule="evenodd" d="M499.9 318.875C505.37 315.387 511.158 311.526 513.153 305.939C513.802 304.118 513.425 301.482 511.228 301.219C510.422 301.122 509.629 301.414 508.893 301.714C500.147 305.275 492.59 310.955 487.326 317.926C480.15 327.428 496.654 320.943 499.9 318.875Z" stroke="white" stroke-width="2"/>
<path d="M-96.2979 470.892C-65.4239 465.57 -37.1612 449.841 -18.9213 427.831C-2.72887 408.291 8.59358 382.144 35.33 375.142C49.9179 371.322 65.71 374.474 80.848 372.882C115.398 369.249 139.898 342.148 154.574 315.086C164.28 297.19 174.57 275.908 196.847 270.941C214.321 267.045 233.101 275.767 243.442 288.456C276.312 328.797 251.443 386.222 200.438 404.438C174.845 413.579 146.202 413.14 118.808 416.807C80.9025 421.879 43.1656 436.07 19.5702 462.009C9.64966 472.916 2.50224 485.55 -7.73174 496.244C-17.964 506.938 -32.6183 515.905 -48.7375 515.344" stroke="white" stroke-width="2"/>
<path d="M-2.57956 463.678C3.78942 453.459 12.7169 444.421 23.4261 437.355C32.9174 431.091 43.6931 426.411 54.6356 422.236C66.3839 417.752 78.4354 413.795 90.8617 410.953C113.551 405.765 137.172 404.357 160.166 400.278C183.16 396.199 206.369 388.974 222.691 374.498C240.779 358.457 248.199 334.116 241.576 312.538C238.457 302.375 230.834 291.844 218.757 290.048C205.364 288.056 193.232 297.816 187.432 308.358C181.634 318.899 179.608 330.853 172.754 340.916C168.782 346.745 163.319 351.733 157.481 356.265C138.759 370.803 115.636 381.142 91.0133 385.984C80.8577 387.98 70.4619 389.06 60.4204 391.445C35.6803 397.323 13.7083 411.359 0.0589786 430.003C-6.13966 438.469 -12.4797 448.959 -24.0491 450.202" stroke="white" stroke-width="2"/>
<path fill-rule="evenodd" clip-rule="evenodd" d="M178.698 380.174C193.257 375.649 207.646 369.579 217.985 359.696C228.328 349.814 233.932 335.462 228.953 322.889C227.581 319.42 225.151 315.941 221.174 314.602C216.98 313.194 212.064 314.594 208.666 317.127C205.268 319.661 203.082 323.158 201.026 326.593C194.916 336.813 189.244 347.307 181.364 356.593C173.484 365.881 163.07 374.025 150.333 377.577C145.707 378.865 140.684 379.602 136.875 382.199C134.667 383.705 131.48 387.996 133.078 390.59C135.631 394.736 140.031 391.444 144.312 390.073C155.645 386.447 167.328 383.707 178.698 380.174Z" stroke="white" stroke-width="2"/>
<path fill-rule="evenodd" clip-rule="evenodd" d="M208.407 353.816C213.22 352.351 216.763 348.628 218.537 344.521C220.308 340.413 220.518 335.935 220.317 331.559C220.257 330.28 219.978 328.753 218.615 328.229C217.412 327.766 216.036 328.365 214.951 329.008C207.4 333.474 202.178 341.332 202.073 348.92C202.034 351.788 205.008 354.85 208.407 353.816Z" stroke="white" stroke-width="2"/>
<path fill-rule="evenodd" clip-rule="evenodd" d="M289.684 460.29C287.778 457.446 283.087 455.72 279.997 457.651C278.095 458.841 277.386 460.954 276.802 462.909C274.892 469.266 265.387 503.695 280.454 501.965C293.842 500.424 293.849 466.506 289.684 460.29Z" stroke="white" stroke-width="2"/>
</g>
</svg>
