<svg width="740" height="1360" viewBox="0 0 740 1360" fill="none" xmlns="http://www.w3.org/2000/svg">
<mask id="mask0" mask-type="alpha" maskUnits="userSpaceOnUse" x="0" y="0" width="740" height="1361">
<rect x="740" y="1360" width="740" height="1360" rx="20" transform="rotate(-180 740 1360)" fill="#DFBC7C"/>
</mask>
<g mask="url(#mask0)">
<g opacity="0.8">
<path d="M534.878 1527.36C501.488 1520.85 479.065 1476.43 483.272 1436.07C487.48 1395.71 513.286 1361.94 543.938 1344.73C554.626 1338.73 566.417 1334.03 574.201 1323.37C587.39 1305.31 584.199 1278 588.081 1254.42C593.434 1221.91 614.723 1193.94 641.186 1184.65C656.977 1179.12 674.234 1179.76 689.159 1171.44C715.919 1156.52 726.852 1118.56 735.106 1084.51C744.113 1047.34 753.186 1008.11 745.732 970.445C732.352 902.815 658.661 864.441 608.492 898.977C559.26 932.866 540.303 1016.33 486.453 1037.78C463.41 1046.96 438.338 1042.53 414.353 1038C385.018 1032.47 355.68 1026.93 326.345 1021.39C297.176 1015.89 265.577 1008.86 245.902 982.387C223.447 952.177 225.752 900.19 250.75 873.021C275.747 845.852 318.992 848.337 341.722 878.247C354.35 894.863 360.655 917.609 374.279 933.045C398.333 960.296 440.778 954.424 463.132 925.151C485.484 895.88 488.433 849.838 475.281 813.38C462.129 776.922 435.186 749.568 405.296 732.614C390.524 724.236 374.839 718.045 360.885 707.836C324.659 681.333 296.682 627.117 254.432 631.466C210.278 636.013 188.919 702.033 147.918 722.255C134.641 728.803 119.459 730.396 107.851 740.538C96.8931 750.111 90.9325 765.734 82.0439 778.021C50.4503 821.691 -14.5557 809.566 -43.2455 763.089C-71.9366 716.612 -68.7311 649.953 -47.0728 598.262C-37.8896 576.348 -25.0873 555.561 -6.98728 544.232C28.3615 522.107 75.9913 540.212 108.04 511.73C123.012 498.425 131.471 477.371 141.635 458.615C164.374 416.646 200.041 382.5 241.335 375.94C282.629 369.379 328.389 395.858 342.686 442.904C354.071 480.375 345.272 524.727 361.259 559.685C386.499 614.884 456.843 614.989 488.71 664.989C499.213 681.469 504.618 702.218 516.146 717.675C538.042 747.026 579.111 748.631 605.713 725.58C632.314 702.528 644.362 659.985 640.418 620.842C636.473 581.697 618.387 546.099 595.083 518.363C559.593 476.12 510.725 447.929 487.503 394.77C466.852 347.497 471.479 288.425 491.054 240.492C496.945 226.066 504.28 211.529 504.186 195.458C503.871 141.768 430.242 132.005 417.575 80.5196C413.814 65.23 416.318 48.6628 413.705 33.0307C406.702 -8.85566 368.202 -28.9063 336.647 -48.543C305.093 -68.1763 272.141 -108.444 286.487 -147.532" stroke="white"/>
<path d="M433.532 1473.89C431.474 1441.54 441.885 1408.34 461.197 1385.68C489.75 1352.18 536.279 1340.28 553.603 1297.07C566.115 1265.86 559.422 1225.83 576.152 1197.62C596.453 1163.38 636.09 1164.99 665.142 1148.71C698.946 1129.76 729.871 1074.76 728.082 1030.36C726.32 986.587 713.72 932.993 670.202 929.53C638.845 927.034 611.055 953.047 589.63 980.693C568.206 1008.34 548.511 1040.13 519.841 1055.6C467.597 1083.8 402.676 1048.99 350.835 1078.24C329.499 1090.28 312.964 1112.05 299.702 1135.48C289.48 1153.53 280.761 1173.17 276.684 1194.45C267.818 1240.73 274.34 1295.83 285.498 1340.44L300.187 1399.16" stroke="white"/>
<path d="M-54.3711 316.059C-24.9716 336.061 12.0118 335.866 43.6692 321.697C75.3251 307.525 102.127 280.642 124.309 250.01C139.095 229.588 153.656 206.047 175.344 198.773C192.933 192.876 211.619 199.061 229.872 198.473C252.8 197.734 275.658 185.385 290.004 163.866C304.349 142.347 309.314 111.715 301.129 85.949C288.29 45.536 250.048 27.2535 224.776 -3.53699C198.943 -35.014 186.914 -82.0276 193.565 -125.522" stroke="white"/>
<path d="M392.671 1376.52C400.142 1352.65 419.8 1337.82 438.963 1326.89C458.124 1315.96 478.837 1306.49 492.853 1287.34C512.941 1259.91 514.347 1219.8 526.485 1186.28C541.418 1145.04 574.248 1113.92 611.079 1106.07C628.428 1102.38 646.688 1103.45 663.054 1095.61C679.421 1087.76 693.506 1066.21 687.489 1046.3C681.489 1026.44 659.098 1020.77 642.603 1028.04C626.108 1035.31 613.563 1051.32 599.781 1064.41C558.054 1104.07 503.02 1118.01 449.848 1119.36C435.953 1119.72 421.975 1119.3 408.233 1121.83C365.068 1129.77 327.32 1168.26 311.516 1217.21C295.712 1266.16 301.429 1323.72 324.327 1368.43C330.77 1381.02 338.7 1392.89 349.159 1400.65" stroke="white"/>
<path d="M352.188 1371.83C331.329 1339.3 324.544 1294.4 334.552 1255.12C344.558 1215.84 371.093 1183.21 403.527 1170.31C416.267 1165.24 429.66 1163.09 442.963 1160.97C452.855 1159.39 462.749 1157.81 472.642 1156.23C478.186 1155.34 484.138 1154.53 489.104 1157.63C495.8 1161.8 498.524 1172.09 497.456 1181.07C496.388 1190.05 492.334 1198.05 488.369 1205.76C475.767 1230.28 462.015 1256.08 440.371 1268.46C428.06 1275.51 413.857 1277.73 402.609 1287C391.305 1296.3 384.351 1311.8 381.047 1327.78C377.742 1343.77 377.705 1360.43 377.687 1376.9" stroke="white"/>
<path d="M365.611 1364.61C356.293 1343.72 349.486 1320.75 348.882 1297.05C348.28 1273.36 354.392 1248.84 368.059 1231.75C373.272 1225.23 379.452 1219.91 385.958 1215.37C399.359 1206.03 414.306 1199.9 429.664 1197.46C439.278 1195.93 451.292 1197.42 455.247 1208.07C458.572 1217.02 453.945 1227.55 447.782 1233.96C443.126 1238.81 437.532 1242.34 431.573 1244.2C422.001 1247.19 411.853 1245.86 402.096 1247.82C388.21 1250.62 375.388 1260.39 367.359 1274.3C359.33 1288.2 356.198 1306.07 358.876 1322.69C360.871 1335.08 365.869 1346.45 369.321 1358.37C372.776 1370.3 374.609 1383.81 370.284 1395.32" stroke="white"/>
<path fill-rule="evenodd" clip-rule="evenodd" d="M430.127 1228.75C433.711 1227.57 437.148 1225.02 438.886 1221.07C439.561 1219.53 439.965 1217.75 439.693 1216.04C439.206 1212.99 436.752 1210.97 434.319 1209.94C427.007 1206.85 411.088 1210.64 409.18 1221.73C407.224 1233.1 425.097 1230.41 430.127 1228.75Z" stroke="white"/>
<path fill-rule="evenodd" clip-rule="evenodd" d="M656.142 1077.72C662.239 1074.12 667.055 1066.87 667.462 1058.72C667.508 1057.8 667.491 1056.83 667.131 1056.02C666.647 1054.92 665.647 1054.32 664.694 1053.85C655.227 1049.12 644.04 1049.65 634.916 1055.27C631.032 1057.67 627.307 1061.3 626.196 1066.37C622.285 1084.26 649.105 1081.88 656.142 1077.72Z" stroke="white"/>
<path d="M-72.3652 1044.21C-65.3691 1071.05 -47.9561 1093.67 -26.2411 1104.13C6.17972 1119.75 42.5979 1108.28 77.4637 1105.8C112.331 1103.31 154.324 1116.69 164.812 1156.75C176.317 1200.7 142.471 1251.2 160.085 1292.11C167.367 1309.03 181.898 1319.49 191.788 1334.36C212.494 1365.51 209.491 1412.22 193.462 1447.13C177.432 1482.04 150.841 1507.83 124.915 1532.7" stroke="white"/>
<path d="M241.274 1390.35C239.747 1368.13 233.301 1346.43 222.776 1328.08C214.858 1314.27 204.531 1301.98 200.02 1286.11C192.532 1259.75 202.868 1231.31 203.836 1203.48C204.955 1171.26 192.456 1138.78 171.307 1118.95C163.935 1112.04 155.668 1106.65 147.973 1100.26C132.451 1087.39 118.864 1069.51 114.187 1047.54C109.51 1025.58 115.711 999.407 131.908 987.795C149.044 975.508 171.383 982.26 188.728 994.121C206.071 1005.98 221.284 1022.58 239.933 1031.12C251.617 1036.46 264.254 1038.43 275.787 1044.23C287.32 1050.04 298.253 1061.2 299.829 1076.11C300.866 1085.92 297.692 1095.67 293.74 1104.34C289.592 1113.44 284.516 1121.93 278.663 1129.56C270.046 1140.79 259.706 1150.22 252.555 1162.85C239.577 1185.78 239.044 1215.99 243.892 1243.1C248.739 1270.22 258.368 1295.76 264.367 1322.54C269.563 1345.73 272.004 1369.82 271.591 1393.83" stroke="white"/>
<path d="M251.61 1390.63C251.681 1348.63 222.718 1314.65 214.98 1273.69C208.65 1240.19 217.051 1205.06 213.762 1170.94C210.334 1135.36 193.534 1101.97 168.922 1081.81C163.615 1077.46 157.986 1073.71 152.528 1069.64C144.186 1063.41 135.946 1056.02 131.479 1045.5C127.012 1034.99 127.435 1020.65 134.82 1012.87C139.782 1007.64 146.736 1006.29 153.311 1005.66C164.302 1004.63 175.734 1005.13 185.757 1010.64C201.561 1019.34 211.586 1039.14 227.275 1048.13C235.457 1052.82 244.627 1054.24 253.325 1057.31C262.023 1060.37 270.865 1065.73 275.103 1075.37C281.65 1090.25 274.636 1108.71 265.308 1121.27C255.98 1133.83 244.046 1144.24 238.284 1159.58C234.621 1169.34 233.811 1180.24 233.05 1190.9C231.805 1208.36 230.58 1226.18 234.042 1243.2C236.263 1254.11 240.341 1264.32 244.048 1274.63C259.431 1317.45 268.727 1365.56 259.35 1410.82" stroke="white"/>
<path fill-rule="evenodd" clip-rule="evenodd" d="M235.813 1116.84C230.991 1117.11 226.277 1115.13 221.884 1112.73C215.83 1109.41 210.049 1105.16 205.388 1099.45C195.35 1087.15 190.731 1068.47 178.372 1059.74C173.241 1056.12 167.272 1054.64 161.854 1051.68C156.436 1048.72 151.204 1043.52 150.398 1036.43C149.505 1028.59 154.789 1021 161.157 1018.99C167.526 1016.98 174.423 1019.66 179.747 1024.31C185.073 1028.97 189.098 1035.42 192.938 1041.85C196.779 1048.28 200.58 1054.88 205.606 1059.99C210.484 1064.95 216.436 1068.38 222.71 1069.82C234.633 1072.57 256.332 1068.48 259.971 1088.14C262.577 1102.21 246.025 1116.26 235.813 1116.84Z" stroke="white"/>
<path fill-rule="evenodd" clip-rule="evenodd" d="M240.782 1101.47C242.697 1101.12 244.632 1100.55 246.247 1099.27C247.863 1097.98 249.121 1095.86 249.158 1093.54C249.227 1089.19 245.364 1086.36 241.88 1085.2C236.477 1083.4 220.795 1080.97 221.893 1092.2C222.906 1102.55 234.62 1102.6 240.782 1101.47Z" stroke="white"/>
<path d="M-21.4094 1067.48C-2.05148 1085.26 24.0617 1091.93 47.7583 1085.14C59.1597 1081.87 70.3883 1075.23 77.2498 1063.8C94.2408 1035.51 78.5757 991.011 96.5058 963.571C105.149 950.341 120.354 944.636 134.168 947.3C149.124 950.184 164.59 961.636 178.293 953.875C185.99 949.516 190.88 939.574 191.791 929.401C192.7 919.23 190.049 908.953 185.795 900.092C179.819 887.649 170.422 876.505 169.676 862.161C168.743 844.16 181.796 829.534 185.051 811.93C188.772 791.804 177.103 769.405 160.421 764.65C139.902 758.803 120.139 777.135 106.78 796.756C93.4221 816.377 81.6495 839.584 62.2874 849.628C52.6694 854.619 41.9932 855.823 31.5196 855.93C16.7101 856.082 1.52663 854.038 -11.7261 846.091C-24.9803 838.145 -36.08 823.492 -38.4257 805.907" stroke="white"/>
<path d="M-18.0139 1038.2C-11.1084 1048.72 0.246235 1053.26 11.091 1056.36C19.8421 1058.85 29.2221 1060.72 37.673 1057.01C48.131 1052.42 55.0166 1040.1 58.4984 1027.38C61.9815 1014.67 62.7592 1001.13 65.1687 988.062C68.8091 968.303 76.7301 948.875 90.3399 936.969C101.209 927.459 115.296 923.442 128.56 926.072C133.893 927.13 139.12 929.215 144.525 929.326C149.931 929.436 155.832 927.052 158.478 921.383C161.086 915.797 159.787 908.612 157 903.153C154.213 897.694 150.137 893.391 146.714 888.483C139.356 877.944 135.045 862.914 139.492 850.235C140.362 847.757 141.569 845.234 141.267 842.57C141.021 840.391 139.787 838.553 138.405 837.118C130.015 828.408 116.583 831.929 107.842 840.126C99.1024 848.321 93.2664 860.125 85.5323 869.673C69.3077 889.7 44.8603 898.733 21.736 895.832C-1.38697 892.931 -23.0169 878.842 -39.4511 859.066" stroke="white"/>
<path d="M-15.8619 1008.54C-10.2738 1021.18 1.57234 1029.42 13.4709 1028.96C25.3695 1028.49 36.744 1019.34 41.6366 1006.28C45.5079 995.96 45.4385 984.089 48.6667 973.451C51.7873 963.168 57.8003 954.596 63.6434 946.202C66.4268 942.204 69.3278 937.813 69.5997 932.611C70.0984 923.104 61.4705 916.253 53.5692 915.594C37.169 914.226 22.9615 929.453 6.71566 932.476C-8.6052 935.326 -25.0026 925.925 -32.8047 909.812" stroke="white"/>
<path fill-rule="evenodd" clip-rule="evenodd" d="M93.2809 888.194C90.0569 894.899 90.7779 904.997 96.4595 908.645C101.773 912.056 108.173 908.485 114.18 907.967C117.89 907.647 121.663 908.535 125.315 907.685C128.965 906.835 132.671 903.363 132.439 898.9C132.24 895.097 129.513 892.824 126.975 891.175C123.581 888.973 122.852 888.63 121.308 884.001C119.513 878.618 114.899 874.867 110.085 874.55C102.975 874.082 96.638 881.214 93.2809 888.194Z" stroke="white"/>
<path d="M-12.1111 991.685C-7.84603 999.289 -1.78483 1005.42 5.17585 1009.17C9.90979 1011.72 15.8803 1013 19.9698 1009.16C21.9557 1007.29 23.1753 1004.48 23.9841 1001.62C26.1655 993.895 25.7519 985.447 27.4234 977.545C29.2847 968.744 33.8076 960.794 39.9538 955.519C41.7938 953.94 43.8166 952.543 45.1523 950.349C46.4867 948.155 46.8974 944.832 45.3634 942.835C44.8124 942.12 44.0758 941.651 43.3208 941.294C38.2129 938.868 32.3613 941.144 27.677 944.592C22.9926 948.037 18.8947 952.638 13.9383 955.481C2.80322 961.864 -10.7626 958.151 -21.3184 950.477" stroke="white"/>
<path d="M-5.59205 983.715C-2.99844 986.797 0.228346 989.101 3.72002 990.365C6.62668 991.418 10.1438 991.585 12.3238 989.045C15.12 985.786 13.9911 979.731 11.0603 976.649C8.12958 973.568 4.07698 972.672 0.238264 971.895C-2.07488 971.425 -4.38802 970.955 -6.70117 970.487" stroke="white"/>
<path fill-rule="evenodd" clip-rule="evenodd" d="M367.995 872.82C372.877 882.267 376.593 892.562 381.831 901.732C402.493 937.907 447.076 929.148 459.512 889.116C470.874 852.543 451.579 800.341 426.026 778.997C406.355 762.568 381.063 758.981 360.368 744.483C342.349 731.859 328.933 711.802 313.421 695.04C297.908 678.279 278.017 664.056 257.358 667.481C247.371 669.135 238.174 674.799 229.462 680.9C217.218 689.479 204.426 700.985 202.137 717.803C199.046 740.512 216.643 762.246 212.513 784.717C210.75 794.302 205.278 802.155 200.994 810.51C197.029 818.24 193.939 826.939 193.897 836.022C193.854 845.104 197.35 854.58 203.947 859C211.627 864.145 221.452 861.394 228.972 855.922C236.495 850.448 242.599 842.571 249.817 836.531C268.494 820.907 294.922 822.566 316.267 826.902C339.367 831.594 355.545 848.741 367.995 872.82Z" stroke="white"/>
<path fill-rule="evenodd" clip-rule="evenodd" d="M228.257 800.97C229.088 799.859 229.872 798.699 230.573 797.459C235.515 788.744 232.254 779.29 229.638 770.186C226.559 759.47 222.492 748.652 223.182 737.343C224.938 708.561 252.292 692.107 273.783 694.875C290.65 697.049 306.055 708.726 316.97 724.341C324.544 735.176 330.245 747.945 338.9 757.535C358.494 779.245 388.418 780.074 411.606 795.849C435.719 812.255 452.574 846.723 448.183 880.223C446.517 892.936 438.306 903.928 428.101 907.801C417.895 911.675 406.164 908.518 397.993 900.207C387.31 889.34 383.596 872.418 375.87 858.958C368.972 846.937 359.693 832.154 350.165 823.122C340.424 813.888 328.888 807.359 316.715 804.439C301.078 800.69 284.639 802.963 269.993 810.454C263.759 813.643 257.311 815.855 252.197 821.191C243.851 829.898 235.594 837.25 224.088 833.436C221.846 832.694 219.703 831.016 218.747 828.467C218.323 827.341 218.15 826.107 218.004 824.883C217.517 820.79 217.347 816.385 218.996 812.757C219.806 810.974 221.009 809.495 222.227 808.083C224.253 805.736 226.38 803.477 228.257 800.97Z" stroke="white"/>
<path fill-rule="evenodd" clip-rule="evenodd" d="M242.804 776.648C240.435 764.551 236.293 752.358 238.076 740.118C239.855 727.901 247.897 717.449 257.781 713.911C267.664 710.373 278.945 713.683 286.635 721.944C295.726 731.71 299.705 747.205 309.359 756.153C314.365 760.793 320.628 763.386 325.107 768.748C328.551 772.87 330.589 779.953 327.466 784.43C325.616 787.082 322.541 787.944 319.669 788.201C315.855 788.542 311.993 788.092 308.306 786.876C302.101 784.83 296.364 780.638 289.963 779.858C282.323 778.924 274.803 783.04 268.684 788.613C263.886 792.984 252.86 811.864 246.353 807.955C242.013 805.347 243.469 800.055 243.867 795.634C244.445 789.233 244.033 782.915 242.804 776.648Z" stroke="white"/>
<path fill-rule="evenodd" clip-rule="evenodd" d="M256.405 757.064C255.807 753.568 255.538 749.708 257.045 746.634C257.732 745.237 258.745 744.104 259.85 743.169C263.839 739.793 269.222 738.936 273.804 740.948C278.386 742.959 282.042 747.785 283.285 753.459C283.714 755.421 283.856 757.578 283.159 759.428C281.725 763.235 277.45 764.116 274.068 763.157C268.868 761.68 267.379 766.887 262.753 765.833C259.206 765.024 257.034 760.736 256.405 757.064Z" stroke="white"/>
<path fill-rule="evenodd" clip-rule="evenodd" d="M381.029 828.161C389.416 841.329 395.077 856.682 400.2 872.082C403.413 881.736 407.819 892.898 416.344 894.639C422.125 895.819 428.04 891.77 431.332 885.934C434.621 880.097 435.648 872.803 435.637 865.751C435.604 844.837 426.778 824.439 413.123 811.483C399.471 798.527 381.368 792.941 364.078 795.219C357.903 796.033 350.841 797.494 346.162 792.582C344.074 790.388 342.364 786.906 339.591 786.92C335.925 786.938 334.704 793.674 337.094 797.016C339.992 801.065 343.648 800.426 347.476 800.893C351.8 801.419 355.338 802.88 359.283 805.381C367.857 810.818 375.161 818.945 381.029 828.161Z" stroke="white"/>
<path fill-rule="evenodd" clip-rule="evenodd" d="M415.156 872.935C416.988 874.644 419.365 876.138 421.545 875.185C423.502 874.33 424.573 871.78 425.031 869.336C426.93 859.172 421.489 849.333 416.333 840.961C412.575 834.858 407.195 822.532 401.381 819.203C394.845 815.463 392.621 821.982 394.617 827.988C399.653 843.138 403.98 862.507 415.156 872.935Z" stroke="white"/>
<path d="M558.128 1491.65C538.418 1482.99 526.971 1455.61 529.427 1430.55C531.883 1405.49 546.163 1383.6 564.044 1370.39C576.431 1361.24 591.58 1354.49 597.95 1338.77C601.441 1330.16 601.613 1320.21 601.687 1310.63C601.798 1296.1 601.849 1281.41 604.674 1267.27C607.5 1253.14 613.416 1239.39 623.184 1230.83C639.095 1216.87 661.21 1219.39 679.17 1209.68C692.587 1202.42 702.771 1188.88 713.899 1177.31C725.026 1165.74 738.739 1155.47 753.386 1157.12C762.351 1158.13 770.64 1163.61 777.444 1170.71C789.301 1183.07 797.266 1200.71 799.435 1219.4C804.541 1263.45 778.628 1305.3 779.963 1349.74C780.666 1373.12 788.89 1395.26 791.158 1418.49C793.424 1441.72 787.074 1469.45 768.913 1477.82" stroke="white"/>
<path d="M589.92 1478.2C575.28 1471.17 569.648 1448.4 573.522 1430.02C577.395 1411.65 588.236 1396.74 598.742 1382.6C609.249 1368.47 620.114 1353.6 624.063 1335.25C629.007 1312.26 622.715 1285.52 633.66 1265.76C645.085 1245.13 668.9 1242.87 688.253 1234.34C705.409 1226.77 723.344 1212.75 740.414 1220.6C753.51 1226.61 760.75 1244.22 761.707 1261.04C762.666 1277.86 758.663 1294.43 755.666 1310.9C752.602 1327.73 750.568 1345.28 753.54 1362.14C756.741 1380.32 765.618 1396.86 766.774 1415.39C768.038 1435.7 758.908 1456.43 744.229 1466.58" stroke="white"/>
<path d="M617.965 1403.23C634.103 1388.67 644.822 1365.74 646.775 1341.59C647.815 1328.73 646.482 1315.71 647.533 1302.85C648.585 1289.99 652.612 1276.51 661.573 1269.38C668.208 1264.1 676.473 1263.08 684.165 1260.64C693.658 1257.64 702.646 1252.31 712.353 1250.55C722.058 1248.8 733.301 1251.62 738.685 1261.49C743.481 1270.28 742.298 1281.77 740.934 1292.16C738.573 1310.13 736.213 1328.11 733.852 1346.09C731.856 1361.29 729.863 1376.85 732.257 1391.96C734.968 1409.08 743.062 1424.16 750.99 1438.76" stroke="white"/>
<path d="M660.066 1372.51C667.422 1362.61 667.499 1347.83 666.39 1334.62C665.282 1321.41 663.513 1307.37 668.299 1295.41C673.761 1281.76 686.928 1274.32 699.522 1274.23C707.788 1274.18 716.664 1277.35 721.504 1285.41C725.424 1291.94 726.055 1300.5 725.703 1308.54C724.244 1341.82 708.417 1373.42 711.556 1406.53" stroke="white"/>
<path fill-rule="evenodd" clip-rule="evenodd" d="M676.616 1341.14C676.48 1335.79 676.653 1330.29 678.089 1325.31C679.527 1320.34 682.419 1315.91 686.192 1314.57C693.291 1312.06 700.187 1321.76 701.029 1331.77C703.813 1364.85 677.741 1385.67 676.616 1341.14Z" stroke="white"/>
<path fill-rule="evenodd" clip-rule="evenodd" d="M478.323 1019.85C471.693 1022.44 464.859 1023.9 458.028 1023.99C448.269 1024.12 438.626 1021.77 429.011 1019.77C375.998 1008.71 302.677 1009.88 263.633 958.315C254.219 945.882 249.466 927.342 254.594 911.698C260.439 893.866 277.969 884.211 293.79 886.553C309.61 888.895 323.456 901.161 333.359 916.183C343.244 931.178 350.168 949.432 362.789 961.088C370.437 968.156 379.709 972.29 389.112 974.882C420.784 983.611 457.977 972.973 476.38 940.77C481.636 931.572 485.182 921.065 490.634 912.034C496.086 903.003 504.256 895.225 513.536 895.325C526.051 895.458 535.792 910.559 536.563 925.581C538.669 966.687 510.981 1007.08 478.323 1019.85Z" stroke="white"/>
<path fill-rule="evenodd" clip-rule="evenodd" d="M361.739 991.044C336.483 984.621 312.956 974.513 290.31 956.963C283.831 951.943 277.242 946.174 274.1 937.711C270.96 929.249 272.767 917.46 279.783 913.622C284.195 911.206 289.37 912.443 293.962 914.313C311.632 921.507 326.063 937.062 338.58 953.694C343.974 960.86 349.213 968.405 355.941 973.694C362.244 978.65 369.562 981.39 376.868 983.59C393.997 988.753 411.904 991.293 429.364 988.104C446.824 984.917 463.859 975.644 475.734 959.925C481.291 952.566 485.63 943.969 491.231 936.657C496.832 929.344 504.205 923.166 512.467 922.841C514.872 922.745 517.38 923.195 519.382 924.799C523.666 928.23 524.24 935.512 523.601 941.651C521.017 966.454 505.492 987.646 486.51 997.829C453.01 1015.8 416.885 1001.66 382.626 995.521C375.526 994.248 368.569 992.782 361.739 991.044Z" stroke="white"/>
<path fill-rule="evenodd" clip-rule="evenodd" d="M313.241 960.143C307.8 957.757 302.308 955.341 297.434 951.58C292.56 947.817 288.287 942.542 286.372 935.968C285.565 933.202 285.352 929.671 287.205 927.767C288.098 926.848 289.309 926.508 290.48 926.409C296.886 925.862 302.413 931.397 307.167 936.587C313.173 943.147 319.177 949.705 325.183 956.264C327.648 958.956 329.539 962.785 325.794 964.645C322.86 966.101 315.908 961.313 313.241 960.143Z" stroke="white"/>
<path fill-rule="evenodd" clip-rule="evenodd" d="M491.757 980.291C498.882 974.591 504.736 965.82 505.87 955.621C506.232 952.352 505.797 948.378 503.364 946.857C500.791 945.247 497.735 947.388 495.516 949.638C484.693 960.627 476.921 976.593 463.88 983.246C462.067 984.171 460.105 984.956 458.778 986.706C457.451 988.455 457.122 991.583 458.689 993.017C462.438 996.441 469.912 991.351 473.582 989.821C479.912 987.181 486.115 984.8 491.757 980.291Z" stroke="white"/>
<path d="M-79.6464 1113.8C-70.9279 1129.06 -55.9229 1137.79 -40.7522 1140.99C-25.5801 1144.18 -10.0269 1142.5 5.31237 1140.8C23.6178 1138.77 41.9246 1136.75 60.2301 1134.72C78.9987 1132.65 99.3481 1131 115.24 1143.18C130.042 1154.54 137.901 1177.6 133.977 1198.18C132.395 1206.47 129.136 1214.16 127.083 1222.31C119.413 1252.76 129.818 1286.67 147.79 1310.02C155.657 1320.25 165.479 1330.24 166.738 1344.09C168.15 1359.59 158.014 1373.2 147.182 1381.77C134.385 1391.91 119.557 1398.31 104.321 1400.28C91.6395 1401.92 78.7805 1400.53 66.1142 1402.32C48.0127 1404.89 31.0161 1413.83 13.3963 1419.43C-4.22496 1425.04 -23.9327 1427.01 -39.8698 1416.37C-42.1319 1414.87 -44.5697 1412.42 -44.2057 1409.34" stroke="white"/>
<path d="M-78.5175 1162.86C-58.1469 1177.41 -33.2901 1179.82 -9.65439 1177.82C13.9813 1175.81 37.3281 1169.77 61.0106 1168.84C70.681 1168.46 80.6163 1169 89.553 1173.46C98.4912 1177.91 106.337 1186.93 108.217 1198.34C110.343 1211.26 104.741 1223.96 102.433 1236.83C98.0761 1261.13 105.839 1286.73 118.365 1306.5C123.471 1314.56 129.445 1322.07 132.693 1331.42C139.37 1350.65 131.806 1374.91 116.843 1385.41C105.928 1393.08 92.624 1393.86 80.0086 1392.88C63.1792 1391.59 46.5693 1387.55 29.7654 1385.83C12.9614 1384.11 -4.45019 1384.83 -20.0175 1392.63" stroke="white"/>
<path d="M-74.291 1201.37C-56.225 1210.49 -35.8684 1210.72 -16.4326 1207.72C3.00175 1204.73 22.0438 1198.68 41.481 1195.7C51.8498 1194.11 62.8715 1193.53 72.2559 1199.07C81.6388 1204.6 88.4946 1218.14 84.8712 1229.94C83.5411 1234.27 81.0042 1237.88 79.1301 1241.91C72.2672 1256.66 75.3226 1276.31 84.5879 1289.02C90.4819 1297.1 98.4993 1302.76 103.908 1311.31C112.958 1325.64 112.637 1347.43 103.174 1361.36C93.1181 1376.16 75.7206 1380.55 59.836 1379.85C41.9314 1379.06 24.3342 1373.1 6.41833 1373.16C-9.51446 1373.21 -25.4203 1378.12 -39.4012 1387.3" stroke="white"/>
<path d="M-72.3867 1225.18C-52.5869 1233.13 -30.9654 1230.85 -10.4644 1226.11C10.0366 1221.38 30.2728 1214.28 51.1137 1212.8C55.7953 1212.47 61.1128 1212.73 64.2631 1216.91C66.2193 1219.5 66.9162 1223.14 67.0706 1226.63C67.8865 1245.14 55.7216 1263.01 59.8748 1280.86C62.3182 1291.36 69.8229 1298.78 75.7452 1307.04C81.5656 1315.16 86.1763 1324.92 87.2161 1335.56C88.2572 1346.21 85.2457 1357.77 78.2057 1364.35C72.3315 1369.83 64.4911 1371.29 57.0588 1371.01C43.5439 1370.5 30.5504 1364.94 17.231 1362.15C-1.56736 1358.2 -21.1604 1359.84 -39.3213 1366.88" stroke="white"/>
<path d="M-44.042 1348.3C-22.0296 1335.53 4.39378 1334.26 27.1824 1344.87C34.6446 1348.35 41.9395 1353.09 49.9286 1353.64C57.9176 1354.18 67.0031 1348.73 68.2156 1339.22C69.2128 1331.41 64.6163 1324.05 59.2704 1319.46C53.9245 1314.88 47.631 1311.99 42.5444 1306.99C35.6389 1300.21 31.4008 1288.52 34.4661 1278.45C37.4067 1268.78 46.3562 1261.85 46.2669 1251.56C46.1678 1240.03 34.119 1233.54 24.7531 1236.03C15.3887 1238.51 7.83305 1246.52 -0.539884 1252.14C-19.8822 1265.14 -44.9401 1264.84 -64.0586 1251.36" stroke="white"/>
<path d="M-47.8827 1324.68C-30.5264 1316.71 -10.8469 1316.3 6.73323 1323.52C10.681 1325.14 14.6245 1327.16 18.7961 1327.28C22.9677 1327.4 27.5373 1325.05 29.0233 1320.36C34.9371 1301.71 3.81241 1305.7 10.0068 1286.08C11.0776 1282.69 13.276 1280.02 14.9546 1277.01C16.6346 1274 17.8131 1270.09 16.5567 1266.79C14.7988 1262.18 9.28718 1261.58 5.48813 1263.78C-5.0053 1269.87 -11.9391 1280 -23.849 1283.9C-35.5705 1287.74 -48.3332 1287.19 -59.6836 1281.89" stroke="white"/>
<path fill-rule="evenodd" clip-rule="evenodd" d="M52.368 750.132C65.8885 735.254 72.852 712.068 88.7834 701.176C104.109 690.697 123.473 694.565 140.16 687.729C163.757 678.063 177.612 649.495 196.317 629.676C235.298 588.374 300.617 589.866 338.264 632.919C344.583 640.149 352.898 649.061 360.747 644.489C367.127 640.776 368.202 629.804 365.215 622.072C362.227 614.342 356.473 608.796 351.605 602.601C333.869 580.024 327.478 547.808 325.315 516.859C323.758 494.575 323.662 470.714 313.209 452.219C303.462 434.975 286.1 425.707 268.872 423.382C240.299 419.525 210.464 433.529 191.62 459.642C175.4 482.118 167.11 512.444 148.227 531.678C107.243 573.425 38.3702 543.827 -4.4874 582.756C-12.9269 590.421 -19.8054 600.4 -25.2264 611.322C-43.2244 647.591 -44.9412 699.749 -27.5155 737.179C-12.3759 769.697 29.9888 774.757 52.368 750.132Z" stroke="white"/>
<path d="M766.626 937.151C767.408 909.941 750.962 885.226 730.709 873.059C710.454 860.891 687.043 859.084 664.405 859.515C649.148 859.805 634.728 860.943 621.249 869.478C607.693 878.065 596.748 887.715 580.73 890.941C526.581 901.848 501.288 847.091 487.912 793.003C478.09 753.297 447.508 726.213 416.307 708.654C408.996 704.54 401.237 700.495 396.245 692.867C391.255 685.241 390.352 672.724 396.639 666.638C398.783 664.562 401.469 663.482 404.133 662.647C424.401 656.295 447.127 662.681 462.956 679.177C479 695.899 487.242 720.876 500.944 740.373C536.116 790.417 622.447 795.451 653.527 736.54C664.432 715.866 668.831 691.223 678.004 669.367C686.785 648.441 699.995 630.232 716.043 616.93C737.168 599.419 767.014 591.309 787.995 609.067" stroke="white"/>
<path d="M764.538 561.816C733.636 578.739 696.15 593.649 667.317 572.08C639.698 551.42 633.048 506.684 612 476.862C592.244 448.871 561.343 436.109 538.58 411.641C505.927 376.538 493.569 316.652 508.789 267.265C517.958 237.51 536.373 208.244 529.914 177.478C524.205 150.285 501.098 134.075 489.308 109.875C476.232 83.0297 478.655 48.1305 490.422 20.4232C502.191 -7.28422 522.099 -28.7691 543.256 -46.6752C596.557 -91.7827 667.609 -117.77 727.282 -86.2449" stroke="white"/>
<path d="M778.911 899.903C771.423 866.576 748.116 839.856 720.764 829.372C693.411 818.889 662.779 823.815 637.279 839.674C616.545 852.567 596.201 873.062 573.111 868.957C552.697 865.327 538.398 843.593 526.274 823.514C521.726 815.98 517.177 808.447 512.627 800.913C510.838 797.951 508.959 794.589 509.354 790.957C510.027 784.804 516.493 782.43 521.642 782.849C530.254 783.549 538.283 788.031 546.354 791.71C579.57 806.856 620.239 807.606 647.541 780.275C679.901 747.882 684.969 685.992 719.779 657.508C744.286 637.456 780.389 641.319 801.564 666.264" stroke="white"/>
<path fill-rule="evenodd" clip-rule="evenodd" d="M70.994 678.886C89.8547 666.922 115.124 674.197 132.014 658.544C138.927 652.136 143.364 642.737 148.376 634.145C164.214 606.993 187.913 587.271 213.994 576.971C227.166 571.77 241.317 568.585 255.217 568.69C270.971 568.808 282.636 577.26 296.305 585.59C299.648 587.629 303.182 589.504 306.929 589.666C310.673 589.826 314.694 587.915 316.486 583.956C317.26 582.246 317.57 580.292 317.842 578.371C318.296 575.148 318.663 571.763 317.794 568.665C317.155 566.393 315.894 564.447 314.514 562.713C306.163 552.208 298.566 547.567 294.179 533.464C290.512 521.68 293.207 508.04 289.372 496.334C282.943 476.723 261.474 471.364 244.229 475.15C221.783 480.078 201.111 495.828 187.816 518.129C178.73 533.371 172.801 551.706 160.99 563.953C136.813 589.027 100.109 578.671 68.6327 585.092C32.4086 592.485 -12.7254 634.583 -11.901 683.223C-11.5497 703.957 1.64642 727.547 20.6289 726.29C42.8581 724.82 52.8189 690.417 70.994 678.886Z" stroke="white"/>
<path d="M750.861 518.958C740.985 538.014 718.009 542.093 700.84 533.275C683.668 524.456 671.339 505.988 661.175 487.154C651.01 468.319 642.062 448.121 628.54 432.637C607.763 408.844 578.11 398.429 558.084 373.72C538.461 349.506 530.619 312.381 538.256 279.839C546.57 244.407 571.73 212.104 564.964 176.2C559.427 146.83 534.34 128.787 524.003 101.358C514.053 74.9637 519.599 42.6504 533.854 19.2833C548.109 -4.08216 569.862 -19.457 592.53 -29.2906C650.472 -54.4293 717.946 -45.3468 769.831 -5.42267" stroke="white"/>
<path d="M769.492 460.209C747.991 478.837 719.392 498.004 696.868 481.213C683.148 470.983 677.431 450.838 667.599 435.44C645.546 400.897 604.263 392.235 579.548 360.402C560.576 335.967 553.969 298.637 563.022 267.03C572.127 235.243 595.841 205.686 588.35 173.294C584.306 155.807 571.871 143.146 564.676 127.189C546.331 86.5015 568.459 31.9044 603.326 12.3052C638.194 -7.29406 680.002 1.26211 714.889 20.8119C749.775 40.3618 780.023 69.8969 812.786 94.1821" stroke="white"/>
<path fill-rule="evenodd" clip-rule="evenodd" d="M45.7683 684.664C55.7688 671.115 69.608 661.742 84.426 658.48C97.6859 655.56 113.195 656.5 122.214 644.452C128.182 636.477 129.515 624.701 135.295 616.532C138.733 611.67 143.966 605.368 140.743 600.3C138.822 597.275 135.076 597.389 131.93 597.789C115.306 599.907 98.6802 602.024 82.0562 604.143C73.2357 605.267 64.3344 606.412 55.9204 609.786C42.7993 615.048 31.5452 625.454 21.3238 636.657C12.6817 646.13 4.24645 656.984 1.41628 670.628C-0.998853 682.278 3.39513 704.161 13.8432 709.36C27.4345 716.122 38.4747 694.547 45.7683 684.664Z" stroke="white"/>
<path fill-rule="evenodd" clip-rule="evenodd" d="M275.749 563.837C278.18 564.956 280.952 566.188 283.276 564.781C286.27 562.97 286.602 557.778 285.221 554.109C283.842 550.438 281.291 547.595 279.622 544.102C276.578 537.729 276.729 529.814 274.226 523.111C268.715 508.347 252.449 504.353 239.215 507.279C224.529 510.524 210.838 519.953 201.077 533.542C195.074 541.899 190.431 551.859 183.12 558.545C179.405 561.943 175.12 564.369 171.461 567.854C167.801 571.339 164.683 576.326 164.701 581.939C164.707 583.559 165.064 585.342 166.177 586.252C167.142 587.041 168.407 586.969 169.567 586.819C187.817 584.484 200.02 565.648 218.351 560.103C237.208 554.395 257.55 555.463 275.749 563.837Z" stroke="white"/>
<path fill-rule="evenodd" clip-rule="evenodd" d="M80.8652 644.683C86.8344 643.276 93.0585 643.058 98.7202 640.386C104.382 637.711 109.572 631.642 109.454 624.329C109.439 623.376 109.323 622.386 108.877 621.599C107.742 619.592 105.257 619.873 103.284 620.379C95.145 622.476 87.0044 624.57 78.8652 626.665C68.1663 629.417 57.2989 632.245 47.6852 638.526C42.8577 641.677 7.26676 681.357 24.8399 685.607C29.595 686.757 45.1808 666.587 49.3906 662.939C58.9095 654.686 69.2131 647.429 80.8652 644.683Z" stroke="white"/>
<path fill-rule="evenodd" clip-rule="evenodd" d="M253.509 546.522C254.074 546.312 254.633 546.079 255.184 545.823C264.535 541.469 260.614 530.396 252.383 528.016C245.092 525.904 214.201 524.342 214.348 538.66C214.436 547.36 224.512 547.891 229.697 548.019C237.338 548.206 246.024 549.303 253.509 546.522Z" stroke="white"/>
<path fill-rule="evenodd" clip-rule="evenodd" d="M572.132 852.333C560.082 850.844 548.826 841.971 542.885 829.277C541.307 825.908 540.112 821.629 541.755 818.304C543.033 815.717 545.636 814.582 548.085 813.961C561.63 810.523 574.843 816.882 587.943 820.057C594.347 821.607 613.601 814.361 617.726 820.071C622.433 826.581 612.189 835.418 608.333 839.033C598.432 848.315 584.726 853.888 572.132 852.333Z" stroke="white"/>
<path d="M777.862 856.545C762.233 820.99 725.905 800.553 693.194 808.911C675.281 813.487 658.655 825.673 640.346 825.996C638.905 826.022 637.409 825.957 636.12 825.186C633.004 823.325 632.395 817.951 633.942 814.207C635.491 810.461 638.526 807.99 641.446 805.719C654.222 795.794 667.625 786.154 676.94 771.697C690.952 749.955 694.024 719.894 709.042 699.147C719.464 684.748 735.282 676.227 751.156 676.459C767.03 676.694 782.671 685.678 792.797 700.378" stroke="white"/>
<path fill-rule="evenodd" clip-rule="evenodd" d="M715.01 788.956C708.835 791.152 701.479 793.454 696.51 788.528C693.993 786.033 692.729 782.164 691.895 778.369C691.109 774.794 690.617 771.009 691.314 767.405C691.955 764.097 693.555 761.163 695.419 758.613C702.135 749.417 712.757 744.582 722.853 746.126C733.156 747.701 752.142 761.753 748.633 777.294C745.613 790.678 724.286 785.656 715.01 788.956Z" stroke="white"/>
<path d="M321.782 1410.54C296.922 1362.58 283.286 1304.87 289.928 1248.93C296.57 1192.98 325.245 1139.8 367.9 1116.08C413.864 1090.53 468.436 1100.91 516.474 1081.64C554.917 1066.23 596.311 1036.12 625.579 1002.99C638.016 988.908 653.63 975.545 670.584 978.053C684.565 980.119 696.248 993.148 702.033 1008.59C717.051 1048.68 703.122 1096.44 673.275 1119.91C656.752 1132.9 637.176 1139.23 617.632 1142.59C602.374 1145.22 586.364 1146.38 573 1155.62C551.327 1170.6 542.49 1202.39 537.301 1231.79C532.114 1261.2 528.071 1292.92 511.152 1315.05C495.095 1336.05 470.718 1344.01 450.396 1358.73C421.155 1379.92 400.044 1416.67 393.91 1457.05" stroke="white"/>
<path d="M-50.8477 278.986C-12.0696 299.463 36.0164 291.537 68.7814 259.268C96.7445 231.728 114.634 188.036 148.315 172.267C163.731 165.05 180.671 164.714 197.193 163.723C213.713 162.732 230.818 160.776 245.163 150.866C259.506 140.957 270.31 120.971 266.776 101.539C262.362 77.2674 239.994 65.8938 222.455 52.7624C183.994 23.9682 159.818 -30.4637 161.307 -84.916" stroke="white"/>
<path d="M-58.8281 227.524C-18.465 249.861 31.6451 244.304 67.9287 213.464C99.2575 186.838 123.208 141.86 161.285 136.236C172.819 134.532 184.607 136.813 196.088 134.635C207.567 132.453 219.592 123.852 221.511 110.067C223.026 99.1785 217.688 88.3739 210.725 81.1805C203.761 73.9871 195.228 69.4322 187.449 63.5725C155.73 39.6824 137.802 -8.15902 143.93 -52.5596" stroke="white"/>
<path d="M-79.0137 193.306C-47.6198 210.226 -12.1634 227.401 20.1116 213.077C44.8748 202.09 61.6802 174.995 81.8143 154.472C98.8789 137.077 118.98 124.01 140.429 116.371C148.958 113.332 158.793 110.111 162.624 100.459C165.817 92.4158 163.399 82.5498 158.94 75.4347C154.479 68.3162 148.258 63.1601 142.673 57.3004C115.456 28.7481 103.781 -19.48 114.001 -61.1398" stroke="white"/>
<path d="M-71.8594 169.737C-44.5039 202.62 5.73222 201.511 32.0678 167.446C46.2469 149.106 54.8054 122.545 74.1166 113.168C85.3749 107.702 100.104 108.059 106.603 95.7251C111.485 86.4587 108.795 73.5265 102.498 65.5904C96.1998 57.656 87.1569 53.8012 78.2627 51.3705C58.2306 45.8907 37.3103 46.2688 17.3575 40.387C-2.59536 34.5069 -22.7465 20.2154 -29.1278 -3.26412" stroke="white"/>
<path fill-rule="evenodd" clip-rule="evenodd" d="M-3.8982 156.239C7.47913 154.363 17.9428 145.703 23.4601 133.594C26.8384 126.182 28.6771 117.274 34.2099 112.063C39.0742 107.483 46.542 105.98 48.8126 99.0696C51.6315 90.493 43.8294 82.3644 36.6775 79.0377C16.3464 69.5822 -7.69158 72.5818 -25.9729 86.8545C-56.5934 110.758 -40.0799 162.196 -3.8982 156.239Z" stroke="white"/>
<path d="M-42.9446 514.433C9.541 521.262 77.2256 518.747 112.386 465.319C133.969 432.52 150.939 395.839 180.491 373.835C210.001 351.861 245.52 339.549 280.073 348.763C299.514 353.946 320.301 365.35 338.25 354.978C354.348 345.674 361.048 321.936 361.172 300.458C361.381 264.434 344.693 226.365 316.249 215.065C290.263 204.743 262.355 218.104 235.068 220.587C215.171 222.4 193.835 218.676 176.344 230.22C155.295 244.115 147.155 275.093 131.259 296.732C120.037 312.01 104.981 322.471 89.5534 330.919C36.616 359.911 -26.2681 367.374 -79.8203 340.063" stroke="white"/>
<path d="M-62.7525 488.828C-19.1979 489.934 28.2506 504.975 65.3473 477.508C84.1159 463.611 96.8304 440.849 110.545 420.098C129.485 391.444 151.605 365.285 178.014 347.084C204.424 328.883 235.445 319.036 265.614 323.904C284.678 326.979 305.334 335.445 322.128 324.167C334.795 315.658 341.461 296.485 338.538 279.395C335.614 262.304 323.83 248.192 309.841 243.562C300.709 240.538 291.048 241.235 281.596 241.956C265.167 243.209 248.737 244.46 232.307 245.712C216.586 246.911 200.205 248.342 186.627 257.949C168.379 270.857 158.774 295.851 143.498 313.479C133.378 325.16 120.912 333.424 108.399 341.047C49.7885 376.759 -18.1441 401.635 -81.3242 379.946" stroke="white"/>
<path d="M-61.6172 469.513C-27.7189 478.66 9.70355 487.287 40.2079 467.296C55.7129 457.136 67.5194 440.637 79.537 425.081C105.68 391.25 134.727 360.092 168.279 337.622C201.833 315.153 240.232 301.684 278.561 304.585C287.699 305.277 297.263 306.806 305.704 302.543C314.146 298.279 320.418 285.47 315.694 276.038C313.458 271.572 309.381 268.964 305.368 266.988C276.374 252.72 242.696 261.365 214.8 278.506C186.902 295.649 162.933 320.604 136.761 341.308C80.554 385.776 13.5975 410.337 -53.6791 411.165" stroke="white"/>
<path fill-rule="evenodd" clip-rule="evenodd" d="M50.8813 427.509C51.3383 427.09 51.7979 426.651 52.2512 426.193C58.1024 420.277 52.2631 412.25 44.0358 413.494C33.3691 415.106 22.8069 420.75 12.6117 425.542C4.79686 429.214 -37.4899 441.646 -14.8939 454.161C2.06017 463.551 38.1073 439.225 50.8813 427.509Z" stroke="white"/>
<path d="M755.011 428.52C749.31 439.705 740.477 448.814 730.022 452.56C719.568 456.306 707.537 454.251 699.014 446.065C692.421 439.733 688.351 430.469 684.152 421.669C675.244 403 664.618 384.864 649.825 372.746C631.429 357.674 607.55 352.683 591.808 333.757C577.465 316.513 572.706 288.733 580.217 266.078C584.694 252.572 592.919 241.324 598.052 228.159C605.473 209.127 605.887 186.323 599.164 166.922C596.318 158.71 592.292 151.164 589.22 143.071C578.137 113.863 582.244 74.7425 603.889 55.949C610.196 50.4743 617.557 46.9722 625.072 44.5533C659.112 33.592 695.792 44.5022 727.136 63.8681C758.482 83.234 785.809 110.597 814.463 135.266" stroke="white"/>
<path d="M756.982 385.107C750.847 395.259 743.452 404.764 733.988 410.055C724.524 415.348 712.661 415.733 704.124 408.515C695.989 401.639 692.332 389.623 687.851 378.949C682.167 365.407 674.351 352.901 664.029 344.178C653.592 335.356 641.125 330.783 629.864 323.576C618.603 316.367 607.853 305.128 605.659 290.015C601.708 262.799 626.285 241.305 629.823 214.007C633.849 182.944 609.825 154.563 612.356 123.274C614.063 102.189 628.453 84.4517 645.325 78.3621C662.197 72.2725 680.813 76.5361 696.441 86.3101C712.069 96.0842 725.08 110.963 736.841 126.732C750.131 144.546 762.121 163.762 772.635 184.081" stroke="white"/>
<path d="M754.498 344.1C750.501 352.703 746.403 361.458 740.381 368.14C734.358 374.823 725.978 379.204 717.952 377.221C704.118 373.803 698.007 354.953 690.145 340.844C683.288 328.535 673.593 318.539 662.434 312.268C655.107 308.149 647.19 305.611 640.063 301.011C632.937 296.412 626.391 289.101 624.791 279.566C621.271 258.58 642.045 242.916 645.367 221.882C648.982 198.989 631.098 178.085 631.944 154.803C632.522 138.951 642.022 125.116 653.526 117.345C659.325 113.429 665.923 110.707 672.547 111.422C680.937 112.33 688.222 118.529 694.784 124.886C722.196 151.437 745.118 184.661 761.756 221.961" stroke="white"/>
<path d="M748.555 307.237C741.194 316.072 730.011 320.026 719.843 317.387C708.603 314.471 699.692 304.511 689.579 297.926C682.708 293.448 675.131 290.451 668.808 284.924C662.485 279.396 657.435 270.288 658.836 261.041C660.333 251.164 668.428 244.62 671.297 235.195C675.963 219.871 665.76 204.536 660.18 189.66C658.999 186.512 657.999 183.165 658.038 179.712C658.147 169.827 667.11 162.68 675.32 163.204C683.528 163.733 690.748 169.8 696.839 176.438C709.007 189.697 718.602 205.965 729.74 220.471C740.878 234.979 754.271 248.154 770.304 252.415" stroke="white"/>
<path d="M747.563 284.339C735.568 284.746 723.272 284.808 711.968 279.965C700.667 275.12 690.392 264.37 688.043 250.222C686.853 243.046 688.354 234.399 693.689 230.878C695.484 229.694 697.554 229.205 699.603 229.136C710.389 228.768 719.024 239.072 727.168 247.58C736.475 257.305 746.863 265.53 757.969 271.969" stroke="white"/>
<path fill-rule="evenodd" clip-rule="evenodd" d="M363.125 414.509C366.608 430.61 373.967 445.276 376.847 461.547C381.5 487.849 374.447 517.692 386.213 540.559C397.953 563.377 422.896 568.908 442.686 581.299C482.892 606.473 503.767 662.801 542.576 690.966C548.947 695.591 555.941 699.456 563.37 699.981C569.732 700.43 576.049 698.4 581.99 695.623C593.535 690.231 604.529 681.422 610.419 668.322C616.512 654.771 616.378 638.069 612.36 623.442C608.341 608.817 600.776 595.973 592.491 584.227C581.846 569.131 569.834 555.433 556.735 543.451C535.214 523.767 509.387 508.334 491.551 483.916C473.176 458.762 456.318 429.383 453.971 395.041C452.853 378.699 455.127 362.323 455.691 345.936C456.253 329.551 454.873 312.28 447.342 298.609C437.266 280.321 413.32 272.767 399.259 288.111C386.112 302.459 381.899 325.429 373.586 343.536C363.297 365.946 357.59 388.911 363.125 414.509Z" stroke="white"/>
<path fill-rule="evenodd" clip-rule="evenodd" d="M477.768 575.486C489.634 589.179 499.691 605.82 510.497 620.902C523.589 639.171 576.593 692.911 590.334 647.471C593.153 638.148 590.499 627.777 587.122 618.728C579.052 597.105 566.742 577.792 551.478 562.802C537.047 548.63 520.215 538.434 505.207 525.156C465.895 490.372 440.541 433.755 438.026 375.143C437.603 365.243 437.767 355.109 435.133 345.714C432.501 336.321 426.282 327.578 418.105 326.329C410.113 325.109 402.569 331.214 397.136 338.367C381.987 358.314 377.491 388.852 385.565 414.06C391.476 432.518 403.681 449.905 400.923 469.414C397.68 492.326 391.333 508.181 406.121 528.116C417.861 543.941 438.729 546.315 453.942 555.013C462.9 560.133 470.658 567.282 477.768 575.486Z" stroke="white"/>
<path fill-rule="evenodd" clip-rule="evenodd" d="M409.703 444.478C410.715 459.363 409.946 474.443 412.049 489.162C414.154 503.881 419.727 518.811 430.264 526.717C439.913 533.958 452.104 534.227 462.461 539.88C481.931 550.506 490.907 577.132 505.181 596.273C517.329 612.561 533.525 623.522 549.41 634.19C554.944 637.907 563.025 641.033 566.656 634.783C568.292 631.964 568.204 628.213 567.752 624.82C564.986 603.972 551.529 587.601 537.424 575.033C520.537 559.986 501.736 548.133 485.49 532.096C451.2 498.244 430.295 446.601 426.07 393.494C425.19 382.443 423.649 368.943 415.048 364.903C399.512 357.602 390.467 385.609 394.832 399.502C396.737 405.57 401.278 409.699 403.822 415.383C407.715 424.084 409.042 434.757 409.703 444.478Z" stroke="white"/>
<path fill-rule="evenodd" clip-rule="evenodd" d="M538.559 615.047C540.82 616.987 543.205 618.919 545.939 619.496C548.674 620.074 551.856 618.926 553.156 615.977C555.008 611.777 552.299 606.798 549.469 603.476C537.401 589.312 521.064 582.132 508.576 568.623C506.755 566.652 495.899 556.043 495.842 565.65C495.823 568.599 502.529 575.639 504.16 577.845C507.352 582.166 510.671 586.357 514.105 590.401C521.711 599.359 529.893 607.612 538.559 615.047Z" stroke="white"/>
<path fill-rule="evenodd" clip-rule="evenodd" d="M419.951 492.738C416.287 480.768 416.899 467.912 416.107 455.406C415.43 444.673 414.091 434.092 413.553 423.357C413.186 416.014 411.251 408.793 407.987 402.572C406.322 399.4 404.307 396.462 403.035 393.038C401.207 388.117 400.49 381.162 405.503 378.57C408.053 377.251 410.907 379.609 412.55 382.297C417.486 390.372 418.72 402.778 420.542 412.329C423.104 425.762 424.116 439.396 427.439 452.679C432.329 472.237 440.462 485.701 451.413 500.527C453.858 503.84 471.761 526.019 463.965 529.987C459.612 532.198 450.613 526.698 446.736 524.613C435.016 518.309 424.48 507.527 419.951 492.738Z" stroke="white"/>
<path fill-rule="evenodd" clip-rule="evenodd" d="M430.736 499.899C434.118 505.368 437.864 511.156 443.282 513.151C445.048 513.8 447.605 513.424 447.86 511.226C447.953 510.421 447.67 509.627 447.38 508.891C443.926 500.146 438.417 492.588 431.656 487.324C422.441 480.148 428.73 496.652 430.736 499.899Z" stroke="white"/>
<path d="M283.303 -96.2996C288.465 -65.4257 303.719 -37.163 325.066 -18.923C344.017 -2.7306 369.375 8.59186 376.166 35.3283C379.871 49.9161 376.815 65.7083 378.359 80.8463C381.881 115.396 408.166 139.896 434.412 154.573C451.769 164.278 472.408 174.569 477.226 196.846C481.005 214.319 472.546 233.099 460.239 243.44C421.114 276.311 365.42 251.441 347.754 200.436C338.888 174.843 339.314 146.2 335.757 118.806C330.838 80.9008 317.075 43.1639 291.918 19.5685C281.34 9.64793 269.087 2.50051 258.715 -7.73347C248.344 -17.9657 239.646 -32.62 240.19 -48.7392" stroke="white"/>
<path d="M290.299 -2.58131C300.21 3.78768 308.975 12.7151 315.828 23.4244C321.904 32.9157 326.442 43.6913 330.492 54.6339C334.841 66.3822 338.678 78.4337 341.434 90.8599C346.466 113.549 347.831 137.17 351.788 160.164C355.744 183.158 362.751 206.367 376.79 222.689C392.348 240.777 415.955 248.197 436.882 241.574C446.74 238.455 456.953 230.833 458.695 218.756C460.627 205.362 451.161 193.23 440.937 187.43C430.714 181.632 419.12 179.607 409.36 172.752C403.707 168.78 398.869 163.317 394.474 157.48C380.374 138.758 370.347 115.634 365.651 91.0116C363.715 80.8559 362.668 70.4601 360.355 60.4186C354.653 35.6786 341.041 13.7065 322.959 0.0572346C314.748 -6.14141 304.574 -12.4814 303.369 -24.0509" stroke="white"/>
<path fill-rule="evenodd" clip-rule="evenodd" d="M371.285 178.699C375.673 193.257 381.56 207.646 391.146 217.986C400.73 228.329 414.648 233.933 426.843 228.954C430.207 227.581 433.581 225.152 434.88 221.174C436.246 216.981 434.887 212.065 432.431 208.666C429.973 205.268 426.582 203.083 423.251 201.027C413.338 194.917 403.16 189.244 394.154 181.364C385.147 173.484 377.248 163.07 373.803 150.334C372.554 145.707 371.839 140.684 369.32 136.875C367.86 134.668 363.698 131.481 361.182 133.078C357.161 135.632 360.354 140.032 361.684 144.312C365.201 155.645 367.858 167.328 371.285 178.699Z" stroke="white"/>
<path fill-rule="evenodd" clip-rule="evenodd" d="M396.85 208.407C398.27 213.221 401.881 216.764 405.864 218.537C409.849 220.308 414.192 220.518 418.436 220.317C419.677 220.257 421.157 219.978 421.665 218.615C422.114 217.413 421.534 216.036 420.91 214.951C416.579 207.4 408.958 202.178 401.598 202.074C398.817 202.034 395.847 205.008 396.85 208.407Z" stroke="white"/>
<path fill-rule="evenodd" clip-rule="evenodd" d="M293.585 289.685C296.343 287.779 298.017 283.087 296.145 279.997C294.99 278.095 292.941 277.386 291.045 276.802C284.879 274.892 251.488 265.387 253.167 280.454C254.661 293.843 287.556 293.849 293.585 289.685Z" stroke="white"/>
</g>
</g>
</svg>
