<svg id="Layer_1" data-name="Layer 1" xmlns="http://www.w3.org/2000/svg" viewBox="0 0 84 100"><defs><style>.cls-1{fill:#febd39;}</style></defs><title>benefit-icons</title><path class="cls-1" d="M43.08,37.45a1.3,1.3,0,0,0,1.16-.69l9.21-16.95-.29-.61a10.59,10.59,0,0,1-1-4.66A10.84,10.84,0,1,1,64.35,25.29l-.67.09-5.5,10.13a1.31,1.31,0,0,0,0,1.35,1.31,1.31,0,0,0,2.31-.1l4.87-8.95a13.48,13.48,0,1,0-14.85-8.07L41.93,35.52a1.31,1.31,0,0,0,0,1.31,1.32,1.32,0,0,0,1.14.64Z"/><path class="cls-1" d="M19.78,58.48l-1.08,0,.05,1.08c.88,16.9,16.43,20.92,21.18,21.75l.69.12.38-.6c1.36-2.14,1.75-8.08-1.09-13.24C37.53,63.29,32.08,58.09,19.78,58.48ZM39.5,79.1C33.72,77.93,22.22,73.94,21,60.58h.11c10.38,0,15,4.38,17,8.06,2.18,4,2.12,8.5,1.45,10.46Z"/><path class="cls-1" d="M44.48,54.06c-1.48-3.2-5-7.11-13.63-7.59l-1.08-.06,0,1.08c-.42,12,10.33,15.82,13.63,16.69l.68.18.43-.56C45.61,62.3,46.27,58,44.48,54.06ZM43.09,61.9c-3.89-1.2-11-4.57-11.25-13.23,5.37.54,9.06,2.69,10.72,6.28A10.12,10.12,0,0,1,43.09,61.9Z"/><path class="cls-1" d="M46.81,63.58C44.37,68,44.72,73.15,45.89,75l.38.6.69-.12c4.07-.71,17.38-4.16,18.13-18.63l.06-1.08-1.08,0C53.52,55.38,48.85,59.85,46.81,63.58Zm.6,9.65a12.39,12.39,0,0,1,1.25-8.63c1.7-3.08,5.54-6.75,14.23-6.78-1.15,11-10.58,14.39-15.47,15.41Z"/><path class="cls-1" d="M22.25,99a3.37,3.37,0,0,1-3.36-3.36V89.09C15,87.32,2.32,79.15,1.44,45.17a4.81,4.81,0,0,1,1.37-3.5,4.93,4.93,0,0,1,3.51-1.48H77.66a4.92,4.92,0,0,1,3.53,1.48,4.83,4.83,0,0,1,1.37,3.5C81.68,79.15,69,87.32,65.16,89l0,6.58A3.37,3.37,0,0,1,61.75,99H22.25Zm-.87-3.36a.87.87,0,0,0,.87.87h39.5a.88.88,0,0,0,.88-.87V89.42H21.38Zm-15-52.92a2.45,2.45,0,0,0-1.74.74,2.32,2.32,0,0,0-.66,1.7c.91,35.32,14.8,41.25,16.38,41.81H63.66c1.61-.6,15.51-6.77,16.41-41.82a2.29,2.29,0,0,0-.67-1.7,2.41,2.41,0,0,0-1.73-.74Z"/></svg>