<svg id="Layer_1" data-name="Layer 1" xmlns="http://www.w3.org/2000/svg" viewBox="0 0 100 100"><defs><style>.cls-1{fill:#febd39;}.cls-2,.cls-3{fill:none;stroke:#febd39;stroke-width:2.5px;}.cls-2{stroke-linecap:round;stroke-linejoin:round;}</style></defs><title>benefit-icons</title><path class="cls-1" d="M72.25,39.17l.36-.25,5.62-1.49a1.14,1.14,0,0,1,1.41.89,1.12,1.12,0,0,1-.89,1.41l-5.61,1.48a1.13,1.13,0,0,1-1.41-.89A1.19,1.19,0,0,1,72.25,39.17Z"/><path class="cls-1" d="M71.64,26.88A1.44,1.44,0,0,1,73,27a1,1,0,0,1,.42.78,1,1,0,0,1-.39.8l-3.82,4.49a1.11,1.11,0,0,1-1.09.34,1.1,1.1,0,0,1-.82-.79,1.12,1.12,0,0,1,.31-1.11L71.46,27Z"/><path class="cls-1" d="M60.07,20.78a.81.81,0,0,1,.67-.19,1,1,0,0,1,.7.44,1,1,0,0,1,.17.82l-.76,5.84a1.08,1.08,0,1,1-2.13-.39l.76-5.84C59.66,21.33,59.71,21,60.07,20.78Z"/><path class="cls-1" d="M27.75,60.84l-.36.25-5.62,1.48a1.18,1.18,0,1,1-.52-2.3l5.62-1.48a1.13,1.13,0,0,1,1.41.89A1.2,1.2,0,0,1,27.75,60.84Z"/><path class="cls-1" d="M28.36,73.12A1.42,1.42,0,0,1,27,73a1,1,0,0,1,0-1.58L30.75,67a1.13,1.13,0,0,1,1.55,0,1.12,1.12,0,0,1,.06,1.54L28.54,73Z"/><path class="cls-1" d="M39.93,79.22a.79.79,0,0,1-.66.19,1,1,0,0,1-.71-.44,1.08,1.08,0,0,1-.16-.82l.76-5.84a1.07,1.07,0,0,1,1.26-.87,1.09,1.09,0,0,1,.87,1.27l-.76,5.84C40.34,78.67,40.29,79,39.93,79.22Z"/><path class="cls-2" d="M89.92,78.2a38.88,38.88,0,0,1-11-22A8.83,8.83,0,0,0,75.23,50a9.33,9.33,0,0,0-10.79,0,7.16,7.16,0,0,0-2.25,2.33,12.42,12.42,0,0,1-9.51,9.82A17.59,17.59,0,0,0,50,64.44a9.33,9.33,0,0,0,0,10.79,8.82,8.82,0,0,0,6.2,3.67,39.63,39.63,0,0,1,22,11L85.8,97.5,97.5,85.79Z"/><path class="cls-2" d="M47.7,37.81A7.16,7.16,0,0,0,50,35.56a9.33,9.33,0,0,0,0-10.79,8.83,8.83,0,0,0-6.2-3.67,38.88,38.88,0,0,1-22-11L14.21,2.5,2.5,14.2l7.58,7.58a39.63,39.63,0,0,1,11,22A8.82,8.82,0,0,0,24.77,50a9.33,9.33,0,0,0,10.79,0,17.59,17.59,0,0,0,2.32-2.69A12.42,12.42,0,0,1,47.7,37.81Z"/><circle class="cls-3" cx="50" cy="50" r="12.41"/></svg>