<svg id="Layer_1" data-name="Layer 1" xmlns="http://www.w3.org/2000/svg" xmlns:xlink="http://www.w3.org/1999/xlink" viewBox="0 0 74 100"><defs><style>.cls-1{fill:#fff;}.cls-2{mask:url(#mask);}.cls-3{fill:none;stroke:#febd39;stroke-linecap:round;stroke-linejoin:round;stroke-width:2.5px;}</style><mask id="mask" x="-15.8" y="-2.8" width="105.6" height="105.6" maskUnits="userSpaceOnUse"><g id="mask-2"><rect id="path-1" class="cls-1" x="-15.8" y="-2.8" width="105.6" height="105.6"/></g></mask></defs><title>benefit-icons</title><g class="cls-2"><path id="Shape" class="cls-3" d="M70.22,79.68c-2.28,6.36-7.5,11.7-15.14,15.51,2.38-9.65,3.6-19.73-5.51-28.53a.56.56,0,0,0-.91.21c-.39,1.16-.73,2.27-1,3.34a33.91,33.91,0,0,1-2.25,6.05c-.29.54-.54,1.14-.8,1.77-.68,1.6-1.38,3.26-2.69,3.76a3.91,3.91,0,0,1-3.06-.41c-3.77-1.74-5-5-3.34-9.13a45.59,45.59,0,0,1,2.22-4.65c1.94-3.71,3.94-7.55,4.08-13a.53.53,0,0,0-.31-.51.53.53,0,0,0-.59.07c-1.51,1.26-3,2.47-4.56,3.7C23.37,68.24,11.13,78,19.5,98c-8.45-4-14-10.21-16.1-18-3-11.4,1.24-25.73,12.09-40.41a18.39,18.39,0,0,1,1.58,2.74c1.35,2.7,2.89,5.77,7.52,5.93a.55.55,0,0,0,.56-.47c.51-3.85-.54-7.58-1.56-11.2-1.31-4.65-2.55-9-.81-13.75C25.63,15.18,30,8.72,36.88,2c.27,11.55,5.64,19.51,12.1,27.93,1.39,1.82,2.81,3.63,4.24,5.43C58.54,42.1,64.05,49.07,67.84,57,71.79,65.14,72.61,73,70.22,79.68Z"/></g></svg>