<?xml version="1.0" encoding="UTF-8"?>
<svg width="60px" height="60px" viewBox="0 0 60 60" version="1.1" xmlns="http://www.w3.org/2000/svg" xmlns:xlink="http://www.w3.org/1999/xlink">
    <!-- Generator: Sketch 63.1 (92452) - https://sketch.com -->
    <title>brain</title>
    <desc>Created with Sketch.</desc>
    <g id="brain" stroke="none" stroke-width="1" fill="none" fill-rule="evenodd">
        <circle id="Oval" stroke="#ECA846" stroke-width="2" cx="30" cy="30" r="29"></circle>
        <path d="M29.9939025,13.8775988 C30.9667879,12.4143667 32.6304148,11.45 34.5192816,11.45 C37.2394569,11.45 39.4925037,13.4500157 39.8881241,16.0597494 C42.495362,16.5882402 44.4074167,19.5337516 44.4733556,23.0292313 C45.8397077,23.9727443 46.737805,25.745665 46.737805,27.7413646 C46.737805,29.8739506 45.7122803,31.7521484 44.1857283,32.6357443 C45.6457957,34.395312 45.8652783,37.0670266 44.5801273,39.2929736 C43.3737242,41.382525 41.0669692,42.5153428 38.881622,42.3118221 C38.9880068,42.7167643 39.0446606,43.1418616 39.0446606,43.5801913 C39.0446606,46.3294189 36.8159712,48.5581082 34.0667436,48.5581082 C32.3831598,48.5581082 30.8947855,47.7223174 29.9939025,46.4430177 C29.0930195,47.7223174 27.6046452,48.5581082 25.9210614,48.5581082 C23.1718338,48.5581082 20.9431444,46.3294189 20.9431444,43.5801913 C20.9431444,43.1418616 20.9997982,42.7167643 21.106183,42.3118221 C18.9208358,42.5153428 16.6140808,41.382525 15.4076777,39.2929736 C14.1225267,37.0670266 14.3420093,34.395312 15.8020766,32.6357443 C14.2755247,31.7521484 13.25,29.8739506 13.25,27.7413646 C13.25,25.745665 14.1480973,23.9727443 15.5144494,23.0292313 C15.5798774,19.560835 17.4629242,16.6339176 20.0392031,16.0724683 C20.0384482,16.0401966 20.0380686,16.0078322 20.0380686,15.9753791 C20.0380686,13.0741028 22.2822264,11.45 25.4685234,11.45 C27.3573902,11.45 29.0210171,12.4143667 29.9939025,13.8775988 Z M29.0888267,43.5801908 L29.0888267,27.7413642 C29.0888267,26.2417858 27.8731779,25.0261372 26.3735993,25.0261372 C25.8737397,25.0261372 25.4685234,24.6209209 25.4685234,24.1210614 C25.4685234,23.6212018 25.8737397,23.2159855 26.3735993,23.2159855 C27.3923579,23.2159855 28.3324906,23.5526238 29.0888267,24.1207299 L29.0888267,16.8804549 C29.0888267,14.8810166 27.4679617,13.2601516 25.4685234,13.2601516 C23.1791299,13.2601516 21.8482202,14.2233344 21.8482202,15.9753791 C21.8482202,17.225028 22.8612608,18.2380686 24.1109097,18.2380686 C24.6107693,18.2380686 25.0159855,18.6432849 25.0159855,19.1431444 C25.0159855,19.6430039 24.6107693,20.0482202 24.1109097,20.0482202 C22.5298505,20.0482202 21.1592068,19.1473244 20.4843106,17.8308647 C18.9493585,18.1350924 17.6428772,19.9397572 17.3736185,22.3109097 L18.227917,22.3109097 C20.4472491,22.3109097 22.293444,23.9085 22.679209,26.0163881 C23.4445112,26.1752374 24.1572098,26.5531765 24.7281538,27.1241205 C25.0816079,27.4775746 25.0816079,28.050637 24.7281538,28.404091 C24.3746997,28.7575451 23.8016374,28.7575451 23.4481834,28.404091 C23.0175025,27.9734102 22.4452803,27.7413646 21.8482202,27.7413646 C21.2511602,27.7413646 20.6789379,27.9734102 20.2482571,28.404091 C19.894803,28.7575451 19.3217407,28.7575451 18.9682866,28.404091 C18.6148325,28.050637 18.6148325,27.4775746 18.9682866,27.1241205 C19.492515,26.599892 20.13625,26.2383767 20.8304821,26.059766 C20.4964461,24.9385694 19.4576512,24.1210614 18.227917,24.1210614 L17.775379,24.1210614 C16.3257742,24.1210614 15.0601516,25.7030895 15.0601516,27.7413646 C15.0601516,29.7796397 16.3257742,31.3616678 17.7753791,31.3616678 L18.227917,31.3616678 C19.8406085,31.3616678 21.2343806,32.2989728 21.8941847,33.6585338 C22.6837954,33.0785154 23.6306717,32.7192816 24.5634476,32.7192816 C25.0633072,32.7192816 25.4685234,33.1244978 25.4685234,33.6243574 C25.4685234,34.1242169 25.0633072,34.5294332 24.5634476,34.5294332 C23.7068733,34.5294332 22.7122119,35.1307828 22.1699675,35.9388341 C21.9631512,36.2470312 21.8482202,36.8998015 21.8482202,37.6971985 C21.8482202,38.197058 21.4430039,38.6022743 20.9431444,38.6022743 C20.4432849,38.6022743 20.0380686,38.197058 20.0380686,37.6971985 C20.0380686,36.7314801 20.1597814,35.8992034 20.4830319,35.2480258 C20.3882043,34.0856131 19.4147746,33.1718195 18.227917,33.1718195 L17.8802629,33.1718195 C16.3224297,34.224335 15.8854651,36.5002224 16.975315,38.3878978 C18.0971375,40.3309514 20.5661868,41.0826004 22.3007581,40.0811452 C22.3492081,40.0531726 22.3991694,40.0301886 22.450047,40.012034 C23.3467454,39.1395981 24.571154,38.6022743 25.9210614,38.6022743 C26.4209209,38.6022743 26.8261372,39.0074906 26.8261372,39.5073501 C26.8261372,40.0072097 26.4209209,40.4124259 25.9210614,40.4124259 C24.1715529,40.4124259 22.753296,41.8306828 22.753296,43.5801913 C22.753296,45.3296997 24.1715529,46.7479566 25.9210614,46.7479566 C27.6705698,46.7479566 29.0888267,45.3296997 29.0888267,43.5801913 L29.0888267,43.5801908 Z M30.8989783,16.8804549 L30.8989783,18.6906065 C30.8989783,20.6900448 32.5198433,22.3109097 34.5192816,22.3109097 C35.0191411,22.3109097 35.4243574,22.716126 35.4243574,23.2159855 C35.4243574,23.7158451 35.0191411,24.1210614 34.5192816,24.1210614 C33.1284435,24.1210614 31.859728,23.5981926 30.8989783,22.7382983 L30.8989783,43.5801976 C30.8989783,45.3296997 32.3172352,46.7479566 34.0667436,46.7479566 C35.8162521,46.7479566 37.234509,45.3296997 37.234509,43.5801913 C37.234509,41.8306828 35.8162521,40.4124259 34.0667436,40.4124259 C33.5668841,40.4124259 33.1616678,40.0072097 33.1616678,39.5073501 C33.1616678,39.0074906 33.5668841,38.6022743 34.0667436,38.6022743 C35.416651,38.6022743 36.6410596,39.1395981 37.537758,40.012034 C37.5886356,40.0301886 37.6385969,40.0531726 37.6870469,40.0811452 C39.4216182,41.0826004 41.8906675,40.3309514 43.01249,38.3878978 C44.1023399,36.5002224 43.6653754,34.224335 42.1075411,33.1718195 L41.759888,33.1718195 C40.5730304,33.1718195 39.5996007,34.0856131 39.5047731,35.2480258 C39.8280236,35.8992034 39.9497364,36.7314801 39.9497364,37.6971985 C39.9497364,38.197058 39.5445201,38.6022743 39.0446606,38.6022743 C38.5448011,38.6022743 38.1395848,38.197058 38.1395848,37.6971985 C38.1395848,36.8998015 38.0246538,36.2470312 37.8178375,35.9388341 C37.2755931,35.1307828 36.2809317,34.5294332 35.4243574,34.5294332 C34.9244978,34.5294332 34.5192816,34.1242169 34.5192816,33.6243574 C34.5192816,33.1244978 34.9244978,32.7192816 35.4243574,32.7192816 C36.3571333,32.7192816 37.3040096,33.0785154 38.0936203,33.6585338 C38.7534244,32.2989728 40.1471965,31.3616678 41.759888,31.3616678 L42.2124259,31.3616678 C43.6620308,31.3616678 44.9276534,29.7796397 44.9276534,27.7413646 C44.9276534,25.7030895 43.6620308,24.1210614 42.2124259,24.1210614 L41.759888,24.1210614 C40.5301538,24.1210614 39.4913589,24.9385694 39.1573229,26.059766 C39.851555,26.2383767 40.49529,26.599892 41.0195184,27.1241205 C41.3729725,27.4775746 41.3729725,28.050637 41.0195184,28.404091 C40.6660643,28.7575451 40.093002,28.7575451 39.7395479,28.404091 C39.3088671,27.9734102 38.7366448,27.7413646 38.1395848,27.7413646 C37.5425247,27.7413646 36.9703025,27.9734102 36.5396216,28.404091 C36.1861676,28.7575451 35.6131053,28.7575451 35.2596512,28.404091 C34.9061971,28.050637 34.9061971,27.4775746 35.2596512,27.1241205 C35.8305952,26.5531765 36.5432938,26.1752374 37.308596,26.0163881 C37.694361,23.9085 39.5405559,22.3109097 41.759888,22.3109097 L42.2124259,22.3109097 C42.3488412,22.3109097 42.4836153,22.3179829 42.6165331,22.3318259 C42.3385411,19.8234897 40.9004298,17.9442516 39.255589,17.7950895 C37.6280763,18.6192919 35.7640539,18.438884 35.0043102,17.1229692 C34.7543804,16.6900781 34.9026999,16.1365424 35.335591,15.8866126 C35.768482,15.6366829 36.3220177,15.7850023 36.5719475,16.2178934 C36.7372986,16.5042898 37.3707115,16.5952554 38.0978282,16.3288399 C37.8321849,14.5912081 36.3311757,13.2601516 34.5192816,13.2601516 C32.5198433,13.2601516 30.8989783,14.8810166 30.8989783,16.8804549 Z" id="Shape" fill="#ECA846" fill-rule="nonzero"></path>
    </g>
</svg>