<?xml version="1.0" encoding="UTF-8"?>
<svg width="60px" height="60px" viewBox="0 0 60 60" version="1.1" xmlns="http://www.w3.org/2000/svg" xmlns:xlink="http://www.w3.org/1999/xlink">
    <!-- Generator: Sketch 63.1 (92452) - https://sketch.com -->
    <title>joint</title>
    <desc>Created with Sketch.</desc>
    <g id="joint" stroke="none" stroke-width="1" fill="none" fill-rule="evenodd">
        <circle id="Oval" stroke="#ECA846" stroke-width="2" cx="30" cy="30" r="29"></circle>
        <g id="Group" transform="translate(30.000000, 30.500000) rotate(-45.000000) translate(-30.000000, -30.500000) translate(23.000000, 6.000000)" stroke="#ECA846" stroke-linecap="round" stroke-linejoin="round" stroke-width="2">
            <path d="M3.47363649,32 C3.47328986,37.1193862 2.77866178,40.3593219 1.38975226,41.7198071 C0.253088141,42.8332091 -0.385019881,44.5049075 0.253088141,46.1734153 C0.724650503,47.406444 1.94620107,48.5857864 3.47363649,48.5857864 C4.79974463,48.5857864 5.17863267,48.0290854 7.07307288,48.0290854" id="Path-3" transform="translate(3.536536, 40.292893) scale(1, -1) translate(-3.536536, -40.292893) "></path>
            <path d="M10.4005636,32 C10.400217,37.1193862 9.7055889,40.3593219 8.31667938,41.7198071 C7.18001526,42.8332091 6.54190724,44.5049075 7.18001526,46.1734153 C7.65157762,47.406444 8.87312819,48.5857864 10.4005636,48.5857864 C11.7266718,48.5857864 12.1055598,48.0290854 14,48.0290854" id="Path-3" transform="translate(10.463464, 40.292893) scale(-1, -1) translate(-10.463464, -40.292893) "></path>
            <path d="M3.47363649,0 C3.47328986,5.11938617 2.77866178,8.35932185 1.38975226,9.71980706 C0.253088141,10.8332091 -0.385019881,12.5049075 0.253088141,14.1734153 C0.724650503,15.406444 1.94620107,16.5857864 3.47363649,16.5857864 C4.79974463,16.5857864 5.17863267,16.0290854 7.07307288,16.0290854" id="Path-3"></path>
            <path d="M10.4005636,0 C10.400217,5.11938617 9.7055889,8.35932185 8.31667938,9.71980706 C7.18001526,10.8332091 6.54190724,12.5049075 7.18001526,14.1734153 C7.65157762,15.406444 8.87312819,16.5857864 10.4005636,16.5857864 C11.7266718,16.5857864 12.1055598,16.0290854 14,16.0290854" id="Path-3" transform="translate(10.463464, 8.292893) scale(-1, 1) translate(-10.463464, -8.292893) "></path>
        </g>
        <circle id="Oval" stroke="#ECA846" stroke-width="2" transform="translate(30.000000, 30.000000) rotate(-45.000000) translate(-30.000000, -30.000000) " cx="30" cy="30" r="4"></circle>
        <path d="M27.2638389,37.517541 C27.7828168,37.7064335 28.0504038,38.2802758 27.8615113,38.7992537 L26.8354509,41.6183316 C26.6465584,42.1373095 26.072716,42.4048966 25.5537381,42.2160041 C25.0347602,42.0271116 24.7671732,41.4532692 24.9560657,40.9342913 L25.9821261,38.1152134 C26.1710186,37.5962355 26.7448609,37.3286485 27.2638389,37.517541 Z M23.3431458,36.6568542 C23.73367,37.0473785 23.73367,37.6805435 23.3431458,38.0710678 L20.5147186,40.8994949 C20.1241943,41.2900192 19.4910294,41.2900192 19.1005051,40.8994949 C18.7099808,40.5089706 18.7099808,39.8758057 19.1005051,39.4852814 L21.9289322,36.6568542 C22.3194565,36.26633 22.9526215,36.26633 23.3431458,36.6568542 Z M22.482459,32.7361611 C22.6713515,33.2551391 22.4037645,33.8289814 21.8847866,34.0178739 L19.0657087,35.0439343 C18.5467308,35.2328268 17.9728884,34.9652398 17.7839959,34.4462619 C17.5951034,33.927284 17.8626905,33.3534416 18.3816684,33.1645491 L21.2007463,32.1384887 C21.7197242,31.9495962 22.2935665,32.2171832 22.482459,32.7361611 Z M42.2160041,25.5537381 C42.4048966,26.072716 42.1373095,26.6465584 41.6183316,26.8354509 L38.7992537,27.8615113 C38.2802758,28.0504038 37.7064335,27.7828168 37.517541,27.2638389 C37.3286485,26.7448609 37.5962355,26.1710186 38.1152134,25.9821261 L40.9342913,24.9560657 C41.4532692,24.7671732 42.0271116,25.0347602 42.2160041,25.5537381 Z M40.8994949,19.1005051 C41.2900192,19.4910294 41.2900192,20.1241943 40.8994949,20.5147186 L38.0710678,23.3431458 C37.6805435,23.73367 37.0473785,23.73367 36.6568542,23.3431458 C36.26633,22.9526215 36.26633,22.3194565 36.6568542,21.9289322 L39.4852814,19.1005051 C39.8758057,18.7099808 40.5089706,18.7099808 40.8994949,19.1005051 Z M34.4462619,17.7839959 C34.9652398,17.9728884 35.2328268,18.5467308 35.0439343,19.0657087 L34.0178739,21.8847866 C33.8289814,22.4037645 33.2551391,22.6713515 32.7361611,22.482459 C32.2171832,22.2935665 31.9495962,21.7197242 32.1384887,21.2007463 L33.1645491,18.3816684 C33.3534416,17.8626905 33.927284,17.5951034 34.4462619,17.7839959 Z" id="Combined-Shape" fill="#ECA846"></path>
    </g>
</svg>