<svg width="60" height="60" viewBox="0 0 60 60" fill="none" xmlns="http://www.w3.org/2000/svg">
<circle cx="30" cy="30" r="29" stroke="#231F20" stroke-width="2"/>
<path fill-rule="evenodd" clip-rule="evenodd" d="M19.7792 31.4783H16.9932V29.6642H21.9497V29.7938C21.9497 30.5227 21.8525 32.7904 20.3623 34.2644C19.2447 35.382 17.8679 35.6898 16.5234 35.6898C15.179 35.6898 13.786 35.4144 12.6036 34.232C12.231 33.8594 11 32.4988 11 30.0691C11 27.9796 11.9395 26.7 12.5874 26.0521L12.713 25.9283C13.5352 25.1454 14.8624 24.3999 16.8474 24.3999C17.6573 24.3999 18.5158 24.5295 19.3419 24.9668C20.0384 25.3232 20.7997 25.9711 21.3666 26.943L19.5362 27.931C19.1637 27.2021 18.613 26.8296 18.2728 26.6514C17.8193 26.4246 17.2523 26.3112 16.7502 26.3112C15.8917 26.3112 14.9199 26.619 14.2558 27.2669C13.6402 27.8662 13.1705 28.9029 13.1705 30.1177C13.1705 31.5593 13.786 32.4178 14.2396 32.8551C14.7255 33.3249 15.4868 33.7784 16.6368 33.7784C17.3495 33.7784 18.1594 33.584 18.7587 33.1305C19.1799 32.8066 19.601 32.2558 19.7792 31.4783ZM25.4808 35.447H23.3427L25.3512 24.6431H26.8738L29.7408 31.5109L32.7374 24.6431H34.26L36.0742 35.447H33.9361L32.9642 28.7897L30.0648 35.447H29.3521L26.5823 28.7897L25.4808 35.447ZM43.2336 24.3999C39.832 24.3999 37.4672 26.7648 37.4672 30.0529C37.4672 33.3411 39.832 35.6898 43.2336 35.6898C46.6351 35.6898 49 33.3411 49 30.0529C49 26.7648 46.6351 24.3999 43.2336 24.3999ZM39.6377 30.0532C39.6377 32.2399 41.1279 33.7787 43.2336 33.7787C45.3393 33.7787 46.8295 32.2399 46.8295 30.0532C46.8295 27.8665 45.3393 26.3115 43.2336 26.3115C41.1279 26.3115 39.6377 27.8665 39.6377 30.0532Z" fill="#231F20"/>
<rect x="11.0503" y="47.5356" width="12" height="2" transform="rotate(-45 11.0503 47.5356)" fill="#231F20"/>
<mask id="mask0" style="mask-type:alpha" maskUnits="userSpaceOnUse" x="11" y="39" width="10" height="10">
<rect x="11.0503" y="47.5356" width="12" height="2" transform="rotate(-45 11.0503 47.5356)" fill="white"/>
</mask>
<g mask="url(#mask0)">
</g>
<rect x="39.0503" y="19.5356" width="12" height="2" transform="rotate(-45 39.0503 19.5356)" fill="#231F20"/>
<mask id="mask1" style="mask-type:alpha" maskUnits="userSpaceOnUse" x="39" y="11" width="10" height="10">
<rect x="39.0503" y="19.5356" width="12" height="2" transform="rotate(-45 39.0503 19.5356)" fill="white"/>
</mask>
<g mask="url(#mask1)">
</g>
</svg>
