<svg width="60" height="60" viewBox="0 0 60 60" fill="none" xmlns="http://www.w3.org/2000/svg">
<circle cx="30" cy="30" r="29" stroke="#231F20" stroke-width="2"/>
<path fill-rule="evenodd" clip-rule="evenodd" d="M22 28C22 28 22 34 28 34C28 28 22 28 22 28Z" fill="#231F20"/>
<path fill-rule="evenodd" clip-rule="evenodd" d="M22 34C22 34 22 40 28 40C28 34 22 34 22 34Z" fill="#231F20"/>
<path fill-rule="evenodd" clip-rule="evenodd" d="M22 22C22 22 22 28 28 28C28 22 22 22 22 22Z" fill="#231F20"/>
<path fill-rule="evenodd" clip-rule="evenodd" d="M38 22C38 22 38 28 32 28C32 22 38 22 38 22Z" fill="#231F20"/>
<path fill-rule="evenodd" clip-rule="evenodd" d="M30.0027 14.7574C30.0027 14.7574 34.2453 19 30.0027 23.2426C25.76 19 30.0027 14.7574 30.0027 14.7574Z" fill="#231F20"/>
<path fill-rule="evenodd" clip-rule="evenodd" d="M38 28C38 28 38 34 32 34C32 28 38 28 38 28Z" fill="#231F20"/>
<path fill-rule="evenodd" clip-rule="evenodd" d="M38 34C38 34 38 40 32 40C32 34 38 34 38 34Z" fill="#231F20"/>
<path fill-rule="evenodd" clip-rule="evenodd" d="M29 25C29 24.4477 29.4477 24 30 24C30.5523 24 31 24.4477 31 25V44C31 44.5523 30.5523 45 30 45C29.4477 45 29 44.5523 29 44V25Z" fill="#231F20"/>
<rect x="11.0503" y="47.5356" width="12" height="2" transform="rotate(-45 11.0503 47.5356)" fill="#231F20"/>
<mask id="mask0" style="mask-type:alpha" maskUnits="userSpaceOnUse" x="11" y="39" width="10" height="10">
<rect x="11.0503" y="47.5356" width="12" height="2" transform="rotate(-45 11.0503 47.5356)" fill="white"/>
</mask>
<g mask="url(#mask0)">
</g>
<rect x="39.0503" y="19.5356" width="12" height="2" transform="rotate(-45 39.0503 19.5356)" fill="#231F20"/>
<mask id="mask1" style="mask-type:alpha" maskUnits="userSpaceOnUse" x="39" y="11" width="10" height="10">
<rect x="39.0503" y="19.5356" width="12" height="2" transform="rotate(-45 39.0503 19.5356)" fill="white"/>
</mask>
<g mask="url(#mask1)">
</g>
</svg>
