<svg xmlns="http://www.w3.org/2000/svg" xmlns:xlink="http://www.w3.org/1999/xlink" version="1.1" x="0px" y="0px" viewBox="0 0 24 24" style="enable-background:new 0 0 24 24;" xml:space="preserve"><g><path d="M19.645,6.842h-3.021V6.063c0-2.549-2.074-4.624-4.624-4.624c-2.549,0-4.624,2.074-4.624,4.624v0.778H4.355   c-0.36,0-0.653,0.293-0.653,0.653v14.412c0,0.36,0.293,0.653,0.653,0.653h15.289c0.36,0,0.653-0.293,0.653-0.653V7.495   C20.298,7.135,20.005,6.842,19.645,6.842z M8.029,10.446c0.36,0,0.653-0.293,0.653-0.653V8.148h6.634v1.645   c0,0.36,0.293,0.653,0.653,0.653s0.653-0.293,0.653-0.653V8.148h2.368v13.106H5.009V8.148h2.367v1.645   C7.376,10.153,7.669,10.446,8.029,10.446z M12,2.746c1.829,0,3.317,1.488,3.317,3.317v0.778H8.683V6.063   C8.683,4.234,10.171,2.746,12,2.746z"></path></g></svg>