<svg width="60" height="60" viewBox="0 0 60 60" fill="none" xmlns="http://www.w3.org/2000/svg">
<path fill-rule="evenodd" clip-rule="evenodd" d="M22.736 31.992H25.488C25.312 32.76 24.896 33.304 24.48 33.624C23.888 34.072 23.088 34.264 22.384 34.264C21.248 34.264 20.496 33.816 20.016 33.352C19.568 32.92 18.96 32.072 18.96 30.648C18.96 29.448 19.424 28.424 20.032 27.832C20.688 27.192 21.648 26.888 22.496 26.888C22.992 26.888 23.552 27 24 27.224C24.336 27.4 24.88 27.768 25.248 28.488L27.056 27.512C26.496 26.552 25.744 25.912 25.056 25.56C24.24 25.128 23.392 25 22.592 25C20.6312 25 19.3202 25.7364 18.5081 26.5097L18.384 26.632C17.744 27.272 16.816 28.536 16.816 30.6C16.816 33 18.032 34.344 18.4 34.712C19.568 35.88 20.944 36.152 22.272 36.152C23.6 36.152 24.96 35.848 26.064 34.744C27.536 33.288 27.632 31.048 27.632 30.328V30.2H22.736V31.992ZM15.568 29.1758C15.008 28.9038 14.416 28.7598 13.696 28.7598C13.024 28.7598 12.048 28.9038 11.2 29.6558C10.496 30.2798 10 31.2558 10 32.4718C10 33.7678 10.576 34.6318 11.104 35.1278C11.728 35.7198 12.688 36.1358 13.776 36.1358C14.576 36.1358 15.184 35.8958 15.568 35.7038V33.7998C15.04 34.2798 14.464 34.4078 14.032 34.4078C12.864 34.4078 12.016 33.5758 12.016 32.4398C12.016 31.4318 12.672 30.4878 13.968 30.4878C14.64 30.4878 15.152 30.7118 15.568 31.0958V29.1758ZM31.1201 35.9122H29.0081L30.9921 25.2402H32.4961L35.3281 32.0242L38.2881 25.2402H39.7921L41.5841 35.9122H39.4721L38.5121 29.3362L35.6481 35.9122H34.9441L32.2081 29.3362L31.1201 35.9122ZM43.4719 25.2402V35.9122H45.5519V31.9602H46.8959C48.1279 31.9602 49.0079 31.6082 49.5999 31.0162C50.3679 30.2482 50.4698 29.1826 50.4791 28.7131L50.4799 28.6322C50.4799 27.8642 50.2559 26.8242 49.3919 26.0562C48.6602 25.4141 47.8866 25.2598 46.8111 25.2421L43.4719 25.2402ZM46.272 27.0322H45.552V30.1682H46.4C46.8 30.1682 47.312 30.1682 47.76 29.8322C48.144 29.5282 48.336 29.0482 48.336 28.5842C48.336 27.9922 48.048 27.5922 47.744 27.3682C47.312 27.0642 46.768 27.0322 46.272 27.0322Z" fill="#231F20"/>
<path d="M30.3421 56.9824L30 56.8578L29.6579 56.9824L25.4858 58.5013L21.9874 55.7675L21.7005 55.5433L21.3366 55.556L16.8994 55.7114L14.4169 52.0303L14.2134 51.7284L13.8634 51.6281L9.59531 50.4047L8.3719 46.1366L8.27158 45.7866L7.96973 45.5831L4.28859 43.1006L4.44397 38.6634L4.45671 38.2995L4.23254 38.0126L1.49869 34.5142L3.01765 30.3421L3.1422 30L3.01765 29.6579L1.49869 25.4858L4.23254 21.9874L4.45671 21.7005L4.44397 21.3366L4.28859 16.8994L7.96973 14.4169L8.27158 14.2134L8.3719 13.8634L9.59531 9.59531L13.8634 8.3719L14.2134 8.27158L14.4169 7.96973L16.8994 4.28859L21.3366 4.44397L21.7005 4.45671L21.9874 4.23254L25.4858 1.49869L29.6579 3.01765L30 3.1422L30.3421 3.01765L34.5142 1.49869L38.0126 4.23254L38.2995 4.45671L38.6634 4.44397L43.1006 4.28859L45.5831 7.96973L45.7866 8.27158L46.1366 8.3719L50.4047 9.59531L51.6281 13.8634L51.7284 14.2134L52.0303 14.4169L55.7114 16.8994L55.556 21.3366L55.5433 21.7005L55.7675 21.9874L58.5013 25.4858L56.9824 29.6579L56.8578 30L56.9824 30.3421L58.5013 34.5142L55.7675 38.0126L55.5433 38.2995L55.556 38.6634L55.7114 43.1006L52.0303 45.5831L51.7284 45.7866L51.6281 46.1366L50.4047 50.4047L46.1366 51.6281L45.7866 51.7284L45.5831 52.0303L43.1006 55.7114L38.6634 55.556L38.2995 55.5433L38.0126 55.7675L34.5142 58.5013L30.3421 56.9824Z" stroke="#231F20" stroke-width="2"/>
</svg>
