<svg height="140" viewBox="0 0 140 140" width="140" xmlns="http://www.w3.org/2000/svg"><g fill="none" fill-rule="evenodd" transform=""><circle cx="70" cy="70" fill="#fff" r="70"/><circle cx="70" cy="70" r="63" stroke="#febd39" stroke-width="4"/><path d="m27.224 69.432c0-5.208.648-8.904 5.832-8.904s5.832 3.696 5.832 8.904-.648 8.904-5.832 8.904-5.832-3.696-5.832-8.904zm3.456 0c0 4.608.336 6.36 2.376 6.36s2.376-1.752 2.376-6.36c0-4.584-.336-6.36-2.376-6.36s-2.376 1.776-2.376 6.36zm10.248 8.568v-17.136h6.384c2.856 0 4.56 1.464 4.56 4.416 0 2.304-.912 3.816-2.856 4.224v.048c2.352.312 2.688 1.608 2.76 5.232.024 1.824.12 2.712.768 3.072v.144h-3.744c-.36-.48-.408-1.128-.432-1.8l-.096-3.288c-.072-1.344-.624-2.16-2.04-2.16h-1.848v7.248zm3.456-14.592v4.944h1.44c1.656 0 2.592-.72 2.592-2.568 0-1.584-.792-2.376-2.4-2.376zm20.808 2.544h-3.312c0-1.248-.552-2.88-1.968-2.88-1.656 0-2.352 1.704-2.352 6 0 4.128.384 6.72 2.376 6.72.84 0 2.136-.888 2.136-2.736v-1.752h-2.28v-2.544h5.592v9.24h-2.544v-1.584h-.048c-.84 1.344-1.968 1.92-3.6 1.92-4.248 0-5.088-3.168-5.088-9.096 0-5.76 1.344-8.712 5.76-8.712 3.768 0 5.328 1.944 5.328 5.424zm7.872-2.112-1.656 7.704h3.36l-1.656-7.704zm-6.648 14.16 4.536-17.136h4.272l4.536 17.136h-3.6l-.792-3.624h-4.56l-.792 3.624zm14.544-17.136h3.984l4.176 11.736h.048v-11.736h3.168v17.136h-3.936l-4.224-12h-.048v12h-3.168zm17.4 17.136h-3.456v-17.136h3.456zm13.344-11.352h-3.456c0-2.496-.504-3.576-2.064-3.576-1.728 0-2.16 1.728-2.16 6.6 0 5.184.72 6.12 2.208 6.12 1.224 0 2.16-.624 2.16-4.344h3.456c0 3.72-.912 6.888-5.448 6.888-5.184 0-5.832-3.696-5.832-8.904s.648-8.904 5.832-8.904c4.944 0 5.304 3.624 5.304 6.12z" fill="#b8b5b5"/></g></svg>