<svg height="140" viewBox="0 0 140 140" width="140" xmlns="http://www.w3.org/2000/svg" xmlns:xlink="http://www.w3.org/1999/xlink"><defs><path id="a" d="m26 22 88.626258 95.107236"/></defs><g fill="none" fill-rule="evenodd"><circle cx="70" cy="70" fill="#fff" r="70"/><g fill="#b8b5b5" fill-rule="nonzero" transform="translate(43 35)"><path d="m4.47602651 76.6585414c-.01529975-.3909936-.89588529-39.4512523 38.45846859-61.4641909l.6918886 1.2375797c-38.57746659 21.5777457-37.73938035 59.7948183-37.73938035 60.179012z"/><path d="m5.96690203 54.8733991s-9.71024057-5.7578055-4.11903237-16.6597265c-.00169997.0050999 9.99073594 6.3850952 4.11903237 16.6597265z"/><path d="m10.1454334 23.8234089s-8.80755537 9.1458498 2.0943656 17.8956061c0 0 7.5019769-8.6375581-2.0943656-17.8956061z"/><path d="m21.4451479 30.0062073s-8.952053-6.5584923 1.342978-18.9172894c.0016999 0 9.861538 8.9843525-1.342978 18.9172894z"/><path d="m33.1154563 18.397098s-4.9078194-12.57979351 11.1263173-18.34099892c.0017 0 2.4734594 12.74809072-11.1263173 18.34099892z"/><path d="m43.9884778 14.5364613s3.4152439-13.46547888 16.4557298-9.56914285c.0017 0 .4521926 10.84242195-16.4557298 9.56914285z"/><path d="m10.3290304 56.8385668s6.4462942-9.8156388 17.9755049-2.5499581c.0017 0-6.1198995 10.6503251-17.9755049 2.5499581z"/><path d="m17.3142157 44.0292771s7.7926721-9.0336517 19.5904784-2.6519564c-.0017.0033999-10.7846229 11.9134044-19.5904784 2.6519564z"/><path d="m25.9517739 33.0253578s9.4841443-9.9363369 19.3643821-.8499861c0 .0051-14.2831655 7.9643693-19.3643821.8499861z"/><path d="m37.8549785 22.9275236s7.2911803-7.8538711 17.3397153-.6289897c.0017.0017-8.5423598 8.3162635-17.3397153.6289897z"/></g><g transform=""><use stroke="#fff" stroke-width="10" xlink:href="#a"/><use stroke="#febd39" stroke-width="4" xlink:href="#a"/></g><circle cx="70" cy="70" r="63" stroke="#febd39" stroke-width="4"/></g></svg>