<?xml version="1.0" encoding="UTF-8"?>
<svg width="60px" height="60px" viewBox="0 0 60 60" version="1.1" xmlns="http://www.w3.org/2000/svg" xmlns:xlink="http://www.w3.org/1999/xlink">
    <!-- Generator: Sketch 58 (84663) - https://sketch.com -->
    <title>Group 29</title>
    <desc>Created with Sketch.</desc>
    <g id="Page-1" stroke="none" stroke-width="1" fill="none" fill-rule="evenodd">
        <g id="gold-lp-desktop-7" transform="translate(-1066.000000, -3718.000000)" stroke="#000000" stroke-width="2">
            <g id="Group-29" transform="translate(1066.000000, 3718.000000)">
                <g id="Group-28" transform="translate(25.147285, 32.049422) rotate(-25.000000) translate(-25.147285, -32.049422) translate(12.647285, 13.549422)">
                    <path d="M21,4 C21,15.3333333 15.3333333,21 4,21 C4,9.66666667 9.66666667,4 21,4 Z" id="Rectangle-Copy-12" transform="translate(12.500000, 12.500000) scale(-1, 1) rotate(-45.000000) translate(-12.500000, -12.500000) "></path>
                    <path d="M12.4791847,12 L12.4791847,36" id="Line-3-Copy" stroke-linecap="round"></path>
                </g>
                <g id="Group-5" transform="translate(37.500000, 32.500000) rotate(30.000000) translate(-37.500000, -32.500000) translate(28.000000, 18.000000)">
                    <path d="M9.50761184,11 L9.50761184,28" id="Line-3" stroke-linecap="round"></path>
                    <path d="M16,3 C16,11.6666667 11.6666667,16 3,16 C3,7.33333333 7.33333333,3 16,3 Z" id="Rectangle-Copy-13" transform="translate(9.500000, 9.500000) rotate(-45.000000) translate(-9.500000, -9.500000) "></path>
                </g>
                <circle id="Oval" cx="30" cy="30" r="29"></circle>
            </g>
        </g>
    </g>
</svg>