<svg height="140" viewBox="0 0 140 140" width="140" xmlns="http://www.w3.org/2000/svg"><g fill="none" fill-rule="evenodd"><circle cx="70" cy="70" fill="#fff" r="70"/><circle cx="70" cy="70" r="63" stroke="#febd39" stroke-width="4"/><g fill="#b8b5b5" fill-rule="nonzero" transform="translate(43 31)"><path d="m23.1014662 46.2957214c-3.6891108 20.3656875 4.5631232 28.6194181 9.3926407 31.7951962.7632643.5028565 3.7070699-.9623116 3.7789066-1.8378207-11.97427-10.0526398-12.7899152-16.8591615-13.1715473-29.9573755z"/><path d="m22.7078613 45.1598045c6.7840727-3.8911513 9.2788993-12.834813 2.5442143-18.2584794-10.1768573-8.1848871-7.0340043-19.38691322-3.7295189-26.81452249-25.23411644 12.05508619-26.75465866 40.62960639-11.86352179 45.93204839 3.44217229 1.2302025 6.67482119 1.2915629 9.47944329.5746931-3.3823085-4.2518311-6.2976788-10.7934552-7.191147-20.9523534 2.6983638 8.8389 4.7935991 14.6007972 10.7605301 19.5186138z"/><path d="m51.9319044 25.7160206c-2.2613575 5.3638024-6.5850253 12.4831128-15.8384825 11.1735907-6.1360464-.8740124-9.5782187 4.8100617-8.2971319 10.2576736 5.4895165.7168698 9.5258378-1.0072096 15.4628367-3.9225799-5.743938 4.5032594-10.5929112 6.1779511-14.4690966 6.4952296 1.0027198 1.8123785 2.6145544 3.4706076 4.938769 4.6693816 10.0616195 5.187204 24.2493559-9.5886949 18.2031053-28.6732956z"/></g></g></svg>