<?xml version="1.0" encoding="UTF-8"?>
<svg width="60px" height="60px" viewBox="0 0 60 60" version="1.1" xmlns="http://www.w3.org/2000/svg" xmlns:xlink="http://www.w3.org/1999/xlink">
    <!-- Generator: Sketch 59.1 (86144) - https://sketch.com -->
    <title>Group 30</title>
    <desc>Created with Sketch.</desc>
    <g id="Page-1" stroke="none" stroke-width="1" fill="none" fill-rule="evenodd">
        <g id="gold-lp-desktop-7-copy" transform="translate(-1066.000000, -3988.000000)">
            <g id="Group-30" transform="translate(1066.000000, 3988.000000)">
                <path d="M15.568,29.176 C15.008,28.904 14.416,28.76 13.696,28.76 C13.024,28.76 12.048,28.904 11.2,29.656 C10.496,30.28 10,31.256 10,32.472 C10,33.768 10.576,34.632 11.104,35.128 C11.728,35.72 12.688,36.136 13.776,36.136 C14.576,36.136 15.184,35.896 15.568,35.704 L15.568,33.8 C15.04,34.28 14.464,34.408 14.032,34.408 C12.864,34.408 12.016,33.576 12.016,32.44 C12.016,31.432 12.672,30.488 13.968,30.488 C14.64,30.488 15.152,30.712 15.568,31.096 L15.568,29.176 Z M22.736,31.992 L25.488,31.992 C25.312,32.76 24.896,33.304 24.48,33.624 C23.888,34.072 23.088,34.264 22.384,34.264 C21.248,34.264 20.496,33.816 20.016,33.352 C19.568,32.92 18.96,32.072 18.96,30.648 C18.96,29.448 19.424,28.424 20.032,27.832 C20.688,27.192 21.648,26.888 22.496,26.888 C22.992,26.888 23.552,27 24,27.224 C24.336,27.4 24.88,27.768 25.248,28.488 L27.056,27.512 C26.496,26.552 25.744,25.912 25.056,25.56 C24.24,25.128 23.392,25 22.592,25 C20.6312,25 19.3202,25.73644 18.508102,26.509702 L18.384,26.632 C17.744,27.272 16.816,28.536 16.816,30.6 C16.816,33 18.032,34.344 18.4,34.712 C19.568,35.88 20.944,36.152 22.272,36.152 C23.6,36.152 24.96,35.848 26.064,34.744 C27.536,33.288 27.632,31.048 27.632,30.328 L27.632,30.2 L22.736,30.2 L22.736,31.992 Z M29.008,35.912 L31.12,35.912 L32.208,29.336 L34.944,35.912 L35.648,35.912 L38.512,29.336 L39.472,35.912 L41.584,35.912 L39.792,25.24 L38.288,25.24 L35.328,32.024 L32.496,25.24 L30.992,25.24 L29.008,35.912 Z M43.472,25.24 L43.472,35.912 L45.552,35.912 L45.552,31.96 L46.896,31.96 C48.128,31.96 49.008,31.608 49.6,31.016 C50.368,30.248 50.4698685,29.1823668 50.4791956,28.7128337 L50.48,28.632 C50.48,27.864 50.256,26.824 49.392,26.056 C48.6602667,25.4138667 47.88672,25.2595556 46.8111881,25.2418347 L43.472,25.24 Z M45.552,27.032 L46.272,27.032 C46.768,27.032 47.312,27.064 47.744,27.368 C48.048,27.592 48.336,27.992 48.336,28.584 C48.336,29.048 48.144,29.528 47.76,29.832 C47.312,30.168 46.8,30.168 46.4,30.168 L45.552,30.168 L45.552,27.032 Z" id="cGMP" fill="#000000" fill-rule="nonzero"></path>
                <path d="M34.5141644,58.5013125 L38.2995165,55.5432852 L43.1006154,55.7114055 L45.7866184,51.7284162 L50.4046869,50.4046869 L51.7284162,45.7866184 L55.7114055,43.1006154 L55.5432852,38.2995165 L58.5013125,34.5141644 L56.8577995,30 L58.5013125,25.4858356 L55.5432852,21.7004835 L55.7114055,16.8993846 L51.7284162,14.2133816 L50.4046869,9.59531308 L45.7866184,8.27158378 L43.1006154,4.28859451 L38.2995165,4.45671478 L34.5141644,1.49868746 L30,3.14220051 L25.4858356,1.49868746 L21.7004835,4.45671478 L16.8993846,4.28859451 L14.2133816,8.27158378 L9.59531308,9.59531308 L8.27158378,14.2133816 L4.28859451,16.8993846 L4.45671478,21.7004835 L1.49868746,25.4858356 L3.14220051,30 L1.49868746,34.5141644 L4.45671478,38.2995165 L4.28859451,43.1006154 L8.27158378,45.7866184 L9.59531308,50.4046869 L14.2133816,51.7284162 L16.8993846,55.7114055 L21.7004835,55.5432852 L25.4858356,58.5013125 L30,56.8577995 L34.5141644,58.5013125 Z" id="Star" stroke="#000000" stroke-width="2"></path>
            </g>
        </g>
    </g>
</svg>