<svg height="140" viewBox="0 0 140 140" width="140" xmlns="http://www.w3.org/2000/svg" xmlns:xlink="http://www.w3.org/1999/xlink"><defs><path id="a" d="m26 22 88.626258 95.107236"/></defs><g fill="none" fill-rule="evenodd"><circle cx="70" cy="70" fill="#fff" r="70"/><path d="m18.081 9.422h-5.382c0-2.028-.897-4.68-3.198-4.68-2.691 0-3.822 2.769-3.822 9.75 0 6.708.624 10.92 3.861 10.92 1.365 0 3.471-1.443 3.471-4.446v-2.847h-3.705v-4.134h9.087v15.015h-4.134v-2.574h-.078c-1.365 2.184-3.198 3.12-5.85 3.12-6.903 0-8.268-5.148-8.268-14.781 0-9.36 2.184-14.157 9.36-14.157 6.123 0 8.658 3.159 8.658 8.814zm4.056 19.578v-27.846h8.346l3.978 19.656h.078l4.017-19.656h8.307v27.846h-5.148v-22.23h-.078l-4.953 22.23h-4.368l-4.953-22.23h-.078v22.23zm28.158-13.923c0-8.463 1.053-14.469 9.477-14.469s9.477 6.006 9.477 14.469-1.053 14.469-9.477 14.469-9.477-6.006-9.477-14.469zm5.616 0c0 7.488.546 10.335 3.861 10.335s3.861-2.847 3.861-10.335c0-7.449-.546-10.335-3.861-10.335s-3.861 2.886-3.861 10.335z" fill="#b8b5b5" transform="translate(35.527607 54.711656)"/><g transform=""><use stroke="#fff" stroke-width="10" xlink:href="#a"/><use stroke="#febd39" stroke-width="4" xlink:href="#a"/></g><circle cx="70" cy="70" r="63" stroke="#febd39" stroke-width="4"/></g></svg>