<?xml version="1.0" encoding="UTF-8"?>
<svg width="60px" height="60px" viewBox="0 0 60 60" version="1.1" xmlns="http://www.w3.org/2000/svg" xmlns:xlink="http://www.w3.org/1999/xlink">
    <!-- Generator: Sketch 58 (84663) - https://sketch.com -->
    <title>Group 13</title>
    <desc>Created with Sketch.</desc>
    <defs>
        <rect id="path-1" x="-1" y="4" width="12" height="2"></rect>
        <rect id="path-3" x="-1" y="4" width="12" height="2"></rect>
    </defs>
    <g id="Page-1" stroke="none" stroke-width="1" fill="none" fill-rule="evenodd">
        <g id="gold-lp-desktop-7" transform="translate(-1066.000000, -3898.000000)">
            <g id="Group-13" transform="translate(1066.000000, 3898.000000)">
                <circle id="Oval" stroke="#000000" stroke-width="2" cx="30" cy="30" r="29"></circle>
                <path d="M16.9931799,31.4784314 L19.7791986,31.4784314 C19.601023,32.255925 19.1798806,32.8066496 18.7587383,33.1306053 C18.1594203,33.5841432 17.3495311,33.7785166 16.6368286,33.7785166 C15.486786,33.7785166 14.7254902,33.3249787 14.2395567,32.855243 C13.7860188,32.4179028 13.170503,31.5594203 13.170503,30.1178176 C13.170503,28.9029838 13.6402387,27.8663257 14.2557545,27.2670077 C14.9198636,26.6190963 15.8917306,26.3113384 16.7502131,26.3113384 C17.2523444,26.3113384 17.8192668,26.4247229 18.2728048,26.6514919 C18.6129582,26.8296675 19.1636829,27.2022165 19.5362319,27.9311168 L21.3665814,26.943052 C20.799659,25.971185 20.0383632,25.3232737 19.3418585,24.9669224 C18.5157715,24.5295823 17.657289,24.4 16.8473998,24.4 C14.8623615,24.4 13.5351556,25.1455435 12.7130189,25.9283641 L12.5873828,26.0521739 C11.9394714,26.7000853 11,27.9797101 11,30.0692242 C11,32.4988917 12.2310315,33.8595055 12.6035806,34.2320546 C13.7860188,35.4144928 15.1790281,35.6898551 16.5234442,35.6898551 C17.8678602,35.6898551 19.2446718,35.3820972 20.3623188,34.2644501 C21.8525149,32.7904518 21.9497016,30.5227621 21.9497016,29.7938619 L21.9497016,29.6642796 L16.9931799,29.6642796 L16.9931799,31.4784314 Z M23.342711,35.4468883 L25.4808184,35.4468883 L26.5822677,28.7895993 L29.3520887,35.4468883 L30.0647911,35.4468883 L32.9641944,28.7895993 L33.9360614,35.4468883 L36.0741688,35.4468883 L34.2600171,24.6429668 L32.7374254,24.6429668 L29.7408355,31.5108269 L26.8738278,24.6429668 L25.3512361,24.6429668 L23.342711,35.4468883 Z M43.2335891,24.4 C39.8320546,24.4 37.4671782,26.7648764 37.4671782,30.0530264 C37.4671782,33.3411765 39.8320546,35.6898551 43.2335891,35.6898551 C46.6351236,35.6898551 49,33.3411765 49,30.0530264 C49,26.7648764 46.6351236,24.4 43.2335891,24.4 Z M43.2335891,33.7785166 C41.1278772,33.7785166 39.6376812,32.2397272 39.6376812,30.0530264 C39.6376812,27.8663257 41.1278772,26.3113384 43.2335891,26.3113384 C45.3393009,26.3113384 46.829497,27.8663257 46.829497,30.0530264 C46.829497,32.2397272 45.3393009,33.7785166 43.2335891,33.7785166 Z" id="GMO" fill="#000000" fill-rule="nonzero"></path>
                <g id="Rectangle" transform="translate(11.000000, 39.000000)">
                    <mask id="mask-2" fill="white">
                        <use xlink:href="#path-1"></use>
                    </mask>
                    <use id="Mask" fill="#000000" transform="translate(5.000000, 5.000000) rotate(-45.000000) translate(-5.000000, -5.000000) " xlink:href="#path-1"></use>
                    <rect mask="url(#mask-2)" x="0" y="0" width="10" height="10"></rect>
                </g>
                <g id="Rectangle-Copy-26" transform="translate(39.000000, 11.000000)">
                    <mask id="mask-4" fill="white">
                        <use xlink:href="#path-3"></use>
                    </mask>
                    <use id="Mask" fill="#000000" transform="translate(5.000000, 5.000000) rotate(-45.000000) translate(-5.000000, -5.000000) " xlink:href="#path-3"></use>
                    <rect id="Rectangle" mask="url(#mask-4)" x="0" y="0" width="10" height="10"></rect>
                </g>
            </g>
        </g>
    </g>
</svg>