<?xml version="1.0" encoding="UTF-8"?>
<svg width="60px" height="60px" viewBox="0 0 60 60" version="1.1" xmlns="http://www.w3.org/2000/svg" xmlns:xlink="http://www.w3.org/1999/xlink">
    <!-- Generator: Sketch 58 (84663) - https://sketch.com -->
    <title>Group 12</title>
    <desc>Created with Sketch.</desc>
    <defs>
        <rect id="path-1" x="-1" y="4" width="12" height="2"></rect>
        <rect id="path-3" x="-1" y="4" width="12" height="2"></rect>
    </defs>
    <g id="Page-1" stroke="none" stroke-width="1" fill="none" fill-rule="evenodd">
        <g id="gold-lp-desktop-7" transform="translate(-1066.000000, -3808.000000)">
            <g id="Group-12" transform="translate(1066.000000, 3808.000000)">
                <circle id="Oval-Copy" stroke="#000000" stroke-width="2" cx="30" cy="30" r="29"></circle>
                <g id="Group-11" transform="translate(22.000000, 14.000000)" fill="#000000">
                    <path d="M6,14 C6,18 4,20 0,20 C0,16 2,14 6,14 Z" id="Rectangle-Copy-6" transform="translate(3.000000, 17.000000) scale(-1, 1) translate(-3.000000, -17.000000) "></path>
                    <path d="M6,20 C6,24 4,26 0,26 C0,22 2,20 6,20 Z" id="Rectangle-Copy-15" transform="translate(3.000000, 23.000000) scale(-1, 1) translate(-3.000000, -23.000000) "></path>
                    <path d="M6,8 C6,12 4,14 0,14 C0,10 2,8 6,8 Z" id="Rectangle-Copy-12" transform="translate(3.000000, 11.000000) scale(-1, 1) translate(-3.000000, -11.000000) "></path>
                    <path d="M16,8 C16,12 14,14 10,14 C10,10 12,8 16,8 Z" id="Rectangle-Copy-13"></path>
                    <path d="M11.0026407,2 C11.0026407,6 9.00264069,8 5.00264069,8 C5.00264069,4 7.00264069,2 11.0026407,2 Z" id="Rectangle-Copy-14" transform="translate(8.002641, 5.000000) rotate(-45.000000) translate(-8.002641, -5.000000) "></path>
                    <path d="M16,14 C16,18 14,20 10,20 C10,16 12,14 16,14 Z" id="Rectangle-Copy-11"></path>
                    <path d="M16,20 C16,24 14,26 10,26 C10,22 12,20 16,20 Z" id="Rectangle-Copy-25"></path>
                    <path d="M8,10 C8.55228475,10 9,10.4477153 9,11 L9,30 C9,30.5522847 8.55228475,31 8,31 C7.44771525,31 7,30.5522847 7,30 L7,11 C7,10.4477153 7.44771525,10 8,10 Z" id="Rectangle"></path>
                </g>
                <g id="Rectangle-Copy-28" transform="translate(11.000000, 39.000000)">
                    <mask id="mask-2" fill="white">
                        <use xlink:href="#path-1"></use>
                    </mask>
                    <use id="Mask" fill="#000000" transform="translate(5.000000, 5.000000) rotate(-45.000000) translate(-5.000000, -5.000000) " xlink:href="#path-1"></use>
                    <rect id="Rectangle" mask="url(#mask-2)" x="0" y="0" width="10" height="10"></rect>
                </g>
                <g id="Rectangle-Copy-29" transform="translate(39.000000, 11.000000)">
                    <mask id="mask-4" fill="white">
                        <use xlink:href="#path-3"></use>
                    </mask>
                    <use id="Mask" fill="#000000" transform="translate(5.000000, 5.000000) rotate(-45.000000) translate(-5.000000, -5.000000) " xlink:href="#path-3"></use>
                    <rect id="Rectangle" mask="url(#mask-4)" x="0" y="0" width="10" height="10"></rect>
                </g>
            </g>
        </g>
    </g>
</svg>