<?xml version="1.0" encoding="UTF-8"?>
<svg width="104px" height="104px" viewBox="0 0 104 104" version="1.1" xmlns="http://www.w3.org/2000/svg" xmlns:xlink="http://www.w3.org/1999/xlink">
    <!-- Generator: Sketch 59.1 (86144) - https://sketch.com -->
    <title>Group 6</title>
    <desc>Created with Sketch.</desc>
    <g id="Page-1" stroke="none" stroke-width="1" fill="none" fill-rule="evenodd">
        <g id="gold-lp-desktop-7" transform="translate(-793.000000, -1809.000000)" stroke="#6C5851">
            <g id="Group-6" transform="translate(795.000000, 1811.000000)">
                <circle id="Oval" stroke-width="2.82" cx="50" cy="50" r="50"></circle>
                <g id="Group-24" transform="translate(27.294118, 14.000000)" stroke-width="2.82352941">
                    <path d="M24.1900111,11.9788101 C24.226578,13.3696744 24.1841497,14.6932684 24.0663297,15.9531139 C22.1399759,16.8249606 20.8477396,18.812281 20.9651115,21.0518706 C21.021475,22.12735 21.3950385,23.1109954 21.9903941,23.9169015 C21.8548477,24.2067953 21.7134087,24.491807 21.5661717,24.7720288 C20.8162784,24.0261803 19.766234,23.5886799 18.6272097,23.6483736 C16.4859839,23.7605905 14.8411472,25.5873668 14.9533641,27.7285926 C15.0219016,29.0363666 15.7300164,30.158974 16.7587215,30.8091977 C12.6661872,34.3871401 7.07565078,36.7639349 0.474846398,38.4148829 C4.19793001,22.0019239 1.28295934,8.24641171 24.1900111,11.9788101 Z" id="Combined-Shape"></path>
                    <path d="M25.9749011,15.4879357 C26.7487378,15.4473806 27.4924566,15.5751163 28.1705167,15.8391418 C27.378313,19.391087 27.5053849,22.6280237 28.4166704,25.6068618 C27.8381356,25.8671463 27.2015446,26.026416 26.5290465,26.0616602 C23.6091931,26.2146832 21.1181346,23.971724 20.9651115,21.0518706 C20.8120885,18.1320172 23.0550477,15.6409587 25.9749011,15.4879357 Z" id="Combined-Shape"></path>
                    <circle id="Oval-Copy-17" transform="translate(18.454971, 47.336911) rotate(-3.000000) translate(-18.454971, -47.336911) " cx="18.4549712" cy="47.336911" r="5.29411765"></circle>
                    <path d="M27.9388764,25.9877741 C28.1406798,25.977198 28.3406759,25.9767206 28.538374,25.9858998 C29.5321782,28.9941413 31.3323221,31.7372858 33.796278,34.2747172 C32.939817,36.3438746 30.952748,37.8462919 28.5669079,37.9713285 C25.2577407,38.1447546 22.434541,35.6027342 22.2611149,32.2935671 C22.0876888,28.9843999 24.6297092,26.1612002 27.9388764,25.9877741 Z" id="Combined-Shape"></path>
                    <circle id="Oval-Copy-21" transform="translate(22.162762, 57.391934) rotate(-3.000000) translate(-22.162762, -57.391934) " cx="22.1627625" cy="57.3919344" r="4.94117647"></circle>
                    <circle id="Oval-Copy-18" transform="translate(17.937769, 37.468101) rotate(-3.000000) translate(-17.937769, -37.468101) " cx="17.9377689" cy="37.4681015" r="4.58823529"></circle>
                    <circle id="Oval-Copy-16" transform="translate(18.830396, 27.525406) rotate(-3.000000) translate(-18.830396, -27.525406) " cx="18.8303964" cy="27.5254059" r="3.88235294"></circle>
                    <circle id="Oval-Copy-20" transform="translate(27.729695, 48.971397) rotate(-3.000000) translate(-27.729695, -48.971397) " cx="27.7296949" cy="48.9713966" r="3.88235294"></circle>
                    <circle id="Oval-Copy-19" transform="translate(25.579506, 41.662147) rotate(-3.000000) translate(-25.579506, -41.662147) " cx="25.5795057" cy="41.662147" r="3.52941176"></circle>
                    <circle id="Oval-Copy-23" transform="translate(13.591455, 62.435670) rotate(-3.000000) translate(-13.591455, -62.435670) " cx="13.5914551" cy="62.4356695" r="3.88235294"></circle>
                    <circle id="Oval-Copy-22" transform="translate(13.556011, 55.015591) rotate(-3.000000) translate(-13.556011, -55.015591) " cx="13.5560108" cy="55.0155909" r="3.52941176"></circle>
                    <path d="M28.572284,43.4800009 C43.6700429,35.5491215 51.9521406,25.7931123 45.7123399,11.0094127 C25.5972032,15.4399452 26.7480721,26.7198531 28.572284,43.4800009 Z" id="Path-4-Copy" transform="translate(37.727030, 27.244707) scale(-1, 1) translate(-37.727030, -27.244707) "></path>
                    <path d="M24.1176471,12.7298759 C26.0807259,8.97298379 27.7296949,8.9506374 25.5795057,0" id="Path-7"></path>
                    <path d="M30.3003579,12.1125653 C28.1165828,10.0447074 27.1067308,5.82637764 25.5795057,4.54747351e-13" id="Path-8"></path>
                </g>
            </g>
        </g>
    </g>
</svg>