<?xml version="1.0" encoding="UTF-8"?>
<svg width="104px" height="104px" viewBox="0 0 104 104" version="1.1" xmlns="http://www.w3.org/2000/svg" xmlns:xlink="http://www.w3.org/1999/xlink">
    <!-- Generator: Sketch 59.1 (86144) - https://sketch.com -->
    <title>Group 3</title>
    <desc>Created with Sketch.</desc>
    <defs>
        <circle id="path-1" cx="31.7647059" cy="32.7647059" r="12.8571429"></circle>
        <circle id="path-2" cx="31.7647059" cy="32.7647059" r="12.8571429"></circle>
    </defs>
    <g id="Page-1" stroke="none" stroke-width="1" fill="none" fill-rule="evenodd">
        <g id="gold-lp-desktop-7" transform="translate(-513.000000, -1809.000000)">
            <g id="Group-3" transform="translate(515.000000, 1811.000000)">
                <circle id="Oval" stroke="#336699" stroke-width="2.82" cx="50" cy="50" r="50"></circle>
                <g id="Group-7" transform="translate(18.000000, 17.000000)" stroke-width="2.82352941">
                    <path d="M57.5627217,35.2562788 L57.5626467,43.3196931 L51.2097318,43.3196931 L51.2096568,35.2562788 C49.0693553,34.0659878 47.6803069,31.7379868 47.6803069,29.1457801 C47.6803069,25.3282242 50.6688747,22.2097187 54.3861893,22.2097187 C58.1035038,22.2097187 61.0920716,25.3282242 61.0920716,29.1457801 C61.0920716,31.7379868 59.7030232,34.0659878 57.5627217,35.2562788 Z" id="Combined-Shape" stroke="#336699" transform="translate(54.386189, 32.764706) rotate(-270.000000) translate(-54.386189, -32.764706) "></path>
                    <path d="M12.319755,35.2562788 L12.31968,43.3196931 L5.96676505,43.3196931 L5.96669003,35.2562788 C3.82638859,34.0659878 2.43734015,31.7379868 2.43734015,29.1457801 C2.43734015,25.3282242 5.42590793,22.2097187 9.14322251,22.2097187 C12.8605371,22.2097187 15.8491049,25.3282242 15.8491049,29.1457801 C15.8491049,31.7379868 14.4600564,34.0659878 12.319755,35.2562788 Z" id="Combined-Shape-Copy" stroke="#336699" transform="translate(9.143223, 32.764706) scale(1, -1) rotate(270.000000) translate(-9.143223, -32.764706) "></path>
                    <g id="Group-31" transform="translate(31.849105, 32.621483) rotate(-270.000000) translate(-31.849105, -32.621483) translate(-0.150895, 26.621483)" stroke="#336699">
                        <path d="M57.7136169,8.63479542 L57.7135419,16.6982097 L51.3606269,16.6982097 L51.3605519,8.63479542 C49.2202505,7.44450439 47.831202,5.11650339 47.831202,2.52429668 C47.831202,-1.2932592 50.8197698,-4.41176471 54.5370844,-4.41176471 C58.254399,-4.41176471 61.2429668,-1.2932592 61.2429668,2.52429668 C61.2429668,5.11650339 59.8539183,7.44450439 57.7136169,8.63479542 Z" id="Combined-Shape" transform="translate(54.537084, 6.143223) rotate(-270.000000) translate(-54.537084, -6.143223) "></path>
                        <path d="M12.4706501,8.63479542 L12.4705751,16.6982097 L6.11766019,16.6982097 L6.11758517,8.63479542 C3.97728373,7.44450439 2.58823529,5.11650339 2.58823529,2.52429668 C2.58823529,-1.2932592 5.57680307,-4.41176471 9.29411765,-4.41176471 C13.0114322,-4.41176471 16,-1.2932592 16,2.52429668 C16,5.11650339 14.6109516,7.44450439 12.4706501,8.63479542 Z" id="Combined-Shape-Copy" transform="translate(9.294118, 6.143223) scale(1, -1) rotate(270.000000) translate(-9.294118, -6.143223) "></path>
                    </g>
                    <g id="Group-31" transform="translate(31.849105, 32.621483) rotate(-225.000000) translate(-31.849105, -32.621483) translate(-0.150895, 26.621483)" stroke="#336699">
                        <path d="M57.7136169,8.63479542 L57.7135419,16.6982097 L51.3606269,16.6982097 L51.3605519,8.63479542 C49.2202505,7.44450439 47.831202,5.11650339 47.831202,2.52429668 C47.831202,-1.2932592 50.8197698,-4.41176471 54.5370844,-4.41176471 C58.254399,-4.41176471 61.2429668,-1.2932592 61.2429668,2.52429668 C61.2429668,5.11650339 59.8539183,7.44450439 57.7136169,8.63479542 Z" id="Combined-Shape" transform="translate(54.537084, 6.143223) rotate(-270.000000) translate(-54.537084, -6.143223) "></path>
                        <path d="M12.4706501,8.63479542 L12.4705751,16.6982097 L6.11766019,16.6982097 L6.11758517,8.63479542 C3.97728373,7.44450439 2.58823529,5.11650339 2.58823529,2.52429668 C2.58823529,-1.2932592 5.57680307,-4.41176471 9.29411765,-4.41176471 C13.0114322,-4.41176471 16,-1.2932592 16,2.52429668 C16,5.11650339 14.6109516,7.44450439 12.4706501,8.63479542 Z" id="Combined-Shape-Copy" transform="translate(9.294118, 6.143223) scale(1, -1) rotate(270.000000) translate(-9.294118, -6.143223) "></path>
                    </g>
                    <g id="Group-31" transform="translate(31.849105, 32.621483) rotate(-135.000000) translate(-31.849105, -32.621483) translate(-0.150895, 26.621483)" stroke="#336699">
                        <path d="M57.7136169,8.63479542 L57.7135419,16.6982097 L51.3606269,16.6982097 L51.3605519,8.63479542 C49.2202505,7.44450439 47.831202,5.11650339 47.831202,2.52429668 C47.831202,-1.2932592 50.8197698,-4.41176471 54.5370844,-4.41176471 C58.254399,-4.41176471 61.2429668,-1.2932592 61.2429668,2.52429668 C61.2429668,5.11650339 59.8539183,7.44450439 57.7136169,8.63479542 Z" id="Combined-Shape" transform="translate(54.537084, 6.143223) rotate(-270.000000) translate(-54.537084, -6.143223) "></path>
                        <path d="M12.4706501,8.63479542 L12.4705751,16.6982097 L6.11766019,16.6982097 L6.11758517,8.63479542 C3.97728373,7.44450439 2.58823529,5.11650339 2.58823529,2.52429668 C2.58823529,-1.2932592 5.57680307,-4.41176471 9.29411765,-4.41176471 C13.0114322,-4.41176471 16,-1.2932592 16,2.52429668 C16,5.11650339 14.6109516,7.44450439 12.4706501,8.63479542 Z" id="Combined-Shape-Copy" transform="translate(9.294118, 6.143223) scale(1, -1) rotate(270.000000) translate(-9.294118, -6.143223) "></path>
                    </g>
                    <g id="Oval">
                        <circle stroke="#FAF7F3" cx="31.7647059" cy="32.7647059" r="14.2689076"></circle>
                        <circle stroke="#336699" stroke-linejoin="square" cx="31.7647059" cy="32.7647059" r="11.4453782"></circle>
                    </g>
                    <g id="Oval">
                        <circle stroke="#F3F1EF" cx="31.7647059" cy="32.7647059" r="14.2689076"></circle>
                        <circle stroke="#336699" stroke-linejoin="square" cx="31.7647059" cy="32.7647059" r="11.4453782"></circle>
                    </g>
                </g>
            </g>
        </g>
    </g>
</svg>