<?xml version="1.0" encoding="UTF-8"?>
<svg width="104px" height="104px" viewBox="0 0 104 104" version="1.1" xmlns="http://www.w3.org/2000/svg" xmlns:xlink="http://www.w3.org/1999/xlink">
    <!-- Generator: Sketch 59.1 (86144) - https://sketch.com -->
    <title>Group 21</title>
    <desc>Created with Sketch.</desc>
    <g id="Page-1" stroke="none" stroke-width="1" fill="none" fill-rule="evenodd">
        <g id="gold-lp-desktop-7" transform="translate(-1073.000000, -1809.000000)" stroke="#ECA846">
            <g id="Group-21" transform="translate(1075.000000, 1811.000000)">
                <circle id="Oval" stroke-width="2.82" cx="50" cy="50" r="50"></circle>
                <path d="M51.0588235,83.8823529 C57.1014684,83.8823529 62,79.1391146 62,73.2880335 C62,69.3873128 58.3529412,63.5069879 51.0588235,55.6470588 C43.7647059,63.5069879 40.1176471,69.3873128 40.1176471,73.2880335 C40.1176471,79.1391146 45.0161786,83.8823529 51.0588235,83.8823529 Z" id="Oval" stroke-width="2.82352941"></path>
                <g id="Group-16" transform="translate(66.611995, 39.033344) rotate(-4.000000) translate(-66.611995, -39.033344) translate(48.611995, 21.033344)" stroke-width="2.82352941">
                    <path d="M13.6192583,32.5535625 C17.9668262,31.5165133 21.3252219,20.1399121 26.738307,23.3390596 C32.8792073,26.9683477 33.9206529,22.2658022 30.6949067,17.7784179 C27.4691604,13.2910337 32.9539654,12.1317828 28.4024629,5.75140947 C23.7278932,-0.80148163 16.3485918,4.81400171 10.6520432,11.1575621 C8.74616087,13.5176792 5.89085217,8.87999977 3.47615964,11.5575 C1.06146711,14.2350003 6.16674773,14.7300259 5.59751946,21.7105926" id="Path-3" transform="translate(17.652334, 17.688546) rotate(11.000000) translate(-17.652334, -17.688546) "></path>
                    <path d="M9.23867504,32.0453187 C11.4448503,31.8872081 11.7452771,28.5079218 11.7452771,24.4729944 C11.7452771,20.438067 10.9401998,17.9235085 9.23867504,17.4335539 C7.53715032,16.9435994 5.42691033,20.7045089 5.42691033,24.7394363 C5.42691033,28.7743637 7.03249974,32.2034292 9.23867504,32.0453187 Z" id="Oval" transform="translate(8.586094, 24.720492) rotate(-22.000000) translate(-8.586094, -24.720492) "></path>
                    <path d="M14.3356369,9.56179751 C15.5975095,9.56179751 19.533072,11.3931061 21.7338091,14.0058306" id="Path-5" stroke-linecap="square" transform="translate(18.034723, 11.783814) rotate(11.000000) translate(-18.034723, -11.783814) "></path>
                </g>
                <g id="Group-17" transform="translate(31.748140, 39.535066) scale(-1, 1) rotate(127.000000) translate(-31.748140, -39.535066) translate(12.248140, 21.035066)" stroke-width="2.82352941">
                    <path d="M31.5674746,31.7515997 C33.4989373,32.0090431 34.5882353,28.4362098 34.5882353,24.3464691 C34.5882353,20.2567284 33.6553745,16.9143756 31.5674746,16.9413385 C29.4795747,16.9683013 28.7703912,20.5144773 28.9748745,24.4470582 C29.1793578,28.3796392 29.6360119,31.4941563 31.5674746,31.7515997 Z" id="Oval-Copy-15" transform="translate(31.764706, 24.352941) rotate(28.000000) translate(-31.764706, -24.352941) "></path>
                    <path d="M13.4117647,21.8823529 C14.6746173,21.8823529 18.6939106,22.8788177 20.4705882,24.7058824" id="Path-5-Copy" stroke-linecap="square" transform="translate(16.941176, 23.294118) rotate(-90.000000) translate(-16.941176, -23.294118) "></path>
                    <path d="M24.0152269,3.53321658 C22.8222505,3.40438596 20.4949889,6.58181725 19.2805437,7.80407363 C18.0660985,9.02633 6.45319423,2.90500348 5.89961429,3.86126688 C4.79869535,5.76301301 4.41836789,15.970182 6.00029659,17.9556207 C6.70458217,18.8395517 12.7993005,18.9585061 12.5097401,19.4764907 C11.6528867,21.0092861 6.18915823,23.3786742 7.57089245,26.2791557 C8.95262666,29.1796372 18.7638166,35.6609067 22.0966546,33.420169 C25.4294926,31.1794313 25.5668543,24.652865 33.1764706,14.2586616" id="Path-6" transform="translate(19.058824, 18.705882) rotate(71.000000) translate(-19.058824, -18.705882) "></path>
                </g>
            </g>
        </g>
    </g>
</svg>